{
.appVersion = "1240";
customParameters = (
{
name = panose;
value = (
0,
0,
10,
0,
0,
0,
0,
0,
0,
0
);
},
{
name = unicodeRanges;
value = (
0,
1
);
},
{
name = codePageRanges;
value = (
1252
);
},
{
name = blueScale;
value = 0.037;
},
{
name = glyphOrder;
value = (
.notdef,
A,
Aacute,
Acircumflex,
Adieresis,
Agrave,
Amacron,
Aring,
Atilde,
AE,
B,
C,
Ccedilla,
D,
E,
Eacute,
Ecircumflex,
Edieresis,
Egrave,
Emacron,
F,
G,
H,
I,
Iacute,
Icircumflex,
Idieresis,
Igrave,
Imacron,
J,
K,
L,
M,
N,
Nacute,
Ntilde,
O,
Oacute,
Ocircumflex,
Odieresis,
Ograve,
Otilde,
OE,
P,
Q,
R,
S,
T,
U,
Uacute,
Ucircumflex,
Udieresis,
Ugrave,
Umacron,
V,
W,
X,
Y,
Ydieresis,
Z,
a,
aacute,
acircumflex,
adieresis,
agrave,
amacron,
aring,
atilde,
ae,
b,
c,
d,
e,
eacute,
ecircumflex,
edieresis,
egrave,
emacron,
f,
g,
h,
i,
iacute,
icircumflex,
idieresis,
igrave,
imacron,
j,
k,
l,
m,
n,
nacute,
ntilde,
o,
oacute,
ocircumflex,
odieresis,
ograve,
omacron,
oslash,
otilde,
oe,
p,
q,
r,
s,
t,
u,
uacute,
ucircumflex,
udieresis,
ugrave,
umacron,
v,
w,
x,
y,
ydieresis,
z,
zero,
one,
two,
three,
four,
five,
six,
seven,
eight,
nine,
asterisk,
backslash,
periodcentered,
bullet,
colon,
comma,
ellipsis,
exclam,
exclamdown,
numbersign,
period,
question,
questiondown,
quotedbl,
quotesingle,
semicolon,
slash,
underscore,
bracketleft,
bracketright,
parenleft,
parenright,
emdash,
endash,
hyphen,
quoteleft,
quoteright,
space,
dollar,
plus,
minus,
equal,
greater,
less,
percent,
at,
asciicircum
);
}
);
date = "2018-06-06 09:24:04 +0000";
designer = "Jenny O'Grady, Chloe Hubler, Jeremy Shellhorn, Andrea Herstowski";
disablesNiceNames = 1;
familyName = "National Park";
fontMaster = (
{
ascender = 800;
capHeight = 700;
customParameters = (
{
name = typoAscender;
value = 800;
},
{
name = typoDescender;
value = -200;
},
{
name = typoLineGap;
value = 200;
},
{
name = winAscent;
value = 1000;
},
{
name = winDescent;
value = 200;
},
{
name = hheaAscender;
value = 1000;
},
{
name = hheaDescender;
value = -200;
},
{

glyphs = (
{
color = 4;
glyphname = .notdef;
lastChange = "2019-06-12 19:52:39 +0000";
layers = (
{
hints = (
{
horizontal = 1;
place = "{-200, 69}";
type = Stem;
},
{
horizontal = 1;
place = "{-98, 47}";
type = Stem;
},
{
horizontal = 1;
place = "{-18, 23}";
type = Stem;
},
{
horizontal = 1;
place = "{38, 47}";
type = Stem;
},
{
horizontal = 1;
place = "{118, 60}";
type = Stem;
},
{
horizontal = 1;
place = "{211, 24}";
type = Stem;
},
{
horizontal = 1;
place = "{291, 22}";
type = Stem;
},
{
horizontal = 1;
place = "{347, 23}";
type = Stem;
},
{
horizontal = 1;
place = "{403, 37}";
type = Stem;
},
{
horizontal = 1;
place = "{473, 27}";
type = Stem;
},
{
horizontal = 1;
place = "{534, 36}";
type = Stem;
},
{
horizontal = 1;
place = "{604, 26}";
type = Stem;
},
{
horizontal = 1;
place = "{663, 37}";
type = Stem;
},
{
horizontal = 1;
place = "{733, 67}";
type = Stem;
},
{
place = "{93, 74}";
type = Stem;
},
{
place = "{200, 33}";
type = Stem;
},
{
place = "{267, 33}";
type = Stem;
},
{
place = "{333, 77}";
type = Stem;
}
);
layerId = "B0A8294E-1052-4773-8338-C7458B103E7D";
paths = (
{
closed = 1;
nodes = (
"410 800 LINE",
"93 800 LINE",
"93 -200 LINE",
"410 -200 LINE"
);
},
{
closed = 1;
nodes = (
"333 733 LINE",
"333 700 LINE",
"267 700 LINE",
"267 663 LINE",
"333 663 LINE",
"333 630 LINE",
"167 630 LINE",
"167 663 LINE",
"233 663 LINE",
"233 700 LINE",
"168 700 LINE",
"168 733 LINE"
);
},
{
closed = 1;
nodes = (
"267 604 LINE",
"267 534 LINE",
"333 534 LINE",
"333 500 LINE",
"167 500 LINE",
"167 604 LINE"
);
},
{
closed = 1;
nodes = (
"233 570 LINE",
"200 570 LINE",
"200 534 LINE",
"233 534 LINE"
);
},
{
closed = 1;
nodes = (
"333 473 LINE",
"333 440 LINE",
"267 440 LINE",
"267 370 LINE",
"167 370 LINE",
"167 403 LINE",
"233 403 LINE",
"233 440 LINE",
"167 440 LINE",
"167 473 LINE"
);
},
{
closed = 1;
nodes = (
"333 413 LINE",
"333 313 LINE",
"167 313 LINE",
"167 347 LINE",
"300 347 LINE",
"300 413 LINE"
);
},
{
closed = 1;
nodes = (
"333 291 LINE",
"333 178 LINE",
"167 178 LINE",
"167 291 LINE",
"200 291 LINE",
"200 211 LINE",
"300 211 LINE",
"300 258 LINE",
"267 258 LINE",
"267 235 LINE",
"233 235 LINE",
"233 291 LINE"
);
},
{
closed = 1;
nodes = (
"333 118 LINE",
"333 5 LINE",
"167 5 LINE",
"167 118 LINE"
);
},
{
closed = 1;
nodes = (
"300 85 LINE",
"200 85 LINE",
"200 38 LINE",
"300 38 LINE"
);
},
{
closed = 1;
nodes = (
"333 -18 LINE",
"333 -51 LINE",
"301 -51 LINE",
"231 -98 LINE",
"333 -98 LINE",
"333 -131 LINE",
"167 -131 LINE",
"167 -98 LINE",
"237 -51 LINE",
"167 -51 LINE",
"167 -18 LINE"
);
}
);
width = 500;
},
{
hints = (
{
horizontal = 1;
place = "{-200, 69}";
type = Stem;
},
{
horizontal = 1;
place = "{-98, 47}";
type = Stem;
},
{
horizontal = 1;
place = "{-18, 23}";
type = Stem;
},
{
horizontal = 1;
place = "{38, 47}";
type = Stem;
},
{
horizontal = 1;
place = "{118, 60}";
type = Stem;
},
{
horizontal = 1;
place = "{211, 24}";
type = Stem;
},
{
horizontal = 1;
place = "{291, 22}";
type = Stem;
},
{
horizontal = 1;
place = "{347, 23}";
type = Stem;
},
{
horizontal = 1;
place = "{403, 37}";
type = Stem;
},
{
horizontal = 1;
place = "{473, 27}";
type = Stem;
},
{
horizontal = 1;
place = "{534, 36}";
type = Stem;
},
{
horizontal = 1;
place = "{604, 26}";
type = Stem;
},
{
horizontal = 1;
place = "{663, 37}";
type = Stem;
},
{
horizontal = 1;
place = "{733, 67}";
type = Stem;
},
{
place = "{93, 74}";
type = Stem;
},
{
place = "{200, 33}";
type = Stem;
},
{
place = "{267, 33}";
type = Stem;
},
{
place = "{333, 77}";
type = Stem;
}
);
layerId = "05B5844F-1A6E-4D42-8559-CD9FEB58A40E";
paths = (
{
closed = 1;
nodes = (
"410 800 LINE",
"93 800 LINE",
"93 -200 LINE",
"410 -200 LINE"
);
},
{
closed = 1;
nodes = (
"333 733 LINE",
"333 700 LINE",
"267 700 LINE",
"267 663 LINE",
"333 663 LINE",
"333 630 LINE",
"167 630 LINE",
"167 663 LINE",
"233 663 LINE",
"233 700 LINE",
"168 700 LINE",
"168 733 LINE"
);
},
{
closed = 1;
nodes = (
"267 604 LINE",
"267 534 LINE",
"333 534 LINE",
"333 500 LINE",
"167 500 LINE",
"167 604 LINE"
);
},
{
closed = 1;
nodes = (
"233 570 LINE",
"200 570 LINE",
"200 534 LINE",
"233 534 LINE"
);
},
{
closed = 1;
nodes = (
"333 473 LINE",
"333 440 LINE",
"267 440 LINE",
"267 370 LINE",
"167 370 LINE",
"167 403 LINE",
"233 403 LINE",
"233 440 LINE",
"167 440 LINE",
"167 473 LINE"
);
},
{
closed = 1;
nodes = (
"333 413 LINE",
"333 313 LINE",
"167 313 LINE",
"167 347 LINE",
"300 347 LINE",
"300 413 LINE"
);
},
{
closed = 1;
nodes = (
"333 291 LINE",
"333 178 LINE",
"167 178 LINE",
"167 291 LINE",
"200 291 LINE",
"200 211 LINE",
"300 211 LINE",
"300 258 LINE",
"267 258 LINE",
"267 235 LINE",
"233 235 LINE",
"233 291 LINE"
);
},
{
closed = 1;
nodes = (
"333 118 LINE",
"333 5 LINE",
"167 5 LINE",
"167 118 LINE"
);
},
{
closed = 1;
nodes = (
"300 85 LINE",
"200 85 LINE",
"200 38 LINE",
"300 38 LINE"
);
},
{
closed = 1;
nodes = (
"333 -18 LINE",
"333 -51 LINE",
"301 -51 LINE",
"231 -98 LINE",
"333 -98 LINE",
"333 -131 LINE",
"167 -131 LINE",
"167 -98 LINE",
"237 -51 LINE",
"167 -51 LINE",
"167 -18 LINE"
);
}
);
width = 500;
}
);
note = .notdef;
},
{
color = 4;
glyphname = A;
lastChange = "2019-06-12 19:52:39 +0000";
layers = (
{
hints = (
{
horizontal = 1;
place = "{181, 138}";
type = Stem;
},
{
place = "{25.38, 566.36}";
type = Stem;
}
);
layerId = "B0A8294E-1052-4773-8338-C7458B103E7D";
paths = (
{
closed = 1;
nodes = (
"372 664 LINE SMOOTH",
"363 688 OFFCURVE",
"334 700 OFFCURVE",
"309 700 CURVE SMOOTH",
"284 700 OFFCURVE",
"256 688 OFFCURVE",
"247 664 CURVE SMOOTH",
"30 93 LINE SMOOTH",
"18 59 OFFCURVE",
"29 16 OFFCURVE",
"68 3 CURVE SMOOTH",
"106 -9 OFFCURVE",
"143 6 OFFCURVE",
"157 43 CURVE SMOOTH",
"209 181 LINE",
"408 181 LINE",
"460 42 LINE SMOOTH",
"471 13 OFFCURVE",
"508 -11 OFFCURVE",
"549 5 CURVE SMOOTH",
"583 18 OFFCURVE",
"600 57 OFFCURVE",
"588 90 CURVE SMOOTH"
);
},
{
closed = 1;
nodes = (
"356 319 LINE",
"261 319 LINE",
"309 448 LINE"
);
}
);
width = 617;
},
{
hints = (
{
horizontal = 1;
place = "{213, 37}";
type = Stem;
},
{
place = "{49.63, 544.3}";
type = Stem;
}
);
layerId = "05B5844F-1A6E-4D42-8559-CD9FEB58A40E";
paths = (
{
closed = 1;
nodes = (
"334 688 LINE",
"332 695 OFFCURVE",
"325 700 OFFCURVE",
"317 700 CURVE SMOOTH",
"309 700 OFFCURVE",
"302 695 OFFCURVE",
"300 688 CURVE SMOOTH",
"51 25 LINE SMOOTH",
"47 15 OFFCURVE",
"52 5 OFFCURVE",
"63 1 CURVE SMOOTH",
"70 -3 OFFCURVE",
"83 2 OFFCURVE",
"87 12 CURVE SMOOTH",
"162 213 LINE",
"479 213 LINE",
"557 12 LINE SMOOTH",
"561 2 OFFCURVE",
"572 -2 OFFCURVE",
"581 1 CURVE SMOOTH",
"592 5 OFFCURVE",
"596 16 OFFCURVE",
"593 25 CURVE SMOOTH"
);
},
{
closed = 1;
nodes = (
"176 250 LINE",
"318 628 LINE",
"465 250 LINE"
);
}
);
width = 644;
}
);
note = A;
unicode = 0041;
},
{
color = 4;
glyphname = Aacute;
lastChange = "2019-06-12 19:52:39 +0000";
layers = (
{
hints = (
{
horizontal = 1;
place = "{180, 137}";
type = Stem;
},
{
horizontal = 1;
place = "{714.28, 216.72}";
type = Stem;
},
{
place = "{241.62, 230.63}";
type = Stem;
}
);
layerId = "B0A8294E-1052-4773-8338-C7458B103E7D";
paths = (
{
closed = 1;
nodes = (
"277 713 OFFCURVE",
"321 704 OFFCURVE",
"353 729 CURVE SMOOTH",
"448 811 LINE SMOOTH",
"477 835 OFFCURVE",
"481 879 OFFCURVE",
"455 909 CURVE SMOOTH",
"431 936 OFFCURVE",
"387 939 OFFCURVE",
"359 914 CURVE SMOOTH",
"264 833 LINE",
"235 807 OFFCURVE",
"235 764 OFFCURVE",
"258 738 CURVE SMOOTH"
);
},
{
closed = 1;
nodes = (
"98 -8 OFFCURVE",
"143 6 OFFCURVE",
"157 42 CURVE SMOOTH",
"209 180 LINE",
"407 180 LINE",
"461 42 LINE SMOOTH",
"474 7 OFFCURVE",
"514 -10 OFFCURVE",
"550 4 CURVE SMOOTH",
"585 18 OFFCURVE",
"602 58 OFFCURVE",
"589 93 CURVE SMOOTH",
"369 658 LINE SMOOTH",
"357 683 OFFCURVE",
"333 700 OFFCURVE",
"304 700 CURVE SMOOTH",
"278 700 OFFCURVE",
"252 683 OFFCURVE",
"241 657 CURVE SMOOTH",
"29 91 LINE SMOOTH",
"16 57 OFFCURVE",
"34 16 OFFCURVE",
"70 4 CURVE SMOOTH"
);
},
{
closed = 1;
nodes = (
"306 441 LINE",
"354 317 LINE",
"260 317 LINE"
);
}
);
width = 618;
},
{
hints = (
{
horizontal = 1;
place = "{212, 38}";
type = Stem;
},
{
place = "{49.62, 543.76}";
type = Stem;
}
);
layerId = "05B5844F-1A6E-4D42-8559-CD9FEB58A40E";
paths = (
{
closed = 1;
nodes = (
"314 836 OFFCURVE",
"327 836 OFFCURVE",
"334 843 CURVE SMOOTH",
"446 938 LINE SMOOTH",
"454 945 OFFCURVE",
"455 957 OFFCURVE",
"448 965 CURVE SMOOTH",
"441 973 OFFCURVE",
"429 974 OFFCURVE",
"421 967 CURVE SMOOTH",
"309 872 LINE SMOOTH",
"301 865 OFFCURVE",
"300 853 OFFCURVE",
"307 845 CURVE SMOOTH"
);
},
{
closed = 1;
nodes = (
"68 -2 OFFCURVE",
"82 1 OFFCURVE",
"87 12 CURVE SMOOTH",
"162 212 LINE",
"479 212 LINE",
"557 12 LINE SMOOTH",
"561 2 OFFCURVE",
"572 -3 OFFCURVE",
"582 1 CURVE SMOOTH",
"591 5 OFFCURVE",
"596 16 OFFCURVE",
"592 26 CURVE SMOOTH",
"335 688 LINE SMOOTH",
"332 695 OFFCURVE",
"325 700 OFFCURVE",
"317 700 CURVE SMOOTH",
"309 700 OFFCURVE",
"302 695 OFFCURVE",
"299 688 CURVE SMOOTH",
"51 26 LINE SMOOTH",
"47 16 OFFCURVE",
"52 5 OFFCURVE",
"62 1 CURVE SMOOTH"
);
},
{
closed = 1;
nodes = (
"317 628 LINE",
"464 250 LINE",
"176 250 LINE"
);
}
);
width = 643;
}
);
note = Aacute;
unicode = 00C1;
},
{
color = 4;
glyphname = Acircumflex;
lastChange = "2019-06-12 19:58:52 +0000";
layers = (
{
hints = (
{
horizontal = 1;
place = "{180, 138}";
type = Stem;
},
{
horizontal = 1;
place = "{714.5, 245.75}";
type = Stem;
},
{
place = "{25.43, 568.28}";
type = Stem;
}
);
layerId = "B0A8294E-1052-4773-8338-C7458B103E7D";
paths = (
{
closed = 1;
nodes = (
"309 801 LINE",
"388 732 LINE SMOOTH",
"421 705 OFFCURVE",
"461 711 OFFCURVE",
"484 736 CURVE SMOOTH",
"508 763 OFFCURVE",
"506 807 OFFCURVE",
"478 833 CURVE SMOOTH",
"355 943 LINE SMOOTH",
"329 966 OFFCURVE",
"290 966 OFFCURVE",
"264 943 CURVE SMOOTH",
"141 833 LINE SMOOTH",
"113 807 OFFCURVE",
"111 763 OFFCURVE",
"135 736 CURVE SMOOTH",
"160 708 OFFCURVE",
"203 705 OFFCURVE",
"231 732 CURVE SMOOTH"
);
},
{
closed = 1;
nodes = (
"370 657 LINE SMOOTH",
"359 682 OFFCURVE",
"334 700 OFFCURVE",
"305 700 CURVE SMOOTH",
"277 700 OFFCURVE",
"250 682 OFFCURVE",
"242 656 CURVE SMOOTH",
"30 93 LINE SMOOTH",
"16 57 OFFCURVE",
"35 17 OFFCURVE",
"71 4 CURVE SMOOTH",
"112 -8 OFFCURVE",
"147 12 OFFCURVE",
"158 44 CURVE SMOOTH",
"209 180 LINE",
"408 180 LINE",
"461 43 LINE SMOOTH",
"475 8 OFFCURVE",
"515 -9 OFFCURVE",
"549 4 CURVE SMOOTH",
"585 19 OFFCURVE",
"603 57 OFFCURVE",
"589 94 CURVE SMOOTH"
);
},
{
closed = 1;
nodes = (
"261 318 LINE",
"307 441 LINE",
"355 318 LINE"
);
}
);
width = 619;
},
{
hints = (
{
horizontal = 1;
place = "{212, 38}";
type = Stem;
},
{
place = "{49.62, 543.75}";
type = Stem;
}
);
layerId = "05B5844F-1A6E-4D42-8559-CD9FEB58A40E";
paths = (
{
closed = 1;
nodes = (
"321 962 LINE",
"454 844 LINE SMOOTH",
"461 837 OFFCURVE",
"475 838 OFFCURVE",
"480 845 CURVE SMOOTH",
"487 853 OFFCURVE",
"487 865 OFFCURVE",
"479 872 CURVE SMOOTH",
"334 1002 LINE SMOOTH",
"327 1008 OFFCURVE",
"316 1008 OFFCURVE",
"309 1002 CURVE SMOOTH",
"164 872 LINE SMOOTH",
"156 865 OFFCURVE",
"155 853 OFFCURVE",
"162 845 CURVE SMOOTH",
"169 838 OFFCURVE",
"181 837 OFFCURVE",
"189 844 CURVE SMOOTH"
);
},
{
closed = 1;
nodes = (
"334 688 LINE SMOOTH",
"331 696 OFFCURVE",
"324 701 OFFCURVE",
"317 700 CURVE SMOOTH",
"309 700 OFFCURVE",
"302 696 OFFCURVE",
"299 688 CURVE SMOOTH",
"51 26 LINE SMOOTH",
"47 16 OFFCURVE",
"52 5 OFFCURVE",
"62 1 CURVE SMOOTH",
"67 -2 OFFCURVE",
"81 0 OFFCURVE",
"86 12 CURVE SMOOTH",
"161 212 LINE",
"479 212 LINE",
"557 12 LINE SMOOTH",
"561 2 OFFCURVE",
"572 -3 OFFCURVE",
"581 1 CURVE SMOOTH",
"591 5 OFFCURVE",
"596 16 OFFCURVE",
"592 26 CURVE SMOOTH"
);
},
{
closed = 1;
nodes = (
"175 250 LINE",
"317 628 LINE",
"464 250 LINE"
);
}
);
width = 643;
},
{
associatedMasterId = "05B5844F-1A6E-4D42-8559-CD9FEB58A40E";
hints = (
{
horizontal = 1;
place = "{212, 38}";
type = Stem;
},
{
place = "{49.62, 543.75}";
type = Stem;
}
);
layerId = "76BB1668-DAA6-47AF-A6F1-E608001390BC";
name = "Jun 12 19, 15:57";
paths = (
{
closed = 1;
nodes = (
"321 962 LINE",
"454 844 LINE SMOOTH",
"457 841 OFFCURVE",
"462 839 OFFCURVE",
"466 839 CURVE SMOOTH",
"471 839 OFFCURVE",
"477 841 OFFCURVE",
"480 845 CURVE SMOOTH",
"487 853 OFFCURVE",
"487 865 OFFCURVE",
"479 872 CURVE SMOOTH",
"334 1002 LINE SMOOTH",
"327 1008 OFFCURVE",
"316 1008 OFFCURVE",
"309 1002 CURVE SMOOTH",
"164 872 LINE SMOOTH",
"156 865 OFFCURVE",
"155 853 OFFCURVE",
"162 845 CURVE SMOOTH",
"169 838 OFFCURVE",
"181 837 OFFCURVE",
"189 844 CURVE SMOOTH"
);
},
{
closed = 1;
nodes = (
"334 688 LINE SMOOTH",
"331 696 OFFCURVE",
"324 701 OFFCURVE",
"317 700 CURVE SMOOTH",
"309 700 OFFCURVE",
"302 696 OFFCURVE",
"299 688 CURVE SMOOTH",
"51 26 LINE SMOOTH",
"47 16 OFFCURVE",
"52 5 OFFCURVE",
"62 1 CURVE SMOOTH",
"64 0 OFFCURVE",
"66 0 OFFCURVE",
"68 0 CURVE SMOOTH",
"76 0 OFFCURVE",
"83 5 OFFCURVE",
"86 12 CURVE SMOOTH",
"161 212 LINE",
"479 212 LINE",
"557 12 LINE SMOOTH",
"561 2 OFFCURVE",
"572 -3 OFFCURVE",
"581 1 CURVE SMOOTH",
"591 5 OFFCURVE",
"596 16 OFFCURVE",
"592 26 CURVE SMOOTH"
);
},
{
closed = 1;
nodes = (
"175 250 LINE",
"317 628 LINE",
"464 250 LINE"
);
}
);
width = 643;
},
{
associatedMasterId = "B0A8294E-1052-4773-8338-C7458B103E7D";
hints = (
{
horizontal = 1;
place = "{180, 138}";
type = Stem;
},
{
horizontal = 1;
place = "{714.5, 245.75}";
type = Stem;
},
{
place = "{25.43, 568.28}";
type = Stem;
}
);
layerId = "0904405F-D89F-4B8B-A213-4987570E80F5";
name = "Jun 12 19, 15:57";
paths = (
{
closed = 1;
nodes = (
"309 801 LINE",
"388 732 LINE SMOOTH",
"421 705 OFFCURVE",
"461 711 OFFCURVE",
"484 736 CURVE SMOOTH",
"508 763 OFFCURVE",
"506 807 OFFCURVE",
"478 833 CURVE SMOOTH",
"355 943 LINE SMOOTH",
"329 966 OFFCURVE",
"290 966 OFFCURVE",
"264 943 CURVE SMOOTH",
"141 833 LINE SMOOTH",
"113 807 OFFCURVE",
"111 763 OFFCURVE",
"135 736 CURVE SMOOTH",
"160 708 OFFCURVE",
"203 705 OFFCURVE",
"231 732 CURVE SMOOTH"
);
},
{
closed = 1;
nodes = (
"370 657 LINE SMOOTH",
"359 682 OFFCURVE",
"334 700 OFFCURVE",
"305 700 CURVE SMOOTH",
"277 700 OFFCURVE",
"250 682 OFFCURVE",
"242 656 CURVE",
"30 93 LINE SMOOTH",
"16 57 OFFCURVE",
"35 17 OFFCURVE",
"71 4 CURVE SMOOTH",
"112 -8 OFFCURVE",
"147 12 OFFCURVE",
"158 44 CURVE",
"158 43 LINE",
"209 180 LINE",
"408 180 LINE",
"461 43 LINE SMOOTH",
"475 8 OFFCURVE",
"515 -9 OFFCURVE",
"549 4 CURVE SMOOTH",
"585 19 OFFCURVE",
"603 57 OFFCURVE",
"589 94 CURVE SMOOTH"
);
},
{
closed = 1;
nodes = (
"261 318 LINE",
"307 441 LINE",
"355 318 LINE"
);
}
);
width = 619;
}
);
note = Acircumflex;
unicode = 00C2;
},
{
color = 4;
glyphname = Adieresis;
lastChange = "2019-06-12 19:52:44 +0000";
layers = (
{
hints = (
{
horizontal = 1;
place = "{181, 136}";
type = Stem;
},
{
horizontal = 1;
place = "{716, 152}";
type = Stem;
},
{
place = "{156, 137}";
type = Stem;
},
{
place = "{316, 136}";
type = Stem;
}
);
layerId = "B0A8294E-1052-4773-8338-C7458B103E7D";
paths = (
{
closed = 1;
nodes = (
"262 716 OFFCURVE",
"293 746 OFFCURVE",
"293 784 CURVE SMOOTH",
"293 799 LINE SMOOTH",
"293 838 OFFCURVE",
"263 868 OFFCURVE",
"225 868 CURVE SMOOTH",
"187 868 OFFCURVE",
"156 837 OFFCURVE",
"156 799 CURVE SMOOTH",
"156 784 LINE SMOOTH",
"156 746 OFFCURVE",
"187 716 OFFCURVE",
"225 716 CURVE SMOOTH"
);
},
{
closed = 1;
nodes = (
"421 716 OFFCURVE",
"452 746 OFFCURVE",
"452 784 CURVE SMOOTH",
"452 799 LINE SMOOTH",
"452 838 OFFCURVE",
"421 868 OFFCURVE",
"383 868 CURVE SMOOTH",
"346 868 OFFCURVE",
"316 837 OFFCURVE",
"316 799 CURVE SMOOTH",
"316 784 LINE SMOOTH",
"316 746 OFFCURVE",
"346 716 OFFCURVE",
"383 716 CURVE SMOOTH"
);
},
{
closed = 1;
nodes = (
"368 657 LINE",
"356 683 OFFCURVE",
"332 700 OFFCURVE",
"304 700 CURVE SMOOTH",
"277 700 OFFCURVE",
"251 683 OFFCURVE",
"240 656 CURVE SMOOTH",
"30 93 LINE SMOOTH",
"16 58 OFFCURVE",
"34 18 OFFCURVE",
"69 4 CURVE SMOOTH",
"109 -9 OFFCURVE",
"147 15 OFFCURVE",
"156 44 CURVE",
"208 181 LINE",
"407 181 LINE",
"460 43 LINE SMOOTH",
"473 8 OFFCURVE",
"513 -9 OFFCURVE",
"548 4 CURVE SMOOTH",
"584 20 OFFCURVE",
"601 58 OFFCURVE",
"587 93 CURVE SMOOTH"
);
},
{
closed = 1;
nodes = (
"259 317 LINE",
"306 441 LINE",
"354 317 LINE"
);
}
);
width = 617;
},
{
hints = (
{
horizontal = 1;
place = "{212, 38}";
type = Stem;
},
{
horizontal = 1;
place = "{838, 37}";
type = Stem;
},
{
place = "{216, 38}";
type = Stem;
},
{
place = "{390, 38}";
type = Stem;
}
);
layerId = "05B5844F-1A6E-4D42-8559-CD9FEB58A40E";
paths = (
{
closed = 1;
nodes = (
"245 838 OFFCURVE",
"254 847 OFFCURVE",
"254 857 CURVE SMOOTH",
"254 875 LINE SMOOTH",
"254 886 OFFCURVE",
"245 894 OFFCURVE",
"235 894 CURVE SMOOTH",
"223 894 OFFCURVE",
"216 886 OFFCURVE",
"216 875 CURVE SMOOTH",
"216 857 LINE SMOOTH",
"216 847 OFFCURVE",
"223 838 OFFCURVE",
"235 838 CURVE SMOOTH"
);
},
{
closed = 1;
nodes = (
"420 838 OFFCURVE",
"428 847 OFFCURVE",
"428 857 CURVE SMOOTH",
"428 875 LINE SMOOTH",
"428 886 OFFCURVE",
"420 894 OFFCURVE",
"409 894 CURVE SMOOTH",
"399 894 OFFCURVE",
"390 886 OFFCURVE",
"390 875 CURVE SMOOTH",
"390 857 LINE SMOOTH",
"390 847 OFFCURVE",
"399 838 OFFCURVE",
"409 838 CURVE SMOOTH"
);
},
{
closed = 1;
nodes = (
"334 687 LINE SMOOTH",
"331 695 OFFCURVE",
"325 700 OFFCURVE",
"317 700 CURVE SMOOTH",
"309 700 OFFCURVE",
"302 695 OFFCURVE",
"299 687 CURVE SMOOTH",
"51 25 LINE SMOOTH",
"47 16 OFFCURVE",
"53 5 OFFCURVE",
"62 1 CURVE SMOOTH",
"69 -2 OFFCURVE",
"83 2 OFFCURVE",
"87 12 CURVE SMOOTH",
"162 212 LINE",
"479 212 LINE",
"557 12 LINE SMOOTH",
"561 2 OFFCURVE",
"571 -3 OFFCURVE",
"582 1 CURVE SMOOTH",
"591 5 OFFCURVE",
"596 16 OFFCURVE",
"592 25 CURVE SMOOTH"
);
},
{
closed = 1;
nodes = (
"176 250 LINE",
"317 628 LINE",
"464 250 LINE"
);
}
);
width = 643;
}
);
note = Adieresis;
unicode = 00C4;
},
{
color = 4;
glyphname = Agrave;
lastChange = "2019-06-12 20:01:16 +0000";
layers = (
{
hints = (
{
horizontal = 1;
place = "{180, 137}";
type = Stem;
},
{
horizontal = 1;
place = "{713.63, 217.12}";
type = Stem;
},
{
place = "{140.87, 231.13}";
type = Stem;
}
);
layerId = "B0A8294E-1052-4773-8338-C7458B103E7D";
paths = (
{
closed = 1;
nodes = (
"287 705 OFFCURVE",
"336 709 OFFCURVE",
"355 738 CURVE SMOOTH",
"380 766 OFFCURVE",
"377 807 OFFCURVE",
"350 833 CURVE SMOOTH",
"254 915 LINE SMOOTH",
"226 939 OFFCURVE",
"183 936 OFFCURVE",
"157 907 CURVE SMOOTH",
"131 876 OFFCURVE",
"138 833 OFFCURVE",
"165 811 CURVE SMOOTH",
"260 729 LINE SMOOTH"
);
},
{
closed = 1;
nodes = (
"368 656 LINE SMOOTH",
"358 683 OFFCURVE",
"333 700 OFFCURVE",
"304 700 CURVE SMOOTH",
"271 700 OFFCURVE",
"248 677 OFFCURVE",
"241 655 CURVE SMOOTH",
"29 92 LINE SMOOTH",
"16 56 OFFCURVE",
"34 17 OFFCURVE",
"69 4 CURVE SMOOTH",
"106 -12 OFFCURVE",
"145 12 OFFCURVE",
"157 44 CURVE SMOOTH",
"208 180 LINE",
"407 180 LINE",
"460 43 LINE SMOOTH",
"474 8 OFFCURVE",
"514 -10 OFFCURVE",
"548 4 CURVE SMOOTH",
"583 18 OFFCURVE",
"600 55 OFFCURVE",
"588 92 CURVE SMOOTH"
);
},
{
closed = 1;
nodes = (
"260 317 LINE",
"306 440 LINE",
"354 317 LINE"
);
}
);
width = 617;
},
{
hints = (
{
horizontal = 1;
place = "{212, 38}";
type = Stem;
},
{
place = "{49.62, 543.75}";
type = Stem;
}
);
layerId = "05B5844F-1A6E-4D42-8559-CD9FEB58A40E";
paths = (
{
closed = 1;
nodes = (
"313 835 OFFCURVE",
"322 835 OFFCURVE",
"331 844 CURVE SMOOTH",
"338 852 OFFCURVE",
"337 864 OFFCURVE",
"329 871 CURVE SMOOTH",
"217 966 LINE SMOOTH",
"209 973 OFFCURVE",
"197 972 OFFCURVE",
"190 964 CURVE SMOOTH",
"184 956 OFFCURVE",
"184 944 OFFCURVE",
"192 938 CURVE SMOOTH",
"304 842 LINE SMOOTH"
);
},
{
closed = 1;
nodes = (
"334 688 LINE SMOOTH",
"332 695 OFFCURVE",
"324 700 OFFCURVE",
"317 700 CURVE SMOOTH",
"309 700 OFFCURVE",
"302 695 OFFCURVE",
"299 687 CURVE SMOOTH",
"51 26 LINE SMOOTH",
"47 16 OFFCURVE",
"52 5 OFFCURVE",
"62 1 CURVE SMOOTH",
"69 -3 OFFCURVE",
"83 2 OFFCURVE",
"86 12 CURVE SMOOTH",
"161 212 LINE",
"478 212 LINE",
"556 12 LINE SMOOTH",
"560 2 OFFCURVE",
"571 -3 OFFCURVE",
"581 1 CURVE SMOOTH",
"591 5 OFFCURVE",
"596 16 OFFCURVE",
"592 26 CURVE SMOOTH"
);
},
{
closed = 1;
nodes = (
"175 250 LINE",
"317 627 LINE",
"464 250 LINE"
);
}
);
width = 643;
}
);
note = Agrave;
unicode = 00C0;
},
{
color = 4;
glyphname = Amacron;
lastChange = "2019-06-12 20:39:30 +0000";
layers = (
{
hints = (
{
horizontal = 1;
place = "{180, 136}";
type = Stem;
},
{
horizontal = 1;
place = "{721, 136}";
type = Stem;
},
{
place = "{25.41, 567.9}";
type = Stem;
}
);
layerId = "B0A8294E-1052-4773-8338-C7458B103E7D";
paths = (
{
closed = 1;
nodes = (
"370 721 LINE SMOOTH",
"407 721 OFFCURVE",
"438 752 OFFCURVE",
"438 789 CURVE SMOOTH",
"438 826 OFFCURVE",
"407 857 OFFCURVE",
"370 857 CURVE SMOOTH",
"244 858 LINE SMOOTH",
"208 858 OFFCURVE",
"177 827 OFFCURVE",
"177 790 CURVE SMOOTH",
"177 749 OFFCURVE",
"211 721 OFFCURVE",
"244 721 CURVE SMOOTH"
);
},
{
closed = 1;
nodes = (
"101 -9 OFFCURVE",
"145 8 OFFCURVE",
"158 43 CURVE SMOOTH",
"210 180 LINE",
"408 180 LINE",
"461 43 LINE SMOOTH",
"475 8 OFFCURVE",
"514 -10 OFFCURVE",
"550 4 CURVE SMOOTH",
"585 18 OFFCURVE",
"602 58 OFFCURVE",
"589 93 CURVE SMOOTH",
"369 657 LINE SMOOTH",
"358 683 OFFCURVE",
"333 700 OFFCURVE",
"304 700 CURVE SMOOTH",
"278 700 OFFCURVE",
"252 683 OFFCURVE",
"241 656 CURVE SMOOTH",
"29 92 LINE SMOOTH",
"17 56 OFFCURVE",
"35 16 OFFCURVE",
"70 4 CURVE SMOOTH"
);
},
{
closed = 1;
nodes = (
"261 316 LINE",
"307 439 LINE",
"355 316 LINE"
);
}
);
width = 618;
},
{
hints = (
{
horizontal = 1;
place = "{212, 38}";
type = Stem;
},
{
horizontal = 1;
place = "{800, 40}";
type = Stem;
},
{
place = "{49.62, 543.75}";
type = Stem;
}
);
layerId = "05B5844F-1A6E-4D42-8559-CD9FEB58A40E";
paths = (
{
closed = 1;
nodes = (
"445 800 LINE SMOOTH",
"456 800 OFFCURVE",
"465 809 OFFCURVE",
"465 820 CURVE SMOOTH",
"465 831 OFFCURVE",
"456 840 OFFCURVE",
"445 840 CURVE SMOOTH",
"198 840 LINE SMOOTH",
"187 840 OFFCURVE",
"178 831 OFFCURVE",
"178 820 CURVE SMOOTH",
"178 809 OFFCURVE",
"187 800 OFFCURVE",
"198 800 CURVE SMOOTH"
);
},
{
closed = 1;
nodes = (
"69 -3 OFFCURVE",
"83 2 OFFCURVE",
"86 12 CURVE SMOOTH",
"161 212 LINE",
"478 212 LINE",
"556 12 LINE SMOOTH",
"560 2 OFFCURVE",
"571 -3 OFFCURVE",
"581 1 CURVE SMOOTH",
"591 5 OFFCURVE",
"596 16 OFFCURVE",
"592 26 CURVE SMOOTH",
"334 688 LINE SMOOTH",
"332 695 OFFCURVE",
"324 700 OFFCURVE",
"317 700 CURVE SMOOTH",
"309 700 OFFCURVE",
"302 695 OFFCURVE",
"299 687 CURVE SMOOTH",
"51 26 LINE SMOOTH",
"47 16 OFFCURVE",
"52 5 OFFCURVE",
"62 1 CURVE SMOOTH"
);
},
{
closed = 1;
nodes = (
"175 250 LINE",
"317 627 LINE",
"464 250 LINE"
);
}
);
width = 643;
},
{
associatedMasterId = "05B5844F-1A6E-4D42-8559-CD9FEB58A40E";
hints = (
{
horizontal = 1;
place = "{212, 38}";
type = Stem;
},
{
horizontal = 1;
place = "{800, 40}";
type = Stem;
},
{
place = "{49.62, 543.75}";
type = Stem;
}
);
layerId = "735C1C4F-FEEF-4C9B-91E4-F194016F570B";
name = "Jun 12 19, 16:11";
paths = (
{
closed = 1;
nodes = (
"445 800 LINE SMOOTH",
"456 800 OFFCURVE",
"465 809 OFFCURVE",
"465 820 CURVE SMOOTH",
"465 831 OFFCURVE",
"456 840 OFFCURVE",
"445 840 CURVE SMOOTH",
"198 840 LINE SMOOTH",
"187 840 OFFCURVE",
"178 831 OFFCURVE",
"178 820 CURVE SMOOTH",
"178 809 OFFCURVE",
"187 800 OFFCURVE",
"198 800 CURVE SMOOTH"
);
},
{
closed = 1;
nodes = (
"334 688 LINE SMOOTH",
"332 695 OFFCURVE",
"324 700 OFFCURVE",
"317 700 CURVE SMOOTH",
"309 700 OFFCURVE",
"302 695 OFFCURVE",
"299 687 CURVE SMOOTH",
"51 26 LINE SMOOTH",
"47 16 OFFCURVE",
"52 5 OFFCURVE",
"62 1 CURVE SMOOTH",
"69 -3 OFFCURVE",
"83 2 OFFCURVE",
"86 12 CURVE SMOOTH",
"161 212 LINE",
"478 212 LINE",
"556 12 LINE SMOOTH",
"560 2 OFFCURVE",
"571 -3 OFFCURVE",
"581 1 CURVE SMOOTH",
"591 5 OFFCURVE",
"596 16 OFFCURVE",
"592 26 CURVE SMOOTH"
);
},
{
closed = 1;
nodes = (
"175 250 LINE",
"317 627 LINE",
"464 250 LINE"
);
}
);
width = 643;
},
{
associatedMasterId = "B0A8294E-1052-4773-8338-C7458B103E7D";
hints = (
{
horizontal = 1;
place = "{180, 136}";
type = Stem;
},
{
horizontal = 1;
place = "{721, 136}";
type = Stem;
},
{
place = "{25.41, 567.9}";
type = Stem;
}
);
layerId = "06761C7E-2226-4D9E-A557-36B0989D2465";
name = "Jun 12 19, 16:11";
paths = (
{
closed = 1;
nodes = (
"370 721 LINE SMOOTH",
"407 721 OFFCURVE",
"438 752 OFFCURVE",
"438 789 CURVE SMOOTH",
"438 826 OFFCURVE",
"407 857 OFFCURVE",
"370 857 CURVE SMOOTH",
"244 858 LINE SMOOTH",
"208 858 OFFCURVE",
"177 827 OFFCURVE",
"177 790 CURVE SMOOTH",
"177 749 OFFCURVE",
"211 721 OFFCURVE",
"244 721 CURVE SMOOTH"
);
},
{
closed = 1;
nodes = (
"369 657 LINE SMOOTH",
"358 683 OFFCURVE",
"333 700 OFFCURVE",
"305 700 CURVE SMOOTH",
"304 700 LINE SMOOTH",
"278 700 OFFCURVE",
"252 683 OFFCURVE",
"241 656 CURVE SMOOTH",
"29 93 LINE",
"29 92 LINE",
"17 56 OFFCURVE",
"35 16 OFFCURVE",
"70 4 CURVE SMOOTH",
"101 -9 OFFCURVE",
"145 8 OFFCURVE",
"158 43 CURVE SMOOTH",
"210 180 LINE",
"408 180 LINE",
"461 43 LINE SMOOTH",
"475 8 OFFCURVE",
"514 -10 OFFCURVE",
"550 4 CURVE SMOOTH",
"585 18 OFFCURVE",
"602 58 OFFCURVE",
"589 93 CURVE SMOOTH"
);
},
{
closed = 1;
nodes = (
"261 316 LINE",
"307 439 LINE",
"355 316 LINE"
);
}
);
width = 618;
}
);
note = Amacron;
unicode = 0100;
},
{
color = 0;
export = 0;
glyphname = Aring;
lastChange = "2019-06-13 09:15:10 +0000";
layers = (
{
hints = (
{
horizontal = 1;
place = "{181, 136}";
type = Stem;
},
{
horizontal = 1;
place = "{790, 134}";
type = Stem;
},
{
place = "{145, 135}";
type = Stem;
},
{
place = "{334, 135}";
type = Stem;
}
);
layerId = "B0A8294E-1052-4773-8338-C7458B103E7D";
paths = (
{
closed = 1;
nodes = (
"383 620 LINE",
"434 648 OFFCURVE",
"469 701 OFFCURVE",
"469 762 CURVE SMOOTH",
"469 852 OFFCURVE",
"395 924 OFFCURVE",
"307 924 CURVE SMOOTH",
"219 924 OFFCURVE",
"145 850 OFFCURVE",
"145 762 CURVE SMOOTH",
"145 703 OFFCURVE",
"178 649 OFFCURVE",
"227 621 CURVE",
"29 92 LINE SMOOTH",
"16 56 OFFCURVE",
"34 18 OFFCURVE",
"69 4 CURVE SMOOTH",
"99 -9 OFFCURVE",
"143 8 OFFCURVE",
"157 43 CURVE SMOOTH",
"209 181 LINE",
"407 181 LINE",
"461 42 LINE SMOOTH",
"475 8 OFFCURVE",
"515 -10 OFFCURVE",
"549 4 CURVE SMOOTH",
"584 18 OFFCURVE",
"602 59 OFFCURVE",
"588 93 CURVE SMOOTH"
);
},
{
closed = 1;
nodes = (
"323 790 OFFCURVE",
"334 778 OFFCURVE",
"334 762 CURVE SMOOTH",
"334 748 OFFCURVE",
"321 736 OFFCURVE",
"307 736 CURVE SMOOTH",
"293 736 OFFCURVE",
"280 746 OFFCURVE",
"280 762 CURVE SMOOTH",
"280 778 OFFCURVE",
"293 790 OFFCURVE",
"307 790 CURVE SMOOTH"
);
},
{
closed = 1;
nodes = (
"260 317 LINE",
"306 440 LINE",
"354 317 LINE"
);
}
);
width = 618;
},
{
hints = (
{
horizontal = 1;
place = "{212, 38}";
type = Stem;
},
{
horizontal = 1;
place = "{717, 38}";
type = Stem;
},
{
horizontal = 1;
place = "{913, 38}";
type = Stem;
},
{
place = "{203, 37}";
type = Stem;
},
{
place = "{398, 38}";
type = Stem;
}
);
layerId = "05B5844F-1A6E-4D42-8559-CD9FEB58A40E";
paths = (
{
closed = 1;
nodes = (
"384 717 OFFCURVE",
"436 769 OFFCURVE",
"436 834 CURVE SMOOTH",
"436 898 OFFCURVE",
"384 951 OFFCURVE",
"319 951 CURVE SMOOTH",
"255 951 OFFCURVE",
"203 898 OFFCURVE",
"203 834 CURVE SMOOTH",
"203 769 OFFCURVE",
"255 717 OFFCURVE",
"319 717 CURVE SMOOTH"
);
},
{
closed = 1;
nodes = (
"363 913 OFFCURVE",
"398 877 OFFCURVE",
"398 834 CURVE SMOOTH",
"398 790 OFFCURVE",
"363 755 OFFCURVE",
"319 755 CURVE SMOOTH",
"276 755 OFFCURVE",
"240 790 OFFCURVE",
"240 834 CURVE SMOOTH",
"240 877 OFFCURVE",
"276 913 OFFCURVE",
"319 913 CURVE SMOOTH"
);
},
{
closed = 1;
nodes = (
"334 687 LINE",
"332 695 OFFCURVE",
"325 700 OFFCURVE",
"317 700 CURVE SMOOTH",
"309 699 OFFCURVE",
"302 695 OFFCURVE",
"299 687 CURVE SMOOTH",
"51 25 LINE SMOOTH",
"47 16 OFFCURVE",
"52 5 OFFCURVE",
"62 1 CURVE SMOOTH",
"64 0 OFFCURVE",
"67 0 OFFCURVE",
"69 0 CURVE SMOOTH",
"76 0 OFFCURVE",
"84 5 OFFCURVE",
"87 12 CURVE SMOOTH",
"162 212 LINE",
"479 212 LINE",
"557 12 LINE SMOOTH",
"561 2 OFFCURVE",
"572 -3 OFFCURVE",
"581 1 CURVE SMOOTH",
"591 5 OFFCURVE",
"596 16 OFFCURVE",
"592 26 CURVE SMOOTH"
);
},
{
closed = 1;
nodes = (
"176 250 LINE",
"317 628 LINE",
"464 250 LINE"
);
}
);
width = 643;
}
);
note = Aring;
unicode = 00C5;
},
{
color = 0;
export = 0;
glyphname = Atilde;
lastChange = "2019-06-13 09:15:10 +0000";
layers = (
{
hints = (
{
horizontal = 1;
place = "{180, 136}";
type = Stem;
},
{
horizontal = 1;
place = "{777, 138}";
type = Stem;
},
{
place = "{25.41, 566.9}";
type = Stem;
},
{
horizontal = 1;
place = "{715, 187.79}";
type = Stem;
}
);
layerId = "B0A8294E-1052-4773-8338-C7458B103E7D";
paths = (
{
closed = 1;
nodes = (
"200 697 OFFCURVE",
"222 777 OFFCURVE",
"246 777 CURVE SMOOTH",
"280 777 OFFCURVE",
"285 715 OFFCURVE",
"371 715 CURVE SMOOTH",
"480 715 OFFCURVE",
"565 850 OFFCURVE",
"492 893 CURVE SMOOTH",
"431 929 OFFCURVE",
"401 854 OFFCURVE",
"371 854 CURVE SMOOTH",
"347 854 OFFCURVE",
"324 915 OFFCURVE",
"246 915 CURVE SMOOTH",
"145 915 OFFCURVE",
"40 759 OFFCURVE",
"139 721 CURVE SMOOTH"
);
},
{
closed = 1;
nodes = (
"368 656 LINE",
"368 655 LINE",
"358 682 OFFCURVE",
"334 700 OFFCURVE",
"306 700 CURVE SMOOTH",
"275 700 OFFCURVE",
"253 685 OFFCURVE",
"240 655 CURVE",
"29 92 LINE",
"29 91 LINE",
"17 55 OFFCURVE",
"35 16 OFFCURVE",
"70 4 CURVE",
"69 4 LINE",
"77 1 OFFCURVE",
"84 0 OFFCURVE",
"93 0 CURVE SMOOTH",
"121 0 OFFCURVE",
"146 17 OFFCURVE",
"158 42 CURVE",
"158 43 LINE",
"209 180 LINE",
"407 180 LINE",
"460 42 LINE SMOOTH",
"475 8 OFFCURVE",
"515 -10 OFFCURVE",
"549 4 CURVE SMOOTH",
"584 18 OFFCURVE",
"601 58 OFFCURVE",
"588 93 CURVE SMOOTH"
);
},
{
closed = 1;
nodes = (
"260 316 LINE",
"306 441 LINE",
"354 316 LINE"
);
}
);
width = 617;
},
{
hints = (
{
horizontal = 1;
place = "{212, 38}";
type = Stem;
},
{
horizontal = 1;
place = "{858, 38}";
type = Stem;
},
{
horizontal = 1;
place = "{913, 38}";
type = Stem;
},
{
place = "{50.2, 543.18}";
type = Stem;
}
);
layerId = "05B5844F-1A6E-4D42-8559-CD9FEB58A40E";
paths = (
{
closed = 1;
nodes = (
"142 867 OFFCURVE",
"154 868 OFFCURVE",
"161 876 CURVE SMOOTH",
"178 897 OFFCURVE",
"203 910 OFFCURVE",
"230 913 CURVE SMOOTH",
"258 916 OFFCURVE",
"284 907 OFFCURVE",
"306 890 CURVE SMOOTH",
"331 869 OFFCURVE",
"362 858 OFFCURVE",
"395 858 CURVE SMOOTH",
"441 858 OFFCURVE",
"479 879 OFFCURVE",
"504 909 CURVE SMOOTH",
"510 917 OFFCURVE",
"509 929 OFFCURVE",
"501 936 CURVE SMOOTH",
"493 942 OFFCURVE",
"481 941 OFFCURVE",
"474 933 CURVE SMOOTH",
"438 889 OFFCURVE",
"373 883 OFFCURVE",
"330 919 CURVE SMOOTH",
"301 943 OFFCURVE",
"264 954 OFFCURVE",
"227 951 CURVE SMOOTH",
"189 947 OFFCURVE",
"155 929 OFFCURVE",
"132 900 CURVE SMOOTH",
"125 892 OFFCURVE",
"126 880 OFFCURVE",
"134 873 CURVE SMOOTH"
);
},
{
closed = 1;
nodes = (
"335 688 LINE SMOOTH",
"332 695 OFFCURVE",
"325 700 OFFCURVE",
"317 700 CURVE SMOOTH",
"309 700 OFFCURVE",
"302 695 OFFCURVE",
"300 687 CURVE",
"51 25 LINE SMOOTH",
"48 16 OFFCURVE",
"53 5 OFFCURVE",
"63 1 CURVE SMOOTH",
"70 -3 OFFCURVE",
"83 2 OFFCURVE",
"87 12 CURVE SMOOTH",
"162 212 LINE",
"479 212 LINE",
"557 12 LINE SMOOTH",
"561 2 OFFCURVE",
"572 -3 OFFCURVE",
"582 1 CURVE SMOOTH",
"591 5 OFFCURVE",
"596 16 OFFCURVE",
"592 26 CURVE SMOOTH"
);
},
{
closed = 1;
nodes = (
"176 250 LINE",
"318 628 LINE",
"465 250 LINE"
);
}
);
width = 643;
},
{
associatedMasterId = "B0A8294E-1052-4773-8338-C7458B103E7D";
hints = (
{
horizontal = 1;
place = "{180, 136}";
type = Stem;
},
{
horizontal = 1;
place = "{777, 138}";
type = Stem;
},
{
place = "{25.41, 566.9}";
type = Stem;
},
{
horizontal = 1;
place = "{715, 187.79}";
type = Stem;
}
);
layerId = "060B48B2-9E44-4834-B83E-D1A0A7C971E1";
name = "Jun 12 19, 16:41";
paths = (
{
closed = 1;
nodes = (
"200 697 OFFCURVE",
"222 777 OFFCURVE",
"246 777 CURVE SMOOTH",
"280 777 OFFCURVE",
"285 715 OFFCURVE",
"371 715 CURVE SMOOTH",
"480 715 OFFCURVE",
"565 850 OFFCURVE",
"492 893 CURVE SMOOTH",
"431 929 OFFCURVE",
"401 854 OFFCURVE",
"371 854 CURVE SMOOTH",
"347 854 OFFCURVE",
"324 915 OFFCURVE",
"246 915 CURVE SMOOTH",
"145 915 OFFCURVE",
"40 759 OFFCURVE",
"139 721 CURVE SMOOTH"
);
},
{
closed = 1;
nodes = (
"368 656 LINE",
"368 655 LINE",
"358 682 OFFCURVE",
"334 700 OFFCURVE",
"306 700 CURVE SMOOTH",
"275 700 OFFCURVE",
"253 685 OFFCURVE",
"240 655 CURVE",
"29 92 LINE",
"29 91 LINE",
"17 55 OFFCURVE",
"35 16 OFFCURVE",
"70 4 CURVE",
"69 4 LINE",
"77 1 OFFCURVE",
"84 0 OFFCURVE",
"93 0 CURVE SMOOTH",
"121 0 OFFCURVE",
"146 17 OFFCURVE",
"158 42 CURVE",
"158 43 LINE",
"209 180 LINE",
"407 180 LINE",
"460 42 LINE SMOOTH",
"475 8 OFFCURVE",
"515 -10 OFFCURVE",
"549 4 CURVE SMOOTH",
"584 18 OFFCURVE",
"601 58 OFFCURVE",
"588 93 CURVE SMOOTH"
);
},
{
closed = 1;
nodes = (
"260 316 LINE",
"306 441 LINE",
"354 316 LINE"
);
}
);
width = 617;
},
{
associatedMasterId = "05B5844F-1A6E-4D42-8559-CD9FEB58A40E";
hints = (
{
horizontal = 1;
place = "{212, 38}";
type = Stem;
},
{
horizontal = 1;
place = "{858, 38}";
type = Stem;
},
{
horizontal = 1;
place = "{913, 38}";
type = Stem;
},
{
place = "{50.2, 543.18}";
type = Stem;
}
);
layerId = "17DB6B80-4CB3-4D41-AF9F-6EDD9DA7F89E";
name = "Jun 12 19, 16:41";
paths = (
{
closed = 1;
nodes = (
"142 867 OFFCURVE",
"154 868 OFFCURVE",
"161 876 CURVE SMOOTH",
"178 897 OFFCURVE",
"203 910 OFFCURVE",
"230 913 CURVE SMOOTH",
"258 916 OFFCURVE",
"284 907 OFFCURVE",
"306 890 CURVE SMOOTH",
"331 869 OFFCURVE",
"362 858 OFFCURVE",
"395 858 CURVE SMOOTH",
"441 858 OFFCURVE",
"479 879 OFFCURVE",
"504 909 CURVE SMOOTH",
"510 917 OFFCURVE",
"509 929 OFFCURVE",
"501 936 CURVE SMOOTH",
"493 942 OFFCURVE",
"481 941 OFFCURVE",
"474 933 CURVE SMOOTH",
"438 889 OFFCURVE",
"373 883 OFFCURVE",
"330 919 CURVE SMOOTH",
"301 943 OFFCURVE",
"264 954 OFFCURVE",
"227 951 CURVE SMOOTH",
"189 947 OFFCURVE",
"155 929 OFFCURVE",
"132 900 CURVE SMOOTH",
"125 892 OFFCURVE",
"126 880 OFFCURVE",
"134 873 CURVE SMOOTH"
);
},
{
closed = 1;
nodes = (
"335 688 LINE SMOOTH",
"332 695 OFFCURVE",
"325 700 OFFCURVE",
"317 700 CURVE SMOOTH",
"309 700 OFFCURVE",
"302 695 OFFCURVE",
"300 687 CURVE",
"51 25 LINE SMOOTH",
"48 16 OFFCURVE",
"53 5 OFFCURVE",
"63 1 CURVE SMOOTH",
"70 -3 OFFCURVE",
"83 2 OFFCURVE",
"87 12 CURVE SMOOTH",
"162 212 LINE",
"479 212 LINE",
"557 12 LINE SMOOTH",
"561 2 OFFCURVE",
"572 -3 OFFCURVE",
"582 1 CURVE SMOOTH",
"591 5 OFFCURVE",
"596 16 OFFCURVE",
"592 26 CURVE SMOOTH"
);
},
{
closed = 1;
nodes = (
"176 250 LINE",
"318 628 LINE",
"465 250 LINE"
);
}
);
width = 643;
}
);
note = Atilde;
unicode = 00C3;
},
{
export = 0;
glyphname = AE;
lastChange = "2019-06-13 09:15:11 +0000";
layers = (
{
hints = (
{
horizontal = 1;
place = "{5, 135}";
type = Stem;
},
{
horizontal = 1;
place = "{298, 136}";
type = Stem;
},
{
horizontal = 1;
place = "{564, 136}";
type = Stem;
},
{
place = "{382, 135}";
type = Stem;
}
);
layerId = "B0A8294E-1052-4773-8338-C7458B103E7D";
paths = (
{
closed = 1;
nodes = (
"517 140 LINE",
"517 298 LINE",
"735 298 LINE SMOOTH",
"772 298 OFFCURVE",
"803 329 OFFCURVE",
"803 366 CURVE SMOOTH",
"803 403 OFFCURVE",
"772 434 OFFCURVE",
"735 434 CURVE SMOOTH",
"517 434 LINE",
"517 564 LINE",
"785 564 LINE SMOOTH",
"823 564 OFFCURVE",
"853 594 OFFCURVE",
"853 632 CURVE SMOOTH",
"853 670 OFFCURVE",
"822 700 OFFCURVE",
"785 700 CURVE SMOOTH",
"351 700 LINE",
"324 703 OFFCURVE",
"295 688 OFFCURVE",
"282 659 CURVE SMOOTH",
"30 94 LINE SMOOTH",
"16 59 OFFCURVE",
"32 21 OFFCURVE",
"66 7 CURVE",
"73 3 OFFCURVE",
"84 0 OFFCURVE",
"94 0 CURVE SMOOTH",
"95 0 LINE SMOOTH",
"122 2 OFFCURVE",
"144 16 OFFCURVE",
"155 40 CURVE SMOOTH",
"270 298 LINE",
"382 298 LINE",
"382 72 LINE SMOOTH",
"382 34 OFFCURVE",
"412 5 OFFCURVE",
"449 5 CURVE SMOOTH",
"817 5 LINE SMOOTH",
"855 5 OFFCURVE",
"885 34 OFFCURVE",
"885 72 CURVE SMOOTH",
"885 109 OFFCURVE",
"855 140 OFFCURVE",
"817 140 CURVE SMOOTH"
);
},
{
closed = 1;
nodes = (
"330 434 LINE",
"382 551 LINE",
"382 434 LINE"
);
}
);
width = 910;
},
{
hints = (
{
horizontal = 1;
place = "{1, 37}";
type = Stem;
},
{
horizontal = 1;
place = "{271, 37}";
type = Stem;
},
{
horizontal = 1;
place = "{662, 38}";
type = Stem;
},
{
place = "{370, 37}";
type = Stem;
}
);
layerId = "05B5844F-1A6E-4D42-8559-CD9FEB58A40E";
paths = (
{
closed = 1;
nodes = (
"407 38 LINE",
"407 271 LINE",
"681 271 LINE SMOOTH",
"691 271 OFFCURVE",
"700 279 OFFCURVE",
"700 289 CURVE SMOOTH",
"700 300 OFFCURVE",
"691 308 OFFCURVE",
"681 308 CURVE SMOOTH",
"407 308 LINE",
"407 662 LINE",
"784 662 LINE SMOOTH",
"794 662 OFFCURVE",
"803 670 OFFCURVE",
"803 681 CURVE SMOOTH",
"803 692 OFFCURVE",
"794 700 OFFCURVE",
"784 700 CURVE SMOOTH",
"391 700 LINE SMOOTH",
"387 700 OFFCURVE",
"383 699 OFFCURVE",
"380 696 CURVE SMOOTH",
"377 694 OFFCURVE",
"375 692 OFFCURVE",
"374 689 CURVE",
"372 686 LINE",
"372 684 LINE",
"187 304 LINE",
"182 301 OFFCURVE",
"179 296 OFFCURVE",
"179 289 CURVE SMOOTH",
"179 288 LINE",
"52 27 LINE SMOOTH",
"48 17 OFFCURVE",
"52 6 OFFCURVE",
"61 2 CURVE SMOOTH",
"64 1 OFFCURVE",
"67 0 OFFCURVE",
"69 0 CURVE SMOOTH",
"76 0 OFFCURVE",
"83 4 OFFCURVE",
"86 11 CURVE SMOOTH",
"212 271 LINE",
"370 271 LINE",
"370 20 LINE SMOOTH",
"370 9 OFFCURVE",
"378 1 OFFCURVE",
"388 1 CURVE SMOOTH",
"822 1 LINE SMOOTH",
"833 1 OFFCURVE",
"841 9 OFFCURVE",
"841 20 CURVE SMOOTH",
"841 30 OFFCURVE",
"833 38 OFFCURVE",
"822 38 CURVE SMOOTH"
);
},
{
closed = 1;
nodes = (
"230 308 LINE",
"370 596 LINE",
"370 308 LINE"
);
}
);
width = 891;
}
);
note = AE;
unicode = 00C6;
},
{
export = 0;
glyphname = B;
lastChange = "2019-06-13 09:15:11 +0000";
layers = (
{
hints = (
{
horizontal = 1;
place = "{0, 134}";
type = Stem;
},
{
horizontal = 1;
place = "{302, 133}";
type = Stem;
},
{
horizontal = 1;
place = "{567, 133}";
type = Stem;
},
{
place = "{25, 135}";
type = Stem;
},
{
place = "{387, 135}";
type = Stem;
},
{
place = "{367, 133}";
type = Stem;
}
);
layerId = "B0A8294E-1052-4773-8338-C7458B103E7D";
paths = (
{
closed = 1;
nodes = (
"308 0 LINE SMOOTH",
"425 0 OFFCURVE",
"522 96 OFFCURVE",
"522 215 CURVE SMOOTH",
"522 278 OFFCURVE",
"496 335 OFFCURVE",
"454 375 CURVE",
"483 410 OFFCURVE",
"500 455 OFFCURVE",
"500 503 CURVE SMOOTH",
"500 609 OFFCURVE",
"413 700 OFFCURVE",
"315 700 CURVE SMOOTH",
"93 700 LINE SMOOTH",
"54 700 OFFCURVE",
"25 670 OFFCURVE",
"25 634 CURVE",
"25 68 LINE SMOOTH",
"25 41 OFFCURVE",
"54 0 OFFCURVE",
"93 0 CURVE SMOOTH"
);
},
{
closed = 1;
nodes = (
"160 567 LINE",
"304 567 LINE SMOOTH",
"338 567 OFFCURVE",
"367 539 OFFCURVE",
"367 503 CURVE SMOOTH",
"367 468 OFFCURVE",
"336 435 OFFCURVE",
"304 435 CURVE SMOOTH",
"160 435 LINE"
);
},
{
closed = 1;
nodes = (
"160 134 LINE",
"160 302 LINE",
"308 302 LINE SMOOTH",
"351 302 OFFCURVE",
"387 263 OFFCURVE",
"387 215 CURVE SMOOTH",
"387 171 OFFCURVE",
"352 134 OFFCURVE",
"308 134 CURVE SMOOTH"
);
}
);
width = 547;
},
{
hints = (
{
horizontal = 1;
place = "{0, 38}";
type = Stem;
},
{
horizontal = 1;
place = "{354, 37}";
type = Stem;
},
{
horizontal = 1;
place = "{662, 38}";
type = Stem;
},
{
place = "{50, 37}";
type = Stem;
},
{
place = "{483, 38}";
type = Stem;
},
{
place = "{457, 38}";
type = Stem;
}
);
layerId = "05B5844F-1A6E-4D42-8559-CD9FEB58A40E";
paths = (
{
closed = 1;
nodes = (
"330 0 LINE SMOOTH",
"435 2 OFFCURVE",
"521 90 OFFCURVE",
"521 196 CURVE SMOOTH",
"521 276 OFFCURVE",
"473 345 OFFCURVE",
"404 375 CURVE",
"458 404 OFFCURVE",
"495 461 OFFCURVE",
"495 527 CURVE SMOOTH",
"495 623 OFFCURVE",
"416 700 OFFCURVE",
"322 700 CURVE SMOOTH",
"68 700 LINE SMOOTH",
"58 700 OFFCURVE",
"50 692 OFFCURVE",
"50 682 CURVE SMOOTH",
"50 19 LINE SMOOTH",
"50 8 OFFCURVE",
"58 0 OFFCURVE",
"68 0 CURVE SMOOTH"
);
},
{
closed = 1;
nodes = (
"87 662 LINE",
"322 662 LINE SMOOTH",
"396 662 OFFCURVE",
"457 601 OFFCURVE",
"457 527 CURVE SMOOTH",
"457 452 OFFCURVE",
"396 391 OFFCURVE",
"322 391 CURVE SMOOTH",
"87 391 LINE"
);
},
{
closed = 1;
nodes = (
"87 38 LINE",
"87 354 LINE",
"325 354 LINE SMOOTH",
"412 354 OFFCURVE",
"483 283 OFFCURVE",
"483 196 CURVE SMOOTH",
"483 109 OFFCURVE",
"412 38 OFFCURVE",
"325 38 CURVE SMOOTH"
);
}
);
width = 571;
}
);
note = B;
unicode = 0042;
},
{
export = 0;
glyphname = C;
lastChange = "2019-06-13 09:15:11 +0000";
layers = (
{
hints = (
{
horizontal = 1;
place = "{314, 114}";
type = Stem;
},
{
place = "{25, 515.9}";
type = Stem;
}
);
layerId = "B0A8294E-1052-4773-8338-C7458B103E7D";
paths = (
{
closed = 1;
nodes = (
"133 0 OFFCURVE",
"25 135 OFFCURVE",
"25 350 CURVE SMOOTH",
"25 563 OFFCURVE",
"131 700 OFFCURVE",
"296 700 CURVE SMOOTH",
"421 700 OFFCURVE",
"524 608 OFFCURVE",
"524 495 CURVE SMOOTH",
"524 455 OFFCURVE",
"496 428 OFFCURVE",
"457 428 CURVE SMOOTH",
"420 428 OFFCURVE",
"389 458 OFFCURVE",
"389 495 CURVE SMOOTH",
"389 526 OFFCURVE",
"343 564 OFFCURVE",
"296 564 CURVE SMOOTH",
"209 564 OFFCURVE",
"161 485 OFFCURVE",
"161 350 CURVE SMOOTH",
"161 218 OFFCURVE",
"216 135 OFFCURVE",
"302 135 CURVE SMOOTH",
"359 135 OFFCURVE",
"398 181 OFFCURVE",
"413 257 CURVE SMOOTH",
"417 287 OFFCURVE",
"436 314 OFFCURVE",
"481 314 CURVE SMOOTH",
"523 314 OFFCURVE",
"546 275 OFFCURVE",
"540 234 CURVE SMOOTH",
"522 96 OFFCURVE",
"427 0 OFFCURVE",
"302 0 CURVE SMOOTH"
);
}
);
width = 566;
},
{
hints = (
{
horizontal = 1;
place = "{-18, 745}";
type = Stem;
},
{
place = "{50, 512}";
type = Stem;
}
);
layerId = "05B5844F-1A6E-4D42-8559-CD9FEB58A40E";
paths = (
{
closed = 1;
nodes = (
"237 -18 OFFCURVE",
"165 21 OFFCURVE",
"117 95 CURVE SMOOTH",
"95 128 OFFCURVE",
"78 168 OFFCURVE",
"67 213 CURVE SMOOTH",
"56 256 OFFCURVE",
"50 304 OFFCURVE",
"50 354 CURVE SMOOTH",
"50 460 OFFCURVE",
"71 550 OFFCURVE",
"110 613 CURVE SMOOTH",
"133 649 OFFCURVE",
"161 677 OFFCURVE",
"195 696 CURVE SMOOTH",
"231 717 OFFCURVE",
"273 727 OFFCURVE",
"320 727 CURVE SMOOTH",
"376 727 OFFCURVE",
"432 706 OFFCURVE",
"475 668 CURVE SMOOTH",
"517 631 OFFCURVE",
"542 581 OFFCURVE",
"542 532 CURVE SMOOTH",
"542 521 OFFCURVE",
"533 512 OFFCURVE",
"522 512 CURVE SMOOTH",
"511 512 OFFCURVE",
"502 521 OFFCURVE",
"502 532 CURVE SMOOTH",
"502 570 OFFCURVE",
"482 609 OFFCURVE",
"448 639 CURVE SMOOTH",
"413 670 OFFCURVE",
"367 687 OFFCURVE",
"320 687 CURVE SMOOTH",
"243 687 OFFCURVE",
"183 655 OFFCURVE",
"144 592 CURVE SMOOTH",
"109 535 OFFCURVE",
"90 453 OFFCURVE",
"90 354 CURVE SMOOTH",
"90 307 OFFCURVE",
"95 263 OFFCURVE",
"105 222 CURVE SMOOTH",
"115 182 OFFCURVE",
"130 146 OFFCURVE",
"150 117 CURVE SMOOTH",
"170 86 OFFCURVE",
"194 63 OFFCURVE",
"222 47 CURVE SMOOTH",
"252 30 OFFCURVE",
"286 22 OFFCURVE",
"324 22 CURVE SMOOTH",
"369 22 OFFCURVE",
"413 39 OFFCURVE",
"447 70 CURVE SMOOTH",
"487 107 OFFCURVE",
"513 162 OFFCURVE",
"523 229 CURVE SMOOTH",
"525 240 OFFCURVE",
"535 248 OFFCURVE",
"546 246 CURVE SMOOTH",
"556 244 OFFCURVE",
"564 234 OFFCURVE",
"562 223 CURVE SMOOTH",
"551 147 OFFCURVE",
"520 83 OFFCURVE",
"474 41 CURVE SMOOTH",
"432 3 OFFCURVE",
"379 -18 OFFCURVE",
"324 -18 CURVE SMOOTH"
);
}
);
width = 612;
}
);
note = C;
unicode = 0043;
},
{
export = 0;
glyphname = Ccedilla;
lastChange = "2019-06-13 09:15:11 +0000";
layers = (
{
hints = (
{
horizontal = 1;
place = "{-262, 137}";
type = Stem;
},
{
horizontal = 1;
place = "{564, 136}";
type = Stem;
},
{
place = "{25, 137}";
type = Stem;
},
{
place = "{393, 136}";
type = Stem;
},
{
place = "{285, 153}";
type = Stem;
}
);
layerId = "B0A8294E-1052-4773-8338-C7458B103E7D";
paths = (
{
closed = 1;
nodes = (
"452 313 OFFCURVE",
"415 288 OFFCURVE",
"410 251 CURVE SMOOTH",
"399 174 OFFCURVE",
"356 127 OFFCURVE",
"300 127 CURVE SMOOTH",
"214 127 OFFCURVE",
"162 207 OFFCURVE",
"162 345 CURVE SMOOTH",
"162 487 OFFCURVE",
"208 564 OFFCURVE",
"297 564 CURVE SMOOTH",
"346 564 OFFCURVE",
"393 526 OFFCURVE",
"393 490 CURVE SMOOTH",
"393 453 OFFCURVE",
"423 421 OFFCURVE",
"460 421 CURVE SMOOTH",
"499 421 OFFCURVE",
"529 452 OFFCURVE",
"529 490 CURVE SMOOTH",
"529 602 OFFCURVE",
"422 700 OFFCURVE",
"297 700 CURVE SMOOTH",
"127 700 OFFCURVE",
"25 565 OFFCURVE",
"25 345 CURVE SMOOTH",
"25 169 OFFCURVE",
"99 42 OFFCURVE",
"218 3 CURVE",
"218 -26 LINE SMOOTH",
"218 -64 OFFCURVE",
"248 -95 OFFCURVE",
"285 -95 CURVE SMOOTH",
"294 -95 OFFCURVE",
"300 -101 OFFCURVE",
"300 -110 CURVE SMOOTH",
"300 -119 OFFCURVE",
"294 -125 OFFCURVE",
"285 -125 CURVE SMOOTH",
"248 -125 OFFCURVE",
"218 -155 OFFCURVE",
"218 -193 CURVE SMOOTH",
"218 -230 OFFCURVE",
"248 -262 OFFCURVE",
"285 -262 CURVE SMOOTH",
"369 -262 OFFCURVE",
"438 -193 OFFCURVE",
"438 -110 CURVE SMOOTH",
"438 -66 OFFCURVE",
"417 -23 OFFCURVE",
"384 5 CURVE",
"468 38 OFFCURVE",
"529 120 OFFCURVE",
"546 232 CURVE SMOOTH",
"550 270 OFFCURVE",
"524 304 OFFCURVE",
"488 308 CURVE SMOOTH"
);
}
);
width = 571;
},
{
hints = (
{
horizontal = 1;
place = "{-339, 40}";
type = Stem;
},
{
horizontal = 1;
place = "{-27, 40}";
type = Stem;
},
{
horizontal = 1;
place = "{685, 40}";
type = Stem;
},
{
place = "{50, 40}";
type = Stem;
},
{
place = "{288, 40}";
type = Stem;
},
{
place = "{392, 40}";
type = Stem;
},
{
place = "{505, 40}";
type = Stem;
}
);
layerId = "05B5844F-1A6E-4D42-8559-CD9FEB58A40E";
paths = (
{
closed = 1;
nodes = (
"538 241 OFFCURVE",
"528 233 OFFCURVE",
"527 222 CURVE SMOOTH",
"517 154 OFFCURVE",
"490 99 OFFCURVE",
"450 62 CURVE SMOOTH",
"415 30 OFFCURVE",
"371 13 OFFCURVE",
"326 13 CURVE SMOOTH",
"288 13 OFFCURVE",
"253 22 OFFCURVE",
"223 39 CURVE SMOOTH",
"195 55 OFFCURVE",
"170 78 OFFCURVE",
"150 109 CURVE SMOOTH",
"131 139 OFFCURVE",
"115 175 OFFCURVE",
"105 216 CURVE SMOOTH",
"95 256 OFFCURVE",
"90 301 OFFCURVE",
"90 348 CURVE SMOOTH",
"90 448 OFFCURVE",
"109 531 OFFCURVE",
"144 588 CURVE SMOOTH",
"184 652 OFFCURVE",
"244 685 OFFCURVE",
"322 685 CURVE SMOOTH",
"369 685 OFFCURVE",
"416 667 OFFCURVE",
"451 635 CURVE SMOOTH",
"486 605 OFFCURVE",
"505 566 OFFCURVE",
"505 528 CURVE SMOOTH",
"505 517 OFFCURVE",
"514 508 OFFCURVE",
"525 508 CURVE SMOOTH",
"536 508 OFFCURVE",
"545 517 OFFCURVE",
"545 528 CURVE SMOOTH",
"545 577 OFFCURVE",
"521 627 OFFCURVE",
"478 665 CURVE SMOOTH",
"435 703 OFFCURVE",
"378 725 OFFCURVE",
"322 725 CURVE SMOOTH",
"275 725 OFFCURVE",
"232 714 OFFCURVE",
"196 694 CURVE SMOOTH",
"162 674 OFFCURVE",
"133 646 OFFCURVE",
"110 610 CURVE SMOOTH",
"71 546 OFFCURVE",
"50 455 OFFCURVE",
"50 348 CURVE SMOOTH",
"50 297 OFFCURVE",
"55 250 OFFCURVE",
"66 206 CURVE SMOOTH",
"78 160 OFFCURVE",
"95 120 OFFCURVE",
"117 87 CURVE SMOOTH",
"159 23 OFFCURVE",
"217 -15 OFFCURVE",
"288 -24 CURVE",
"288 -112 LINE SMOOTH",
"288 -123 OFFCURVE",
"297 -132 OFFCURVE",
"308 -132 CURVE SMOOTH",
"354 -132 OFFCURVE",
"392 -169 OFFCURVE",
"392 -215 CURVE SMOOTH",
"392 -261 OFFCURVE",
"354 -299 OFFCURVE",
"308 -299 CURVE SMOOTH",
"297 -299 OFFCURVE",
"288 -308 OFFCURVE",
"288 -319 CURVE SMOOTH",
"288 -330 OFFCURVE",
"297 -339 OFFCURVE",
"308 -339 CURVE SMOOTH",
"376 -339 OFFCURVE",
"432 -283 OFFCURVE",
"432 -215 CURVE SMOOTH",
"432 -154 OFFCURVE",
"387 -103 OFFCURVE",
"328 -93 CURVE",
"328 -27 LINE",
"382 -26 OFFCURVE",
"436 -6 OFFCURVE",
"477 32 CURVE SMOOTH",
"524 75 OFFCURVE",
"555 139 OFFCURVE",
"566 217 CURVE SMOOTH",
"568 228 OFFCURVE",
"560 238 OFFCURVE",
"549 239 CURVE SMOOTH"
);
}
);
width = 616;
}
);
note = Ccedilla;
unicode = 00C7;
},
{
export = 0;
glyphname = D;
lastChange = "2019-06-13 09:15:11 +0000";
layers = (
{
hints = (
{
horizontal = 1;
place = "{0, 136}";
type = Stem;
},
{
horizontal = 1;
place = "{565, 135}";
type = Stem;
},
{
place = "{25, 135}";
type = Stem;
},
{
place = "{389, 136}";
type = Stem;
}
);
layerId = "B0A8294E-1052-4773-8338-C7458B103E7D";
paths = (
{
closed = 1;
nodes = (
"525 558 OFFCURVE",
"420 696 OFFCURVE",
"256 700 CURVE SMOOTH",
"253 700 LINE",
"92 700 LINE SMOOTH",
"53 700 OFFCURVE",
"25 670 OFFCURVE",
"25 633 CURVE SMOOTH",
"25 632 OFFCURVE",
"25 631 OFFCURVE",
"25 630 CURVE SMOOTH",
"25 627 LINE",
"25 67 LINE SMOOTH",
"25 31 OFFCURVE",
"54 0 OFFCURVE",
"92 0 CURVE SMOOTH",
"253 0 LINE SMOOTH",
"258 0 OFFCURVE",
"263 1 OFFCURVE",
"268 2 CURVE SMOOTH",
"427 19 OFFCURVE",
"525 151 OFFCURVE",
"525 350 CURVE SMOOTH"
);
},
{
closed = 1;
nodes = (
"160 136 LINE",
"160 565 LINE",
"249 565 LINE SMOOTH",
"336 565 OFFCURVE",
"389 483 OFFCURVE",
"389 350 CURVE SMOOTH",
"389 279 OFFCURVE",
"375 136 OFFCURVE",
"232 136 CURVE SMOOTH"
);
}
);
width = 550;
},
{
hints = (
{
horizontal = 1;
place = "{0, 38}";
type = Stem;
},
{
horizontal = 1;
place = "{662, 38}";
type = Stem;
},
{
place = "{50, 38}";
type = Stem;
},
{
place = "{479, 38}";
type = Stem;
}
);
layerId = "05B5844F-1A6E-4D42-8559-CD9FEB58A40E";
paths = (
{
closed = 1;
nodes = (
"490 525 OFFCURVE",
"474 562 OFFCURVE",
"453 594 CURVE SMOOTH",
"407 661 OFFCURVE",
"340 698 OFFCURVE",
"259 700 CURVE SMOOTH",
"257 700 LINE",
"69 700 LINE SMOOTH",
"58 700 OFFCURVE",
"50 692 OFFCURVE",
"50 681 CURVE SMOOTH",
"50 680 OFFCURVE",
"50 679 OFFCURVE",
"50 679 CURVE",
"50 676 LINE",
"50 19 LINE SMOOTH",
"50 8 OFFCURVE",
"58 0 OFFCURVE",
"69 0 CURVE SMOOTH",
"232 0 LINE SMOOTH",
"280 0 OFFCURVE",
"323 9 OFFCURVE",
"360 28 CURVE SMOOTH",
"395 46 OFFCURVE",
"425 72 OFFCURVE",
"450 105 CURVE SMOOTH",
"494 166 OFFCURVE",
"517 250 OFFCURVE",
"517 349 CURVE SMOOTH",
"517 397 OFFCURVE",
"512 441 OFFCURVE",
"501 482 CURVE SMOOTH"
);
},
{
closed = 1;
nodes = (
"376 68 OFFCURVE",
"313 38 OFFCURVE",
"232 38 CURVE SMOOTH",
"88 38 LINE",
"88 662 LINE",
"253 662 LINE SMOOTH",
"290 662 OFFCURVE",
"323 654 OFFCURVE",
"352 638 CURVE SMOOTH",
"379 623 OFFCURVE",
"402 601 OFFCURVE",
"422 573 CURVE SMOOTH",
"440 545 OFFCURVE",
"455 511 OFFCURVE",
"465 473 CURVE SMOOTH",
"474 435 OFFCURVE",
"479 393 OFFCURVE",
"479 349 CURVE SMOOTH",
"479 258 OFFCURVE",
"458 182 OFFCURVE",
"419 127 CURVE SMOOTH"
);
}
);
width = 567;
}
);
note = D;
unicode = 0044;
},
{
export = 0;
glyphname = E;
lastChange = "2019-06-13 09:15:11 +0000";
layers = (
{
hints = (
{
horizontal = 1;
place = "{0, 136}";
type = Stem;
},
{
horizontal = 1;
place = "{298, 135}";
type = Stem;
},
{
horizontal = 1;
place = "{565, 135}";
type = Stem;
},
{
place = "{25, 136}";
type = Stem;
}
);
layerId = "B0A8294E-1052-4773-8338-C7458B103E7D";
paths = (
{
closed = 1;
nodes = (
"161 136 LINE",
"161 298 LINE",
"342 298 LINE SMOOTH",
"383 298 OFFCURVE",
"410 327 OFFCURVE",
"410 366 CURVE SMOOTH",
"410 402 OFFCURVE",
"379 433 OFFCURVE",
"342 433 CURVE SMOOTH",
"161 433 LINE",
"161 565 LINE",
"430 565 LINE SMOOTH",
"471 565 OFFCURVE",
"500 593 OFFCURVE",
"500 632 CURVE SMOOTH",
"500 672 OFFCURVE",
"472 700 OFFCURVE",
"430 700 CURVE SMOOTH",
"93 700 LINE SMOOTH",
"59 700 OFFCURVE",
"34 680 OFFCURVE",
"27 650 CURVE SMOOTH",
"26 645 OFFCURVE",
"25 639 OFFCURVE",
"25 633 CURVE SMOOTH",
"25 68 LINE SMOOTH",
"25 33 OFFCURVE",
"56 0 OFFCURVE",
"93 0 CURVE SMOOTH",
"463 0 LINE SMOOTH",
"500 0 OFFCURVE",
"531 33 OFFCURVE",
"531 68 CURVE SMOOTH",
"531 107 OFFCURVE",
"502 136 OFFCURVE",
"463 136 CURVE SMOOTH"
);
}
);
width = 556;
},
{
hints = (
{
horizontal = 1;
place = "{0, 38}";
type = Stem;
},
{
horizontal = 1;
place = "{346, 38}";
type = Stem;
},
{
horizontal = 1;
place = "{662, 38}";
type = Stem;
},
{
place = "{50, 37}";
type = Stem;
}
);
layerId = "05B5844F-1A6E-4D42-8559-CD9FEB58A40E";
paths = (
{
closed = 1;
nodes = (
"87 38 LINE",
"87 346 LINE",
"361 346 LINE SMOOTH",
"372 346 OFFCURVE",
"380 354 OFFCURVE",
"380 365 CURVE SMOOTH",
"380 375 OFFCURVE",
"372 384 OFFCURVE",
"361 384 CURVE SMOOTH",
"87 384 LINE",
"87 662 LINE",
"465 662 LINE SMOOTH",
"476 662 OFFCURVE",
"484 671 OFFCURVE",
"484 681 CURVE SMOOTH",
"484 692 OFFCURVE",
"476 700 OFFCURVE",
"465 700 CURVE SMOOTH",
"69 700 LINE SMOOTH",
"58 700 OFFCURVE",
"50 692 OFFCURVE",
"50 681 CURVE SMOOTH",
"50 19 LINE SMOOTH",
"50 8 OFFCURVE",
"58 0 OFFCURVE",
"69 0 CURVE SMOOTH",
"503 0 LINE SMOOTH",
"514 0 OFFCURVE",
"522 8 OFFCURVE",
"522 19 CURVE SMOOTH",
"522 29 OFFCURVE",
"514 38 OFFCURVE",
"503 38 CURVE SMOOTH"
);
}
);
width = 572;
}
);
note = E;
unicode = 0045;
},
{
export = 0;
glyphname = Eacute;
lastChange = "2019-06-13 09:15:11 +0000";
layers = (
{
hints = (
{
horizontal = 1;
place = "{0, 136}";
type = Stem;
},
{
horizontal = 1;
place = "{294, 136}";
type = Stem;
},
{
horizontal = 1;
place = "{563, 137}";
type = Stem;
},
{
horizontal = 1;
place = "{709.63, 216.75}";
type = Stem;
},
{
place = "{25, 137}";
type = Stem;
},
{
place = "{207, 229.87}";
type = Stem;
}
);
layerId = "B0A8294E-1052-4773-8338-C7458B103E7D";
paths = (
{
closed = 1;
nodes = (
"413 806 LINE",
"414 807 LINE SMOOTH",
"442 832 OFFCURVE",
"445 874 OFFCURVE",
"420 902 CURVE SMOOTH",
"396 931 OFFCURVE",
"353 935 OFFCURVE",
"326 911 CURVE SMOOTH",
"231 829 LINE",
"230 828 LINE SMOOTH",
"200 802 OFFCURVE",
"201 759 OFFCURVE",
"223 733 CURVE SMOOTH",
"243 705 OFFCURVE",
"290 701 OFFCURVE",
"318 726 CURVE SMOOTH"
);
},
{
closed = 1;
nodes = (
"162 136 LINE",
"162 294 LINE",
"343 294 LINE SMOOTH",
"381 294 OFFCURVE",
"411 325 OFFCURVE",
"411 362 CURVE SMOOTH",
"411 400 OFFCURVE",
"381 430 OFFCURVE",
"343 430 CURVE SMOOTH",
"162 430 LINE",
"162 563 LINE",
"428 563 LINE SMOOTH",
"466 563 OFFCURVE",
"496 594 OFFCURVE",
"496 632 CURVE SMOOTH",
"496 670 OFFCURVE",
"466 700 OFFCURVE",
"428 700 CURVE SMOOTH",
"94 700 LINE SMOOTH",
"56 700 OFFCURVE",
"25 670 OFFCURVE",
"25 632 CURVE SMOOTH",
"25 631 OFFCURVE",
"25 630 OFFCURVE",
"25 629 CURVE SMOOTH",
"25 627 LINE",
"25 68 LINE SMOOTH",
"25 30 OFFCURVE",
"56 0 OFFCURVE",
"94 0 CURVE SMOOTH",
"463 0 LINE SMOOTH",
"502 0 OFFCURVE",
"532 29 OFFCURVE",
"532 68 CURVE SMOOTH",
"532 106 OFFCURVE",
"501 136 OFFCURVE",
"463 136 CURVE SMOOTH"
);
}
);
width = 557;
},
{
hints = (
{
horizontal = 1;
place = "{0, 38}";
type = Stem;
},
{
horizontal = 1;
place = "{346, 38}";
type = Stem;
},
{
horizontal = 1;
place = "{662, 38}";
type = Stem;
},
{
place = "{50, 38}";
type = Stem;
}
);
layerId = "05B5844F-1A6E-4D42-8559-CD9FEB58A40E";
paths = (
{
closed = 1;
nodes = (
"271 836 OFFCURVE",
"276 834 OFFCURVE",
"281 834 CURVE SMOOTH",
"285 834 OFFCURVE",
"290 836 OFFCURVE",
"294 839 CURVE SMOOTH",
"405 934 LINE SMOOTH",
"412 940 OFFCURVE",
"413 953 OFFCURVE",
"407 960 CURVE SMOOTH",
"400 969 OFFCURVE",
"388 970 OFFCURVE",
"380 962 CURVE SMOOTH",
"269 867 LINE",
"260 861 OFFCURVE",
"259 848 OFFCURVE",
"267 841 CURVE"
);
},
{
closed = 1;
nodes = (
"88 38 LINE",
"88 346 LINE",
"362 346 LINE SMOOTH",
"372 346 OFFCURVE",
"381 355 OFFCURVE",
"381 365 CURVE SMOOTH",
"381 376 OFFCURVE",
"372 384 OFFCURVE",
"362 384 CURVE SMOOTH",
"88 384 LINE",
"88 662 LINE",
"465 662 LINE SMOOTH",
"476 662 OFFCURVE",
"484 671 OFFCURVE",
"484 681 CURVE SMOOTH",
"484 692 OFFCURVE",
"476 700 OFFCURVE",
"465 700 CURVE SMOOTH",
"72 700 LINE SMOOTH",
"71 700 OFFCURVE",
"71 700 OFFCURVE",
"70 700 CURVE SMOOTH",
"69 700 LINE SMOOTH",
"58 700 OFFCURVE",
"50 691 OFFCURVE",
"50 681 CURVE SMOOTH",
"50 19 LINE SMOOTH",
"50 9 OFFCURVE",
"58 0 OFFCURVE",
"69 0 CURVE SMOOTH",
"504 0 LINE SMOOTH",
"515 0 OFFCURVE",
"523 9 OFFCURVE",
"523 19 CURVE SMOOTH",
"523 29 OFFCURVE",
"515 38 OFFCURVE",
"504 38 CURVE SMOOTH"
);
}
);
width = 573;
}
);
note = Eacute;
unicode = 00C9;
},
{
export = 0;
glyphname = Ecircumflex;
lastChange = "2019-06-13 09:15:11 +0000";
layers = (
{
hints = (
{
horizontal = 1;
place = "{0, 136}";
type = Stem;
},
{
horizontal = 1;
place = "{295, 136}";
type = Stem;
},
{
horizontal = 1;
place = "{564, 136}";
type = Stem;
},
{
horizontal = 1;
place = "{711.13, 246.5}";
type = Stem;
},
{
place = "{25, 136}";
type = Stem;
}
);
layerId = "B0A8294E-1052-4773-8338-C7458B103E7D";
paths = (
{
closed = 1;
nodes = (
"264 797 LINE",
"341 728 LINE SMOOTH",
"368 703 OFFCURVE",
"412 706 OFFCURVE",
"437 734 CURVE SMOOTH",
"461 761 OFFCURVE",
"459 805 OFFCURVE",
"431 830 CURVE SMOOTH",
"308 940 LINE SMOOTH",
"284 963 OFFCURVE",
"245 964 OFFCURVE",
"218 940 CURVE SMOOTH",
"96 830 LINE SMOOTH",
"67 805 OFFCURVE",
"65 760 OFFCURVE",
"90 735 CURVE",
"113 706 OFFCURVE",
"156 703 OFFCURVE",
"186 728 CURVE SMOOTH"
);
},
{
closed = 1;
nodes = (
"161 136 LINE",
"161 295 LINE",
"343 295 LINE SMOOTH",
"381 295 OFFCURVE",
"411 325 OFFCURVE",
"411 363 CURVE SMOOTH",
"411 401 OFFCURVE",
"381 431 OFFCURVE",
"343 431 CURVE SMOOTH",
"161 431 LINE",
"161 564 LINE",
"428 564 LINE SMOOTH",
"466 564 OFFCURVE",
"496 594 OFFCURVE",
"496 632 CURVE SMOOTH",
"496 670 OFFCURVE",
"466 700 OFFCURVE",
"428 700 CURVE SMOOTH",
"93 700 LINE SMOOTH",
"56 700 OFFCURVE",
"25 670 OFFCURVE",
"25 632 CURVE SMOOTH",
"25 631 OFFCURVE",
"25 630 OFFCURVE",
"25 630 CURVE",
"25 627 LINE",
"25 68 LINE SMOOTH",
"25 29 OFFCURVE",
"55 0 OFFCURVE",
"94 0 CURVE SMOOTH",
"463 0 LINE SMOOTH",
"501 0 OFFCURVE",
"532 30 OFFCURVE",
"532 68 CURVE SMOOTH",
"532 105 OFFCURVE",
"501 136 OFFCURVE",
"463 136 CURVE SMOOTH"
);
}
);
width = 557;
},
{
hints = (
{
horizontal = 1;
place = "{0, 38}";
type = Stem;
},
{
horizontal = 1;
place = "{346, 37}";
type = Stem;
},
{
horizontal = 1;
place = "{662, 37}";
type = Stem;
},
{
place = "{50, 37}";
type = Stem;
}
);
layerId = "05B5844F-1A6E-4D42-8559-CD9FEB58A40E";
paths = (
{
closed = 1;
nodes = (
"268 957 LINE",
"400 839 LINE SMOOTH",
"403 836 OFFCURVE",
"408 834 OFFCURVE",
"412 834 CURVE SMOOTH",
"417 834 OFFCURVE",
"422 836 OFFCURVE",
"426 840 CURVE SMOOTH",
"433 848 OFFCURVE",
"433 860 OFFCURVE",
"425 867 CURVE SMOOTH",
"281 996 LINE SMOOTH",
"274 1002 OFFCURVE",
"263 1002 OFFCURVE",
"256 996 CURVE SMOOTH",
"112 867 LINE SMOOTH",
"104 860 OFFCURVE",
"103 848 OFFCURVE",
"110 840 CURVE SMOOTH",
"117 833 OFFCURVE",
"129 832 OFFCURVE",
"137 839 CURVE SMOOTH"
);
},
{
closed = 1;
nodes = (
"87 38 LINE",
"87 346 LINE",
"361 346 LINE SMOOTH",
"372 346 OFFCURVE",
"380 354 OFFCURVE",
"380 365 CURVE SMOOTH",
"380 375 OFFCURVE",
"372 383 OFFCURVE",
"361 383 CURVE SMOOTH",
"87 383 LINE",
"87 662 LINE",
"465 662 LINE SMOOTH",
"475 662 OFFCURVE",
"484 670 OFFCURVE",
"484 681 CURVE SMOOTH",
"484 691 OFFCURVE",
"475 699 OFFCURVE",
"465 699 CURVE SMOOTH",
"72 699 LINE SMOOTH",
"63 699 OFFCURVE",
"57 694 OFFCURVE",
"54 687 CURVE",
"51 684 OFFCURVE",
"50 680 OFFCURVE",
"50 675 CURVE SMOOTH",
"50 19 LINE SMOOTH",
"50 8 OFFCURVE",
"58 0 OFFCURVE",
"69 0 CURVE SMOOTH",
"503 0 LINE SMOOTH",
"514 0 OFFCURVE",
"522 8 OFFCURVE",
"522 19 CURVE SMOOTH",
"522 29 OFFCURVE",
"514 38 OFFCURVE",
"503 38 CURVE SMOOTH"
);
}
);
width = 572;
}
);
note = Ecircumflex;
unicode = 00CA;
},
{
export = 0;
glyphname = Edieresis;
lastChange = "2019-06-13 09:15:11 +0000";
layers = (
{
hints = (
{
horizontal = 1;
place = "{0, 136}";
type = Stem;
},
{
horizontal = 1;
place = "{294, 137}";
type = Stem;
},
{
horizontal = 1;
place = "{563, 137}";
type = Stem;
},
{
horizontal = 1;
place = "{712, 151}";
type = Stem;
},
{
place = "{127, 136}";
type = Stem;
},
{
place = "{25, 136}";
type = Stem;
},
{
place = "{286, 137}";
type = Stem;
}
);
layerId = "B0A8294E-1052-4773-8338-C7458B103E7D";
paths = (
{
closed = 1;
nodes = (
"233 712 OFFCURVE",
"263 743 OFFCURVE",
"263 781 CURVE SMOOTH",
"263 796 LINE SMOOTH",
"263 834 OFFCURVE",
"233 863 OFFCURVE",
"195 863 CURVE SMOOTH",
"157 863 OFFCURVE",
"127 834 OFFCURVE",
"127 796 CURVE SMOOTH",
"127 781 LINE SMOOTH",
"127 743 OFFCURVE",
"158 712 OFFCURVE",
"195 712 CURVE SMOOTH"
);
},
{
closed = 1;
nodes = (
"393 712 OFFCURVE",
"423 743 OFFCURVE",
"423 781 CURVE SMOOTH",
"423 796 LINE SMOOTH",
"423 833 OFFCURVE",
"393 863 OFFCURVE",
"355 863 CURVE SMOOTH",
"317 863 OFFCURVE",
"286 833 OFFCURVE",
"286 796 CURVE SMOOTH",
"286 781 LINE SMOOTH",
"286 743 OFFCURVE",
"317 712 OFFCURVE",
"355 712 CURVE SMOOTH"
);
},
{
closed = 1;
nodes = (
"161 136 LINE",
"161 294 LINE",
"343 294 LINE SMOOTH",
"380 294 OFFCURVE",
"410 324 OFFCURVE",
"410 362 CURVE SMOOTH",
"410 400 OFFCURVE",
"380 431 OFFCURVE",
"343 431 CURVE SMOOTH",
"161 431 LINE",
"161 563 LINE",
"428 563 LINE SMOOTH",
"466 563 OFFCURVE",
"497 593 OFFCURVE",
"497 631 CURVE SMOOTH",
"497 669 OFFCURVE",
"466 700 OFFCURVE",
"428 700 CURVE SMOOTH",
"93 700 LINE SMOOTH",
"55 700 OFFCURVE",
"25 669 OFFCURVE",
"25 631 CURVE SMOOTH",
"25 630 OFFCURVE",
"25 630 OFFCURVE",
"25 629 CURVE SMOOTH",
"25 627 LINE",
"25 68 LINE SMOOTH",
"25 30 OFFCURVE",
"55 0 OFFCURVE",
"93 0 CURVE SMOOTH",
"463 0 LINE SMOOTH",
"501 0 OFFCURVE",
"531 30 OFFCURVE",
"531 68 CURVE SMOOTH",
"531 106 OFFCURVE",
"501 136 OFFCURVE",
"463 136 CURVE SMOOTH"
);
}
);
width = 556;
},
{
hints = (
{
horizontal = 1;
place = "{0, 38}";
type = Stem;
},
{
horizontal = 1;
place = "{346, 37}";
type = Stem;
},
{
horizontal = 1;
place = "{662, 38}";
type = Stem;
},
{
horizontal = 1;
place = "{835, 37}";
type = Stem;
},
{
place = "{50, 37}";
type = Stem;
},
{
place = "{162, 38}";
type = Stem;
},
{
place = "{336, 38}";
type = Stem;
}
);
layerId = "05B5844F-1A6E-4D42-8559-CD9FEB58A40E";
paths = (
{
closed = 1;
nodes = (
"192 835 OFFCURVE",
"200 843 OFFCURVE",
"200 854 CURVE SMOOTH",
"200 872 LINE SMOOTH",
"200 882 OFFCURVE",
"192 891 OFFCURVE",
"181 891 CURVE SMOOTH",
"171 891 OFFCURVE",
"162 882 OFFCURVE",
"162 872 CURVE SMOOTH",
"162 854 LINE SMOOTH",
"162 843 OFFCURVE",
"171 835 OFFCURVE",
"181 835 CURVE SMOOTH"
);
},
{
closed = 1;
nodes = (
"366 835 OFFCURVE",
"374 843 OFFCURVE",
"374 854 CURVE SMOOTH",
"374 872 LINE SMOOTH",
"374 882 OFFCURVE",
"366 891 OFFCURVE",
"355 891 CURVE SMOOTH",
"345 891 OFFCURVE",
"336 882 OFFCURVE",
"336 872 CURVE SMOOTH",
"336 854 LINE SMOOTH",
"336 843 OFFCURVE",
"345 835 OFFCURVE",
"355 835 CURVE SMOOTH"
);
},
{
closed = 1;
nodes = (
"87 38 LINE",
"87 346 LINE",
"361 346 LINE SMOOTH",
"372 346 OFFCURVE",
"380 354 OFFCURVE",
"380 365 CURVE SMOOTH",
"380 375 OFFCURVE",
"372 383 OFFCURVE",
"361 383 CURVE SMOOTH",
"87 383 LINE",
"87 662 LINE",
"465 662 LINE SMOOTH",
"475 662 OFFCURVE",
"484 670 OFFCURVE",
"484 681 CURVE SMOOTH",
"484 691 OFFCURVE",
"475 700 OFFCURVE",
"465 700 CURVE SMOOTH",
"69 700 LINE SMOOTH",
"58 700 OFFCURVE",
"50 691 OFFCURVE",
"50 681 CURVE SMOOTH",
"50 19 LINE SMOOTH",
"50 8 OFFCURVE",
"58 0 OFFCURVE",
"69 0 CURVE SMOOTH",
"503 0 LINE SMOOTH",
"514 0 OFFCURVE",
"522 8 OFFCURVE",
"522 19 CURVE SMOOTH",
"522 29 OFFCURVE",
"514 38 OFFCURVE",
"503 38 CURVE SMOOTH"
);
}
);
width = 572;
}
);
note = Edieresis;
unicode = 00CB;
},
{
export = 0;
glyphname = Egrave;
lastChange = "2019-06-13 09:15:11 +0000";
layers = (
{
hints = (
{
horizontal = 1;
place = "{0, 137}";
type = Stem;
},
{
horizontal = 1;
place = "{295, 136}";
type = Stem;
},
{
horizontal = 1;
place = "{564, 136}";
type = Stem;
},
{
horizontal = 1;
place = "{710, 217}";
type = Stem;
},
{
place = "{115.87, 231.38}";
type = Stem;
},
{
place = "{25, 137}";
type = Stem;
}
);
layerId = "B0A8294E-1052-4773-8338-C7458B103E7D";
paths = (
{
closed = 1;
nodes = (
"235 725 LINE",
"268 702 OFFCURVE",
"305 705 OFFCURVE",
"330 734 CURVE SMOOTH",
"356 763 OFFCURVE",
"352 805 OFFCURVE",
"324 830 CURVE SMOOTH",
"229 911 LINE SMOOTH",
"200 935 OFFCURVE",
"158 932 OFFCURVE",
"134 904 CURVE SMOOTH",
"107 875 OFFCURVE",
"111 832 OFFCURVE",
"139 807 CURVE SMOOTH"
);
},
{
closed = 1;
nodes = (
"162 137 LINE",
"162 295 LINE",
"343 295 LINE SMOOTH",
"381 295 OFFCURVE",
"411 325 OFFCURVE",
"411 362 CURVE SMOOTH",
"411 400 OFFCURVE",
"381 431 OFFCURVE",
"343 431 CURVE SMOOTH",
"162 431 LINE",
"162 564 LINE",
"428 564 LINE SMOOTH",
"466 564 OFFCURVE",
"496 594 OFFCURVE",
"496 632 CURVE SMOOTH",
"496 670 OFFCURVE",
"466 700 OFFCURVE",
"428 700 CURVE SMOOTH",
"93 700 LINE SMOOTH",
"55 700 OFFCURVE",
"25 670 OFFCURVE",
"25 632 CURVE SMOOTH",
"25 631 OFFCURVE",
"25 630 OFFCURVE",
"25 629 CURVE SMOOTH",
"25 627 LINE",
"25 68 LINE SMOOTH",
"25 30 OFFCURVE",
"56 0 OFFCURVE",
"94 0 CURVE SMOOTH",
"464 0 LINE SMOOTH",
"501 0 OFFCURVE",
"532 30 OFFCURVE",
"532 68 CURVE SMOOTH",
"532 106 OFFCURVE",
"501 137 OFFCURVE",
"464 137 CURVE SMOOTH"
);
}
);
width = 557;
},
{
hints = (
{
horizontal = 1;
place = "{0, 38}";
type = Stem;
},
{
horizontal = 1;
place = "{346, 38}";
type = Stem;
},
{
horizontal = 1;
place = "{662, 38}";
type = Stem;
},
{
place = "{50, 38}";
type = Stem;
}
);
layerId = "05B5844F-1A6E-4D42-8559-CD9FEB58A40E";
paths = (
{
closed = 1;
nodes = (
"274 839 LINE SMOOTH",
"278 836 OFFCURVE",
"282 834 OFFCURVE",
"286 834 CURVE SMOOTH",
"292 834 OFFCURVE",
"297 837 OFFCURVE",
"301 841 CURVE SMOOTH",
"308 849 OFFCURVE",
"307 861 OFFCURVE",
"299 868 CURVE SMOOTH",
"188 963 LINE SMOOTH",
"180 970 OFFCURVE",
"168 969 OFFCURVE",
"161 961 CURVE SMOOTH",
"154 953 OFFCURVE",
"155 941 OFFCURVE",
"163 934 CURVE SMOOTH"
);
},
{
closed = 1;
nodes = (
"88 38 LINE",
"88 346 LINE",
"362 346 LINE SMOOTH",
"372 346 OFFCURVE",
"381 355 OFFCURVE",
"381 365 CURVE SMOOTH",
"381 376 OFFCURVE",
"372 384 OFFCURVE",
"362 384 CURVE SMOOTH",
"88 384 LINE",
"88 662 LINE",
"466 662 LINE SMOOTH",
"476 662 OFFCURVE",
"485 671 OFFCURVE",
"485 681 CURVE SMOOTH",
"485 692 OFFCURVE",
"476 700 OFFCURVE",
"466 700 CURVE SMOOTH",
"72 700 LINE SMOOTH",
"71 700 OFFCURVE",
"71 700 OFFCURVE",
"70 700 CURVE SMOOTH",
"69 700 LINE SMOOTH",
"58 700 OFFCURVE",
"50 692 OFFCURVE",
"50 681 CURVE SMOOTH",
"50 19 LINE SMOOTH",
"50 8 OFFCURVE",
"58 0 OFFCURVE",
"69 0 CURVE SMOOTH",
"504 0 LINE SMOOTH",
"514 0 OFFCURVE",
"523 8 OFFCURVE",
"523 19 CURVE SMOOTH",
"523 29 OFFCURVE",
"514 38 OFFCURVE",
"504 38 CURVE SMOOTH"
);
}
);
width = 573;
}
);
note = Egrave;
unicode = 00C8;
},
{
export = 0;
glyphname = Emacron;
lastChange = "2019-06-13 09:15:14 +0000";
layers = (
{
hints = (
{
horizontal = 1;
place = "{0, 135}";
type = Stem;
},
{
horizontal = 1;
place = "{294, 136}";
type = Stem;
},
{
horizontal = 1;
place = "{564, 136}";
type = Stem;
},
{
horizontal = 1;
place = "{721, 136}";
type = Stem;
},
{
place = "{25, 136}";
type = Stem;
}
);
layerId = "B0A8294E-1052-4773-8338-C7458B103E7D";
paths = (
{
closed = 1;
nodes = (
"326 721 LINE SMOOTH",
"364 721 OFFCURVE",
"394 752 OFFCURVE",
"394 789 CURVE SMOOTH",
"394 827 OFFCURVE",
"364 857 OFFCURVE",
"326 857 CURVE SMOOTH",
"201 857 LINE SMOOTH",
"163 857 OFFCURVE",
"132 827 OFFCURVE",
"132 789 CURVE SMOOTH",
"132 750 OFFCURVE",
"168 721 OFFCURVE",
"201 721 CURVE SMOOTH"
);
},
{
closed = 1;
nodes = (
"161 135 LINE",
"161 294 LINE",
"343 294 LINE SMOOTH",
"380 294 OFFCURVE",
"410 325 OFFCURVE",
"410 363 CURVE SMOOTH",
"410 400 OFFCURVE",
"380 430 OFFCURVE",
"343 430 CURVE SMOOTH",
"161 430 LINE",
"161 564 LINE",
"428 564 LINE SMOOTH",
"466 564 OFFCURVE",
"497 594 OFFCURVE",
"497 631 CURVE SMOOTH",
"497 669 OFFCURVE",
"466 700 OFFCURVE",
"428 700 CURVE SMOOTH",
"92 700 LINE SMOOTH",
"55 700 OFFCURVE",
"25 669 OFFCURVE",
"25 631 CURVE SMOOTH",
"25 630 OFFCURVE",
"25 630 OFFCURVE",
"25 629 CURVE SMOOTH",
"25 627 LINE",
"25 68 LINE SMOOTH",
"25 30 OFFCURVE",
"55 0 OFFCURVE",
"92 0 CURVE SMOOTH",
"464 0 LINE SMOOTH",
"501 0 OFFCURVE",
"531 30 OFFCURVE",
"531 68 CURVE SMOOTH",
"531 105 OFFCURVE",
"501 135 OFFCURVE",
"464 135 CURVE SMOOTH"
);
}
);
width = 556;
},
{
hints = (
{
horizontal = 1;
place = "{0, 38}";
type = Stem;
},
{
horizontal = 1;
place = "{346, 38}";
type = Stem;
},
{
horizontal = 1;
place = "{662, 38}";
type = Stem;
},
{
horizontal = 1;
place = "{800, 40}";
type = Stem;
},
{
place = "{50, 38}";
type = Stem;
}
);
layerId = "05B5844F-1A6E-4D42-8559-CD9FEB58A40E";
paths = (
{
closed = 1;
nodes = (
"400 800 LINE SMOOTH",
"411 800 OFFCURVE",
"420 809 OFFCURVE",
"420 820 CURVE SMOOTH",
"420 831 OFFCURVE",
"411 840 OFFCURVE",
"400 840 CURVE SMOOTH",
"153 840 LINE SMOOTH",
"142 840 OFFCURVE",
"133 831 OFFCURVE",
"133 820 CURVE SMOOTH",
"133 809 OFFCURVE",
"142 800 OFFCURVE",
"153 800 CURVE SMOOTH"
);
},
{
closed = 1;
nodes = (
"88 38 LINE",
"88 346 LINE",
"362 346 LINE SMOOTH",
"372 346 OFFCURVE",
"381 355 OFFCURVE",
"381 365 CURVE SMOOTH",
"381 376 OFFCURVE",
"372 384 OFFCURVE",
"362 384 CURVE SMOOTH",
"88 384 LINE",
"88 662 LINE",
"465 662 LINE SMOOTH",
"476 662 OFFCURVE",
"484 671 OFFCURVE",
"484 681 CURVE SMOOTH",
"484 692 OFFCURVE",
"476 700 OFFCURVE",
"465 700 CURVE SMOOTH",
"72 700 LINE SMOOTH",
"71 700 OFFCURVE",
"71 700 OFFCURVE",
"70 700 CURVE SMOOTH",
"69 700 LINE SMOOTH",
"58 700 OFFCURVE",
"50 691 OFFCURVE",
"50 681 CURVE SMOOTH",
"50 19 LINE SMOOTH",
"50 9 OFFCURVE",
"58 0 OFFCURVE",
"69 0 CURVE SMOOTH",
"504 0 LINE SMOOTH",
"515 0 OFFCURVE",
"523 9 OFFCURVE",
"523 19 CURVE SMOOTH",
"523 29 OFFCURVE",
"515 38 OFFCURVE",
"504 38 CURVE SMOOTH"
);
}
);
width = 573;
}
);
note = Emacron;
unicode = 0112;
},
{
color = 4;
glyphname = F;
lastChange = "2019-06-12 19:52:49 +0000";
layers = (
{
hints = (
{
horizontal = 1;
place = "{293, 139}";
type = Stem;
},
{
horizontal = 1;
place = "{563, 137}";
type = Stem;
},
{
place = "{25, 137}";
type = Stem;
}
);
layerId = "B0A8294E-1052-4773-8338-C7458B103E7D";
paths = (
{
closed = 1;
nodes = (
"93 700 LINE SMOOTH",
"52 700 OFFCURVE",
"25 671 OFFCURVE",
"25 632 CURVE SMOOTH",
"25 68 LINE SMOOTH",
"25 29 OFFCURVE",
"52 0 OFFCURVE",
"93 0 CURVE SMOOTH",
"132 0 OFFCURVE",
"162 29 OFFCURVE",
"162 68 CURVE SMOOTH",
"162 293 LINE",
"354 293 LINE SMOOTH",
"391 293 OFFCURVE",
"423 325 OFFCURVE",
"423 362 CURVE SMOOTH",
"423 401 OFFCURVE",
"392 432 OFFCURVE",
"354 432 CURVE SMOOTH",
"162 432 LINE",
"162 563 LINE",
"451 563 LINE SMOOTH",
"491 563 OFFCURVE",
"519 593 OFFCURVE",
"519 631 CURVE SMOOTH",
"519 669 OFFCURVE",
"490 700 OFFCURVE",
"451 700 CURVE SMOOTH"
);
}
);
width = 544;
},
{
hints = (
{
horizontal = 1;
place = "{348, 38}";
type = Stem;
},
{
horizontal = 1;
place = "{662, 38}";
type = Stem;
},
{
place = "{50, 38}";
type = Stem;
}
);
layerId = "05B5844F-1A6E-4D42-8559-CD9FEB58A40E";
paths = (
{
closed = 1;
nodes = (
"69 700 LINE SMOOTH",
"59 700 OFFCURVE",
"50 692 OFFCURVE",
"50 681 CURVE SMOOTH",
"50 19 LINE SMOOTH",
"50 8 OFFCURVE",
"59 0 OFFCURVE",
"69 0 CURVE SMOOTH",
"80 0 OFFCURVE",
"88 8 OFFCURVE",
"88 19 CURVE SMOOTH",
"88 348 LINE",
"371 348 LINE SMOOTH",
"381 348 OFFCURVE",
"390 357 OFFCURVE",
"390 367 CURVE SMOOTH",
"390 378 OFFCURVE",
"381 386 OFFCURVE",
"371 386 CURVE SMOOTH",
"88 386 LINE",
"88 662 LINE",
"483 662 LINE SMOOTH",
"493 662 OFFCURVE",
"502 671 OFFCURVE",
"502 681 CURVE SMOOTH",
"502 692 OFFCURVE",
"493 700 OFFCURVE",
"483 700 CURVE SMOOTH"
);
}
);
width = 552;
}
);
note = F;
unicode = 0046;
},
{
export = 0;
glyphname = G;
lastChange = "2019-06-13 09:15:18 +0000";
layers = (
{
hints = (
{
horizontal = 1;
place = "{133, 113}";
type = Stem;
},
{
horizontal = 1;
place = "{378, 189}";
type = Stem;
},
{
place = "{159, 98}";
type = Stem;
}
);
layerId = "B0A8294E-1052-4773-8338-C7458B103E7D";
paths = (
{
closed = 1;
nodes = (
"137 0 OFFCURVE",
"25 144 OFFCURVE",
"25 337 CURVE SMOOTH",
"25 546 OFFCURVE",
"135 700 OFFCURVE",
"291 700 CURVE SMOOTH",
"402 700 OFFCURVE",
"485 637 OFFCURVE",
"515 530 CURVE SMOOTH",
"526 492 OFFCURVE",
"503 456 OFFCURVE",
"464 448 CURVE SMOOTH",
"430 442 OFFCURVE",
"397 461 OFFCURVE",
"384 496 CURVE SMOOTH",
"378 512 OFFCURVE",
"362 567 OFFCURVE",
"291 567 CURVE SMOOTH",
"221 567 OFFCURVE",
"159 459 OFFCURVE",
"159 334 CURVE SMOOTH",
"159 206 OFFCURVE",
"208 133 OFFCURVE",
"291 133 CURVE SMOOTH",
"354 133 OFFCURVE",
"391 163 OFFCURVE",
"391 209 CURVE SMOOTH",
"391 246 LINE",
"324 246 LINE SMOOTH",
"286 246 OFFCURVE",
"257 275 OFFCURVE",
"257 312 CURVE SMOOTH",
"257 348 OFFCURVE",
"287 378 OFFCURVE",
"324 378 CURVE SMOOTH",
"459 378 LINE SMOOTH",
"497 378 OFFCURVE",
"525 351 OFFCURVE",
"525 312 CURVE SMOOTH",
"525 209 LINE SMOOTH",
"525 86 OFFCURVE",
"428 0 OFFCURVE",
"291 0 CURVE SMOOTH"
);
}
);
width = 550;
},
{
hints = (
{
horizontal = 1;
place = "{0, 745}";
type = Stem;
},
{
place = "{50.5, 502.5}";
type = Stem;
}
);
layerId = "05B5844F-1A6E-4D42-8559-CD9FEB58A40E";
paths = (
{
closed = 1;
nodes = (
"288 0 OFFCURVE",
"237 16 OFFCURVE",
"193 47 CURVE SMOOTH",
"157 73 OFFCURVE",
"127 110 OFFCURVE",
"103 156 CURVE SMOOTH",
"84 192 OFFCURVE",
"70 233 OFFCURVE",
"61 278 CURVE SMOOTH",
"46 350 OFFCURVE",
"47 416 OFFCURVE",
"64 490 CURVE SMOOTH",
"75 535 OFFCURVE",
"91 575 OFFCURVE",
"112 610 CURVE SMOOTH",
"164 698 OFFCURVE",
"242 745 OFFCURVE",
"339 745 CURVE SMOOTH",
"431 745 OFFCURVE",
"484 698 OFFCURVE",
"512 659 CURVE SMOOTH",
"543 618 OFFCURVE",
"552 576 OFFCURVE",
"552 574 CURVE SMOOTH",
"554 564 OFFCURVE",
"548 553 OFFCURVE",
"537 551 CURVE SMOOTH",
"526 549 OFFCURVE",
"516 555 OFFCURVE",
"514 566 CURVE",
"513 567 OFFCURVE",
"505 603 OFFCURVE",
"480 637 CURVE SMOOTH",
"446 683 OFFCURVE",
"399 706 OFFCURVE",
"339 706 CURVE SMOOTH",
"295 706 OFFCURVE",
"256 695 OFFCURVE",
"222 673 CURVE SMOOTH",
"192 654 OFFCURVE",
"167 626 OFFCURVE",
"146 590 CURVE SMOOTH",
"74 473 OFFCURVE",
"70 308 OFFCURVE",
"138 174 CURVE SMOOTH",
"184 85 OFFCURVE",
"254 39 OFFCURVE",
"347 39 CURVE SMOOTH",
"388 39 OFFCURVE",
"434 56 OFFCURVE",
"468 92 CURVE SMOOTH",
"497 124 OFFCURVE",
"513 165 OFFCURVE",
"513 208 CURVE SMOOTH",
"513 318 LINE",
"360 323 LINE SMOOTH",
"349 323 OFFCURVE",
"341 332 OFFCURVE",
"341 343 CURVE SMOOTH",
"341 354 OFFCURVE",
"350 362 OFFCURVE",
"361 362 CURVE SMOOTH",
"533 357 LINE SMOOTH",
"544 357 OFFCURVE",
"553 348 OFFCURVE",
"553 337 CURVE SMOOTH",
"553 208 LINE SMOOTH",
"553 155 OFFCURVE",
"533 105 OFFCURVE",
"497 66 CURVE SMOOTH",
"459 23 OFFCURVE",
"405 0 OFFCURVE",
"347 0 CURVE SMOOTH"
);
}
);
width = 603;
}
);
note = G;
unicode = 0047;
},
{
color = 4;
glyphname = H;
lastChange = "2019-06-12 19:52:55 +0000";
layers = (
{
hints = (
{
horizontal = 1;
place = "{298, 135}";
type = Stem;
},
{
place = "{25, 136}";
type = Stem;
},
{
place = "{395, 136}";
type = Stem;
}
);
layerId = "B0A8294E-1052-4773-8338-C7458B103E7D";
paths = (
{
closed = 1;
nodes = (
"427 700 OFFCURVE",
"395 668 OFFCURVE",
"395 632 CURVE SMOOTH",
"395 433 LINE",
"161 433 LINE",
"161 632 LINE SMOOTH",
"161 668 OFFCURVE",
"130 700 OFFCURVE",
"94 700 CURVE SMOOTH",
"56 700 OFFCURVE",
"25 668 OFFCURVE",
"25 632 CURVE SMOOTH",
"25 68 LINE SMOOTH",
"25 29 OFFCURVE",
"54 0 OFFCURVE",
"94 0 CURVE SMOOTH",
"133 0 OFFCURVE",
"161 29 OFFCURVE",
"161 68 CURVE SMOOTH",
"161 298 LINE",
"395 298 LINE",
"395 68 LINE SMOOTH",
"395 29 OFFCURVE",
"424 0 OFFCURVE",
"463 0 CURVE SMOOTH",
"502 0 OFFCURVE",
"531 29 OFFCURVE",
"531 68 CURVE SMOOTH",
"531 632 LINE SMOOTH",
"531 668 OFFCURVE",
"500 700 OFFCURVE",
"463 700 CURVE SMOOTH"
);
}
);
width = 556;
},
{
hints = (
{
horizontal = 1;
place = "{349, 37}";
type = Stem;
},
{
place = "{50, 38}";
type = Stem;
},
{
place = "{491, 38}";
type = Stem;
}
);
layerId = "05B5844F-1A6E-4D42-8559-CD9FEB58A40E";
paths = (
{
closed = 1;
nodes = (
"500 700 OFFCURVE",
"491 692 OFFCURVE",
"491 681 CURVE SMOOTH",
"491 386 LINE",
"88 386 LINE",
"88 681 LINE SMOOTH",
"88 692 OFFCURVE",
"80 700 OFFCURVE",
"69 700 CURVE SMOOTH",
"59 700 OFFCURVE",
"50 692 OFFCURVE",
"50 681 CURVE SMOOTH",
"50 19 LINE SMOOTH",
"50 8 OFFCURVE",
"59 0 OFFCURVE",
"69 0 CURVE SMOOTH",
"80 0 OFFCURVE",
"88 8 OFFCURVE",
"88 19 CURVE SMOOTH",
"88 349 LINE",
"491 349 LINE",
"491 19 LINE SMOOTH",
"491 8 OFFCURVE",
"500 0 OFFCURVE",
"510 0 CURVE SMOOTH",
"520 0 OFFCURVE",
"529 8 OFFCURVE",
"529 19 CURVE SMOOTH",
"529 681 LINE SMOOTH",
"529 692 OFFCURVE",
"520 700 OFFCURVE",
"510 700 CURVE SMOOTH"
);
}
);
width = 579;
}
);
note = H;
unicode = 0048;
},
{
color = 4;
glyphname = I;
lastChange = "2019-06-12 19:52:55 +0000";
layers = (
{
hints = (
{
horizontal = 1;
place = "{0, 700}";
type = Stem;
},
{
place = "{25, 137}";
type = Stem;
}
);
layerId = "B0A8294E-1052-4773-8338-C7458B103E7D";
paths = (
{
closed = 1;
nodes = (
"54 0 OFFCURVE",
"25 29 OFFCURVE",
"25 68 CURVE SMOOTH",
"25 632 LINE SMOOTH",
"25 671 OFFCURVE",
"54 700 OFFCURVE",
"93 700 CURVE SMOOTH",
"132 700 OFFCURVE",
"162 671 OFFCURVE",
"162 632 CURVE SMOOTH",
"162 68 LINE SMOOTH",
"162 29 OFFCURVE",
"132 0 OFFCURVE",
"93 0 CURVE SMOOTH"
);
}
);
width = 187;
},
{
hints = (
{
horizontal = 1;
place = "{0, 700}";
type = Stem;
},
{
place = "{50, 37}";
type = Stem;
}
);
layerId = "05B5844F-1A6E-4D42-8559-CD9FEB58A40E";
paths = (
{
closed = 1;
nodes = (
"59 0 OFFCURVE",
"50 8 OFFCURVE",
"50 19 CURVE SMOOTH",
"50 682 LINE SMOOTH",
"50 692 OFFCURVE",
"59 700 OFFCURVE",
"69 700 CURVE SMOOTH",
"79 700 OFFCURVE",
"87 692 OFFCURVE",
"87 682 CURVE SMOOTH",
"87 19 LINE SMOOTH",
"87 8 OFFCURVE",
"79 0 OFFCURVE",
"69 0 CURVE SMOOTH"
);
}
);
width = 137;
}
);
note = I;
unicode = 0049;
},
{
color = 4;
glyphname = Iacute;
lastChange = "2019-06-12 19:52:55 +0000";
layers = (
{
hints = (
{
horizontal = 1;
place = "{701, 10.63}";
type = Stem;
},
{
place = "{25, 249.62}";
type = Stem;
}
);
layerId = "B0A8294E-1052-4773-8338-C7458B103E7D";
paths = (
{
closed = 1;
nodes = (
"156 728 LINE SMOOTH",
"131 705 OFFCURVE",
"87 705 OFFCURVE",
"61 735 CURVE SMOOTH",
"35 765 OFFCURVE",
"39 807 OFFCURVE",
"68 832 CURVE SMOOTH",
"163 914 LINE SMOOTH",
"188 936 OFFCURVE",
"233 936 OFFCURVE",
"259 905 CURVE SMOOTH",
"282 877 OFFCURVE",
"280 835 OFFCURVE",
"252 810 CURVE SMOOTH"
);
},
{
closed = 1;
nodes = (
"55 0 OFFCURVE",
"25 30 OFFCURVE",
"25 68 CURVE SMOOTH",
"25 632 LINE SMOOTH",
"25 670 OFFCURVE",
"55 701 OFFCURVE",
"93 701 CURVE SMOOTH",
"131 701 OFFCURVE",
"162 670 OFFCURVE",
"162 632 CURVE SMOOTH",
"162 68 LINE SMOOTH",
"162 30 OFFCURVE",
"131 0 OFFCURVE",
"93 0 CURVE SMOOTH"
);
}
);
width = 300;
},
{
hints = (
{
horizontal = 1;
place = "{0, 968.25}";
type = Stem;
},
{
place = "{50, 170.87}";
type = Stem;
}
);
layerId = "05B5844F-1A6E-4D42-8559-CD9FEB58A40E";
paths = (
{
closed = 1;
nodes = (
"103 840 LINE SMOOTH",
"95 833 OFFCURVE",
"83 834 OFFCURVE",
"76 842 CURVE SMOOTH",
"70 850 OFFCURVE",
"71 862 OFFCURVE",
"79 868 CURVE SMOOTH",
"190 964 LINE SMOOTH",
"198 970 OFFCURVE",
"210 970 OFFCURVE",
"217 962 CURVE SMOOTH",
"223 954 OFFCURVE",
"222 942 OFFCURVE",
"215 935 CURVE SMOOTH"
);
},
{
closed = 1;
nodes = (
"58 0 OFFCURVE",
"50 9 OFFCURVE",
"50 19 CURVE SMOOTH",
"50 681 LINE SMOOTH",
"50 691 OFFCURVE",
"58 700 OFFCURVE",
"69 700 CURVE SMOOTH",
"79 700 OFFCURVE",
"88 691 OFFCURVE",
"88 681 CURVE SMOOTH",
"88 19 LINE SMOOTH",
"88 9 OFFCURVE",
"79 0 OFFCURVE",
"69 0 CURVE SMOOTH"
);
}
);
width = 271;
}
);
note = Iacute;
unicode = 00CD;
},
{
color = 4;
glyphname = Icircumflex;
lastChange = "2019-06-12 19:52:55 +0000";
layers = (
{
hints = (
{
horizontal = 1;
place = "{0, 958}";
type = Stem;
},
{
place = "{24.87, 381.13}";
type = Stem;
}
);
layerId = "B0A8294E-1052-4773-8338-C7458B103E7D";
paths = (
{
closed = 1;
nodes = (
"360 705 OFFCURVE",
"316 703 OFFCURVE",
"292 730 CURVE",
"215 800 LINE",
"138 729 LINE SMOOTH",
"111 704 OFFCURVE",
"67 706 OFFCURVE",
"41 734 CURVE SMOOTH",
"17 762 OFFCURVE",
"20 805 OFFCURVE",
"47 830 CURVE SMOOTH",
"169 940 LINE SMOOTH",
"196 964 OFFCURVE",
"235 964 OFFCURVE",
"262 940 CURVE SMOOTH",
"384 830 LINE SMOOTH",
"411 806 OFFCURVE",
"414 763 OFFCURVE",
"389 734 CURVE SMOOTH"
);
},
{
closed = 1;
nodes = (
"177 0 OFFCURVE",
"147 30 OFFCURVE",
"147 68 CURVE SMOOTH",
"147 632 LINE SMOOTH",
"147 670 OFFCURVE",
"177 700 OFFCURVE",
"215 700 CURVE SMOOTH",
"253 700 OFFCURVE",
"283 670 OFFCURVE",
"283 632 CURVE SMOOTH",
"283 68 LINE SMOOTH",
"283 30 OFFCURVE",
"253 0 OFFCURVE",
"215 0 CURVE SMOOTH"
);
}
);
width = 431;
},
{
hints = (
{
horizontal = 1;
place = "{0, 1003.5}";
type = Stem;
},
{
place = "{50.37, 326.38}";
type = Stem;
}
);
layerId = "05B5844F-1A6E-4D42-8559-CD9FEB58A40E";
paths = (
{
closed = 1;
nodes = (
"353 836 OFFCURVE",
"349 838 OFFCURVE",
"345 841 CURVE SMOOTH",
"214 959 LINE",
"82 841 LINE SMOOTH",
"74 834 OFFCURVE",
"62 835 OFFCURVE",
"55 842 CURVE SMOOTH",
"48 850 OFFCURVE",
"49 862 OFFCURVE",
"57 869 CURVE SMOOTH",
"201 999 LINE SMOOTH",
"208 1005 OFFCURVE",
"219 1005 OFFCURVE",
"226 999 CURVE SMOOTH",
"371 869 LINE SMOOTH",
"383 857 OFFCURVE",
"375 836 OFFCURVE",
"358 836 CURVE SMOOTH"
);
},
{
closed = 1;
nodes = (
"203 0 OFFCURVE",
"195 8 OFFCURVE",
"195 19 CURVE SMOOTH",
"195 681 LINE SMOOTH",
"195 692 OFFCURVE",
"203 700 OFFCURVE",
"214 700 CURVE SMOOTH",
"224 700 OFFCURVE",
"233 692 OFFCURVE",
"233 681 CURVE SMOOTH",
"233 19 LINE SMOOTH",
"233 8 OFFCURVE",
"224 0 OFFCURVE",
"214 0 CURVE SMOOTH"
);
}
);
width = 427;
}
);
note = Icircumflex;
unicode = 00CE;
},
{
color = 4;
glyphname = Idieresis;
lastChange = "2019-06-12 19:52:55 +0000";
layers = (
{
hints = (
{
horizontal = 1;
place = "{0, 866}";
type = Stem;
},
{
place = "{161, 23}";
type = Stem;
}
);
layerId = "B0A8294E-1052-4773-8338-C7458B103E7D";
paths = (
{
closed = 1;
nodes = (
"56 714 OFFCURVE",
"25 744 OFFCURVE",
"25 782 CURVE SMOOTH",
"25 797 LINE SMOOTH",
"25 836 OFFCURVE",
"56 866 OFFCURVE",
"94 866 CURVE SMOOTH",
"131 866 OFFCURVE",
"161 836 OFFCURVE",
"161 797 CURVE SMOOTH",
"161 782 LINE SMOOTH",
"161 744 OFFCURVE",
"131 714 OFFCURVE",
"94 714 CURVE SMOOTH"
);
},
{
closed = 1;
nodes = (
"214 714 OFFCURVE",
"184 744 OFFCURVE",
"184 782 CURVE SMOOTH",
"184 797 LINE SMOOTH",
"184 836 OFFCURVE",
"214 866 OFFCURVE",
"251 866 CURVE SMOOTH",
"289 866 OFFCURVE",
"320 836 OFFCURVE",
"320 797 CURVE SMOOTH",
"320 782 LINE SMOOTH",
"320 744 OFFCURVE",
"289 714 OFFCURVE",
"251 714 CURVE SMOOTH"
);
},
{
closed = 1;
nodes = (
"135 0 OFFCURVE",
"104 30 OFFCURVE",
"104 69 CURVE SMOOTH",
"104 632 LINE SMOOTH",
"104 670 OFFCURVE",
"135 700 OFFCURVE",
"172 700 CURVE SMOOTH",
"210 700 OFFCURVE",
"241 670 OFFCURVE",
"241 632 CURVE SMOOTH",
"241 69 LINE SMOOTH",
"241 30 OFFCURVE",
"210 0 OFFCURVE",
"172 0 CURVE SMOOTH"
);
}
);
width = 345;
},
{
hints = (
{
horizontal = 1;
place = "{0, 894}";
type = Stem;
},
{
place = "{87, 137}";
type = Stem;
}
);
layerId = "05B5844F-1A6E-4D42-8559-CD9FEB58A40E";
paths = (
{
closed = 1;
nodes = (
"58 837 OFFCURVE",
"50 846 OFFCURVE",
"50 856 CURVE SMOOTH",
"50 875 LINE SMOOTH",
"50 885 OFFCURVE",
"58 894 OFFCURVE",
"68 894 CURVE SMOOTH",
"79 894 OFFCURVE",
"87 885 OFFCURVE",
"87 875 CURVE SMOOTH",
"87 856 LINE SMOOTH",
"87 846 OFFCURVE",
"79 837 OFFCURVE",
"68 837 CURVE SMOOTH"
);
},
{
closed = 1;
nodes = (
"232 837 OFFCURVE",
"224 846 OFFCURVE",
"224 856 CURVE SMOOTH",
"224 875 LINE SMOOTH",
"224 885 OFFCURVE",
"232 894 OFFCURVE",
"243 894 CURVE SMOOTH",
"253 894 OFFCURVE",
"262 885 OFFCURVE",
"262 875 CURVE SMOOTH",
"262 856 LINE SMOOTH",
"262 846 OFFCURVE",
"253 837 OFFCURVE",
"243 837 CURVE SMOOTH"
);
},
{
closed = 1;
nodes = (
"145 0 OFFCURVE",
"137 8 OFFCURVE",
"137 19 CURVE SMOOTH",
"137 681 LINE SMOOTH",
"137 691 OFFCURVE",
"145 700 OFFCURVE",
"156 700 CURVE SMOOTH",
"166 700 OFFCURVE",
"175 691 OFFCURVE",
"175 681 CURVE SMOOTH",
"175 19 LINE SMOOTH",
"175 8 OFFCURVE",
"166 0 OFFCURVE",
"156 0 CURVE SMOOTH"
);
}
);
width = 312;
}
);
note = Idieresis;
unicode = 00CF;
},
{
export = 0;
glyphname = Igrave;
lastChange = "2019-06-13 09:15:21 +0000";
layers = (
{
hints = (
{
horizontal = 1;
place = "{700, 11.65}";
type = Stem;
},
{
place = "{25.62, 230.38}";
type = Stem;
}
);
layerId = "B0A8294E-1052-4773-8338-C7458B103E7D";
paths = (
{
closed = 1;
nodes = (
"215 709 OFFCURVE",
"178 702 OFFCURVE",
"144 727 CURVE",
"49 809 LINE SMOOTH",
"20 834 OFFCURVE",
"18 877 OFFCURVE",
"42 905 CURVE SMOOTH",
"67 933 OFFCURVE",
"111 936 OFFCURVE",
"138 912 CURVE SMOOTH",
"233 830 LINE SMOOTH",
"261 806 OFFCURVE",
"264 763 OFFCURVE",
"240 734 CURVE"
);
},
{
closed = 1;
nodes = (
"150 0 OFFCURVE",
"120 30 OFFCURVE",
"120 68 CURVE SMOOTH",
"120 631 LINE SMOOTH",
"120 669 OFFCURVE",
"150 700 OFFCURVE",
"188 700 CURVE SMOOTH",
"226 700 OFFCURVE",
"256 670 OFFCURVE",
"256 631 CURVE SMOOTH",
"256 68 LINE SMOOTH",
"256 30 OFFCURVE",
"226 0 OFFCURVE",
"188 0 CURVE SMOOTH"
);
}
);
width = 281;
},
{
hints = (
{
horizontal = 1;
place = "{0, 967.63}";
type = Stem;
},
{
place = "{50.37, 149.63}";
type = Stem;
}
);
layerId = "05B5844F-1A6E-4D42-8559-CD9FEB58A40E";
paths = (
{
closed = 1;
nodes = (
"177 834 OFFCURVE",
"172 836 OFFCURVE",
"169 839 CURVE SMOOTH",
"57 934 LINE SMOOTH",
"49 941 OFFCURVE",
"48 953 OFFCURVE",
"55 961 CURVE SMOOTH",
"63 969 OFFCURVE",
"74 970 OFFCURVE",
"82 963 CURVE SMOOTH",
"193 869 LINE SMOOTH",
"201 862 OFFCURVE",
"202 849 OFFCURVE",
"196 841 CURVE SMOOTH",
"192 836 OFFCURVE",
"186 834 OFFCURVE",
"181 834 CURVE SMOOTH"
);
},
{
closed = 1;
nodes = (
"171 0 OFFCURVE",
"162 9 OFFCURVE",
"162 19 CURVE SMOOTH",
"162 680 LINE SMOOTH",
"162 691 OFFCURVE",
"171 700 OFFCURVE",
"181 700 CURVE SMOOTH",
"192 700 OFFCURVE",
"200 691 OFFCURVE",
"200 680 CURVE SMOOTH",
"200 19 LINE SMOOTH",
"200 9 OFFCURVE",
"192 0 OFFCURVE",
"181 0 CURVE SMOOTH"
);
}
);
width = 250;
}
);
note = Igrave;
unicode = 00CC;
},
{
color = 4;
glyphname = Imacron;
lastChange = "2019-06-12 19:53:00 +0000";
layers = (
{
hints = (
{
horizontal = 1;
place = "{700, 20}";
type = Stem;
},
{
place = "{25, 261}";
type = Stem;
}
);
layerId = "B0A8294E-1052-4773-8338-C7458B103E7D";
paths = (
{
closed = 1;
nodes = (
"93 720 LINE SMOOTH",
"57 720 OFFCURVE",
"25 752 OFFCURVE",
"25 788 CURVE SMOOTH",
"25 826 OFFCURVE",
"56 857 OFFCURVE",
"93 857 CURVE SMOOTH",
"218 857 LINE SMOOTH",
"255 857 OFFCURVE",
"286 826 OFFCURVE",
"286 788 CURVE SMOOTH",
"286 751 OFFCURVE",
"255 720 OFFCURVE",
"218 720 CURVE SMOOTH"
);
},
{
closed = 1;
nodes = (
"118 0 OFFCURVE",
"87 31 OFFCURVE",
"87 68 CURVE SMOOTH",
"87 632 LINE SMOOTH",
"87 669 OFFCURVE",
"118 700 OFFCURVE",
"156 700 CURVE SMOOTH",
"194 700 OFFCURVE",
"225 669 OFFCURVE",
"225 632 CURVE SMOOTH",
"225 68 LINE SMOOTH",
"225 31 OFFCURVE",
"194 0 OFFCURVE",
"156 0 CURVE SMOOTH"
);
}
);
width = 311;
},
{
hints = (
{
horizontal = 1;
place = "{680, 120}";
type = Stem;
},
{
place = "{50, 287}";
type = Stem;
}
);
layerId = "05B5844F-1A6E-4D42-8559-CD9FEB58A40E";
paths = (
{
closed = 1;
nodes = (
"70 800 LINE SMOOTH",
"59 800 OFFCURVE",
"50 809 OFFCURVE",
"50 820 CURVE SMOOTH",
"50 831 OFFCURVE",
"59 840 OFFCURVE",
"70 840 CURVE SMOOTH",
"317 840 LINE SMOOTH",
"328 840 OFFCURVE",
"337 831 OFFCURVE",
"337 820 CURVE SMOOTH",
"337 809 OFFCURVE",
"328 800 OFFCURVE",
"317 800 CURVE SMOOTH"
);
},
{
closed = 1;
nodes = (
"183 0 OFFCURVE",
"174 9 OFFCURVE",
"174 19 CURVE SMOOTH",
"174 680 LINE SMOOTH",
"174 691 OFFCURVE",
"183 700 OFFCURVE",
"193 700 CURVE SMOOTH",
"204 700 OFFCURVE",
"212 691 OFFCURVE",
"212 680 CURVE SMOOTH",
"212 19 LINE SMOOTH",
"212 9 OFFCURVE",
"204 0 OFFCURVE",
"193 0 CURVE SMOOTH"
);
}
);
width = 387;
}
);
note = Imacron;
unicode = 012A;
},
{
export = 0;
glyphname = J;
lastChange = "2019-06-13 09:15:26 +0000";
layers = (
{
hints = (
{
horizontal = 1;
place = "{0, 700}";
type = Stem;
},
{
place = "{160, 130}";
type = Stem;
}
);
layerId = "B0A8294E-1052-4773-8338-C7458B103E7D";
paths = (
{
closed = 1;
nodes = (
"113 0 OFFCURVE",
"25 89 OFFCURVE",
"25 204 CURVE SMOOTH",
"25 251 LINE SMOOTH",
"25 291 OFFCURVE",
"54 321 OFFCURVE",
"93 321 CURVE SMOOTH",
"130 321 OFFCURVE",
"160 292 OFFCURVE",
"160 251 CURVE SMOOTH",
"160 204 LINE SMOOTH",
"160 158 OFFCURVE",
"182 136 OFFCURVE",
"229 136 CURVE SMOOTH",
"268 136 OFFCURVE",
"290 166 OFFCURVE",
"290 214 CURVE SMOOTH",
"290 631 LINE SMOOTH",
"290 670 OFFCURVE",
"320 700 OFFCURVE",
"358 700 CURVE SMOOTH",
"399 700 OFFCURVE",
"425 671 OFFCURVE",
"425 631 CURVE SMOOTH",
"425 214 LINE SMOOTH",
"425 90 OFFCURVE",
"342 0 OFFCURVE",
"229 0 CURVE SMOOTH"
);
}
);
width = 450;
},
{
hints = (
{
horizontal = 1;
place = "{0, 700}";
type = Stem;
},
{
place = "{87, 279}";
type = Stem;
}
);
layerId = "05B5844F-1A6E-4D42-8559-CD9FEB58A40E";
paths = (
{
closed = 1;
nodes = (
"153 0 OFFCURVE",
"110 37 OFFCURVE",
"87 67 CURVE SMOOTH",
"53 113 OFFCURVE",
"50 165 OFFCURVE",
"50 186 CURVE SMOOTH",
"50 241 LINE SMOOTH",
"50 251 OFFCURVE",
"58 260 OFFCURVE",
"69 260 CURVE SMOOTH",
"79 260 OFFCURVE",
"87 251 OFFCURVE",
"87 241 CURVE SMOOTH",
"87 186 LINE SMOOTH",
"87 151 OFFCURVE",
"99 115 OFFCURVE",
"118 90 CURVE SMOOTH",
"143 55 OFFCURVE",
"181 38 OFFCURVE",
"231 38 CURVE SMOOTH",
"272 38 OFFCURVE",
"304 50 OFFCURVE",
"327 74 CURVE SMOOTH",
"369 118 OFFCURVE",
"366 190 OFFCURVE",
"366 190 CURVE",
"366 681 LINE SMOOTH",
"366 692 OFFCURVE",
"374 700 OFFCURVE",
"385 700 CURVE SMOOTH",
"395 700 OFFCURVE",
"404 692 OFFCURVE",
"404 681 CURVE SMOOTH",
"404 192 LINE SMOOTH",
"404 184 OFFCURVE",
"406 102 OFFCURVE",
"354 48 CURVE SMOOTH",
"324 16 OFFCURVE",
"282 0 OFFCURVE",
"231 0 CURVE SMOOTH"
);
}
);
width = 454;
}
);
note = J;
unicode = 004A;
},
{
export = 0;
glyphname = K;
lastChange = "2019-06-13 09:15:26 +0000";
layers = (
{
hints = (
{
horizontal = 1;
place = "{0, 700}";
type = Stem;
},
{
place = "{25, 136}";
type = Stem;
}
);
layerId = "B0A8294E-1052-4773-8338-C7458B103E7D";
paths = (
{
closed = 1;
nodes = (
"316 394 LINE",
"487 570 LINE",
"518 598 OFFCURVE",
"520 641 OFFCURVE",
"492 667 CURVE",
"492 668 LINE",
"463 695 OFFCURVE",
"422 693 OFFCURVE",
"392 665 CURVE",
"161 427 LINE",
"161 630 LINE SMOOTH",
"161 669 OFFCURVE",
"131 700 OFFCURVE",
"93 700 CURVE SMOOTH",
"55 700 OFFCURVE",
"25 669 OFFCURVE",
"25 630 CURVE SMOOTH",
"25 70 LINE SMOOTH",
"25 30 OFFCURVE",
"55 0 OFFCURVE",
"93 0 CURVE SMOOTH",
"131 0 OFFCURVE",
"161 30 OFFCURVE",
"161 70 CURVE SMOOTH",
"161 234 LINE",
"222 298 LINE",
"401 36 LINE SMOOTH",
"425 1 OFFCURVE",
"465 -10 OFFCURVE",
"500 10 CURVE SMOOTH",
"532 31 OFFCURVE",
"539 75 OFFCURVE",
"515 110 CURVE SMOOTH"
);
}
);
width = 554;
},
{
hints = (
{
horizontal = 1;
place = "{0, 700}";
type = Stem;
},
{
place = "{50, 38}";
type = Stem;
}
);
layerId = "05B5844F-1A6E-4D42-8559-CD9FEB58A40E";
paths = (
{
closed = 1;
nodes = (
"251 411 LINE",
"493 657 LINE SMOOTH",
"500 664 OFFCURVE",
"500 676 OFFCURVE",
"492 684 CURVE SMOOTH",
"485 691 OFFCURVE",
"473 691 OFFCURVE",
"465 683 CURVE SMOOTH",
"88 300 LINE",
"88 681 LINE SMOOTH",
"88 692 OFFCURVE",
"79 700 OFFCURVE",
"69 700 CURVE SMOOTH",
"58 700 OFFCURVE",
"50 692 OFFCURVE",
"50 681 CURVE SMOOTH",
"50 257 LINE",
"50 250 LINE",
"50 19 LINE SMOOTH",
"50 9 OFFCURVE",
"58 0 OFFCURVE",
"69 0 CURVE SMOOTH",
"79 0 OFFCURVE",
"88 9 OFFCURVE",
"88 19 CURVE SMOOTH",
"88 245 LINE",
"224 384 LINE",
"483 8 LINE",
"488 -1 OFFCURVE",
"501 -2 OFFCURVE",
"509 3 CURVE SMOOTH",
"518 9 OFFCURVE",
"520 21 OFFCURVE",
"514 30 CURVE SMOOTH"
);
}
);
width = 567;
}
);
note = K;
unicode = 004B;
},
{
export = 0;
glyphname = L;
lastChange = "2019-06-13 09:15:26 +0000";
layers = (
{
hints = (
{
horizontal = 1;
place = "{0, 136}";
type = Stem;
},
{
place = "{25, 137}";
type = Stem;
}
);
layerId = "B0A8294E-1052-4773-8338-C7458B103E7D";
paths = (
{
closed = 1;
nodes = (
"162 136 LINE",
"162 630 LINE SMOOTH",
"162 669 OFFCURVE",
"132 700 OFFCURVE",
"94 700 CURVE SMOOTH",
"56 700 OFFCURVE",
"25 669 OFFCURVE",
"25 630 CURVE SMOOTH",
"25 68 LINE SMOOTH",
"25 29 OFFCURVE",
"54 0 OFFCURVE",
"93 0 CURVE SMOOTH",
"467 0 LINE SMOOTH",
"506 0 OFFCURVE",
"537 30 OFFCURVE",
"537 68 CURVE SMOOTH",
"537 106 OFFCURVE",
"506 136 OFFCURVE",
"467 136 CURVE SMOOTH"
);
}
);
width = 562;
},
{
hints = (
{
horizontal = 1;
place = "{0, 38}";
type = Stem;
},
{
place = "{50, 39}";
type = Stem;
}
);
layerId = "05B5844F-1A6E-4D42-8559-CD9FEB58A40E";
paths = (
{
closed = 1;
nodes = (
"89 38 LINE",
"89 681 LINE SMOOTH",
"89 692 OFFCURVE",
"80 700 OFFCURVE",
"70 700 CURVE SMOOTH",
"59 700 OFFCURVE",
"50 692 OFFCURVE",
"50 681 CURVE SMOOTH",
"50 22 LINE SMOOTH",
"50 21 OFFCURVE",
"50 21 OFFCURVE",
"50 20 CURVE SMOOTH",
"50 19 LINE SMOOTH",
"50 9 OFFCURVE",
"59 0 OFFCURVE",
"70 0 CURVE SMOOTH",
"514 0 LINE SMOOTH",
"524 0 OFFCURVE",
"533 9 OFFCURVE",
"533 19 CURVE SMOOTH",
"533 30 OFFCURVE",
"524 38 OFFCURVE",
"514 38 CURVE SMOOTH"
);
}
);
width = 583;
}
);
note = L;
unicode = 004C;
},
{
export = 0;
glyphname = M;
lastChange = "2019-06-13 09:15:26 +0000";
layers = (
{
hints = (
{
horizontal = 1;
place = "{0, 700}";
type = Stem;
},
{
place = "{25, 135}";
type = Stem;
},
{
place = "{491, 135}";
type = Stem;
}
);
layerId = "B0A8294E-1052-4773-8338-C7458B103E7D";
paths = (
{
closed = 1;
nodes = (
"512 700 LINE SMOOTH",
"484 700 OFFCURVE",
"459 683 OFFCURVE",
"451 657 CURVE",
"450 656 LINE",
"325 278 LINE",
"201 656 LINE",
"200 657 LINE",
"192 683 OFFCURVE",
"167 700 OFFCURVE",
"139 700 CURVE SMOOTH",
"94 700 LINE SMOOTH",
"56 700 OFFCURVE",
"25 669 OFFCURVE",
"25 631 CURVE SMOOTH",
"25 69 LINE SMOOTH",
"25 31 OFFCURVE",
"55 0 OFFCURVE",
"92 0 CURVE SMOOTH",
"129 0 OFFCURVE",
"160 31 OFFCURVE",
"160 69 CURVE SMOOTH",
"160 347 LINE",
"247 65 LINE",
"248 63 LINE SMOOTH",
"255 48 OFFCURVE",
"274 0 OFFCURVE",
"325 0 CURVE SMOOTH",
"377 0 OFFCURVE",
"396 48 OFFCURVE",
"403 63 CURVE SMOOTH",
"404 65 LINE",
"491 347 LINE",
"491 69 LINE SMOOTH",
"491 31 OFFCURVE",
"522 0 OFFCURVE",
"559 0 CURVE SMOOTH",
"596 0 OFFCURVE",
"626 31 OFFCURVE",
"626 69 CURVE SMOOTH",
"626 631 LINE SMOOTH",
"626 669 OFFCURVE",
"595 700 OFFCURVE",
"557 700 CURVE SMOOTH"
);
}
);
width = 651;
},
{
hints = (
{
horizontal = 1;
place = "{0, 700}";
type = Stem;
},
{
place = "{601, 7}";
type = Stem;
}
);
layerId = "05B5844F-1A6E-4D42-8559-CD9FEB58A40E";
paths = (
{
closed = 1;
nodes = (
"617 0 OFFCURVE",
"608 9 OFFCURVE",
"608 19 CURVE SMOOTH",
"608 662 LINE",
"601 662 LINE",
"364 13 LINE",
"362 5 OFFCURVE",
"355 0 OFFCURVE",
"346 0 CURVE SMOOTH",
"339 0 OFFCURVE",
"331 5 OFFCURVE",
"328 13 CURVE SMOOTH",
"94 662 LINE",
"88 662 LINE",
"88 19 LINE SMOOTH",
"88 9 OFFCURVE",
"79 0 OFFCURVE",
"69 0 CURVE SMOOTH",
"58 0 OFFCURVE",
"50 9 OFFCURVE",
"50 19 CURVE SMOOTH",
"50 681 LINE SMOOTH",
"50 691 OFFCURVE",
"58 700 OFFCURVE",
"69 700 CURVE SMOOTH",
"108 700 LINE SMOOTH",
"116 700 OFFCURVE",
"123 695 OFFCURVE",
"126 687 CURVE SMOOTH",
"346 76 LINE",
"564 687 LINE",
"566 695 OFFCURVE",
"574 700 OFFCURVE",
"582 700 CURVE SMOOTH",
"627 700 LINE SMOOTH",
"637 700 OFFCURVE",
"646 692 OFFCURVE",
"646 681 CURVE SMOOTH",
"646 19 LINE SMOOTH",
"646 9 OFFCURVE",
"638 0 OFFCURVE",
"627 0 CURVE SMOOTH"
);
}
);
width = 696;
}
);
note = M;
unicode = 004D;
},
{
color = 4;
glyphname = N;
lastChange = "2019-06-12 19:54:07 +0000";
layers = (
{
hints = (
{
horizontal = 1;
place = "{0, 700}";
type = Stem;
},
{
place = "{160, 230}";
type = Stem;
}
);
layerId = "B0A8294E-1052-4773-8338-C7458B103E7D";
paths = (
{
closed = 1;
nodes = (
"434 0 LINE SMOOTH",
"391 0 OFFCURVE",
"376 35 OFFCURVE",
"365 54 CURVE SMOOTH",
"160 430 LINE",
"160 69 LINE SMOOTH",
"160 31 OFFCURVE",
"130 0 OFFCURVE",
"93 0 CURVE SMOOTH",
"54 0 OFFCURVE",
"25 31 OFFCURVE",
"25 69 CURVE SMOOTH",
"25 633 LINE SMOOTH",
"25 671 OFFCURVE",
"53 700 OFFCURVE",
"92 700 CURVE SMOOTH",
"123 700 LINE SMOOTH",
"156 700 OFFCURVE",
"181 685 OFFCURVE",
"196 655 CURVE SMOOTH",
"390 290 LINE",
"390 631 LINE SMOOTH",
"390 669 OFFCURVE",
"420 700 OFFCURVE",
"457 700 CURVE SMOOTH",
"496 700 OFFCURVE",
"524 669 OFFCURVE",
"524 631 CURVE SMOOTH",
"524 67 LINE SMOOTH",
"524 29 OFFCURVE",
"496 0 OFFCURVE",
"457 0 CURVE SMOOTH"
);
}
);
width = 549;
},
{
hints = (
{
horizontal = 1;
place = "{0, 700}";
type = Stem;
},
{
place = "{50, 473}";
type = Stem;
}
);
layerId = "05B5844F-1A6E-4D42-8559-CD9FEB58A40E";
paths = (
{
closed = 1;
nodes = (
"476 0 LINE SMOOTH",
"469 0 OFFCURVE",
"463 4 OFFCURVE",
"460 10 CURVE SMOOTH",
"88 662 LINE",
"88 19 LINE SMOOTH",
"88 8 OFFCURVE",
"79 0 OFFCURVE",
"69 0 CURVE SMOOTH",
"59 0 OFFCURVE",
"50 8 OFFCURVE",
"50 19 CURVE SMOOTH",
"50 681 LINE SMOOTH",
"50 692 OFFCURVE",
"59 700 OFFCURVE",
"69 700 CURVE SMOOTH",
"99 700 LINE SMOOTH",
"106 700 OFFCURVE",
"113 696 OFFCURVE",
"116 690 CURVE SMOOTH",
"485 42 LINE",
"485 681 LINE SMOOTH",
"485 692 OFFCURVE",
"493 700 OFFCURVE",
"504 700 CURVE SMOOTH",
"514 700 OFFCURVE",
"523 692 OFFCURVE",
"523 681 CURVE SMOOTH",
"523 19 LINE SMOOTH",
"523 8 OFFCURVE",
"514 0 OFFCURVE",
"504 0 CURVE SMOOTH"
);
}
);
width = 573;
}
);
note = N;
unicode = 004E;
},
{
export = 0;
glyphname = Nacute;
lastChange = "2019-06-13 09:15:30 +0000";
layers = (
{
hints = (
{
horizontal = 1;
place = "{0, 926.63}";
type = Stem;
},
{
place = "{162, 233}";
type = Stem;
}
);
layerId = "B0A8294E-1052-4773-8338-C7458B103E7D";
paths = (
{
closed = 1;
nodes = (
"256 710 OFFCURVE",
"234 719 OFFCURVE",
"224 734 CURVE",
"225 733 LINE SMOOTH",
"200 761 OFFCURVE",
"202 804 OFFCURVE",
"231 829 CURVE",
"231 830 LINE",
"326 911 LINE SMOOTH",
"354 935 OFFCURVE",
"397 931 OFFCURVE",
"421 904 CURVE SMOOTH",
"422 903 LINE SMOOTH",
"446 874 OFFCURVE",
"443 833 OFFCURVE",
"415 808 CURVE SMOOTH",
"414 807 LINE",
"319 726 LINE SMOOTH",
"307 717 OFFCURVE",
"291 710 OFFCURVE",
"275 710 CURVE SMOOTH"
);
},
{
closed = 1;
nodes = (
"441 0 LINE SMOOTH",
"417 0 OFFCURVE",
"392 14 OFFCURVE",
"382 36 CURVE",
"162 431 LINE",
"162 68 LINE SMOOTH",
"162 30 OFFCURVE",
"132 0 OFFCURVE",
"94 0 CURVE SMOOTH",
"56 0 OFFCURVE",
"25 30 OFFCURVE",
"25 68 CURVE SMOOTH",
"25 632 LINE SMOOTH",
"25 670 OFFCURVE",
"56 700 OFFCURVE",
"94 700 CURVE SMOOTH",
"129 700 LINE SMOOTH",
"154 700 OFFCURVE",
"175 687 OFFCURVE",
"188 666 CURVE SMOOTH",
"395 290 LINE",
"395 632 LINE SMOOTH",
"395 670 OFFCURVE",
"425 700 OFFCURVE",
"463 700 CURVE SMOOTH",
"502 700 OFFCURVE",
"532 670 OFFCURVE",
"532 632 CURVE SMOOTH",
"532 68 LINE SMOOTH",
"532 30 OFFCURVE",
"501 0 OFFCURVE",
"463 0 CURVE SMOOTH"
);
}
);
width = 557;
},
{
hints = (
{
horizontal = 1;
place = "{0, 968.25}";
type = Stem;
},
{
place = "{50, 473}";
type = Stem;
}
);
layerId = "05B5844F-1A6E-4D42-8559-CD9FEB58A40E";
paths = (
{
closed = 1;
nodes = (
"311 840 LINE SMOOTH",
"303 833 OFFCURVE",
"291 834 OFFCURVE",
"284 842 CURVE SMOOTH",
"278 850 OFFCURVE",
"279 862 OFFCURVE",
"287 868 CURVE SMOOTH",
"398 964 LINE SMOOTH",
"406 970 OFFCURVE",
"418 970 OFFCURVE",
"425 962 CURVE SMOOTH",
"431 954 OFFCURVE",
"430 942 OFFCURVE",
"423 935 CURVE SMOOTH"
);
},
{
closed = 1;
nodes = (
"476 0 LINE SMOOTH",
"469 0 OFFCURVE",
"463 4 OFFCURVE",
"460 10 CURVE SMOOTH",
"88 662 LINE",
"88 19 LINE SMOOTH",
"88 8 OFFCURVE",
"79 0 OFFCURVE",
"69 0 CURVE SMOOTH",
"59 0 OFFCURVE",
"50 8 OFFCURVE",
"50 19 CURVE SMOOTH",
"50 681 LINE SMOOTH",
"50 692 OFFCURVE",
"59 700 OFFCURVE",
"69 700 CURVE SMOOTH",
"99 700 LINE SMOOTH",
"106 700 OFFCURVE",
"113 696 OFFCURVE",
"116 690 CURVE SMOOTH",
"485 42 LINE",
"485 681 LINE SMOOTH",
"485 692 OFFCURVE",
"493 700 OFFCURVE",
"504 700 CURVE SMOOTH",
"514 700 OFFCURVE",
"523 692 OFFCURVE",
"523 681 CURVE SMOOTH",
"523 19 LINE SMOOTH",
"523 8 OFFCURVE",
"514 0 OFFCURVE",
"504 0 CURVE SMOOTH"
);
}
);
width = 573;
}
);
note = Nacute;
unicode = 0143;
},
{
export = 0;
glyphname = Ntilde;
lastChange = "2019-06-13 09:15:30 +0000";
layers = (
{
hints = (
{
horizontal = 1;
place = "{700, 19.88}";
type = Stem;
},
{
place = "{162, 233}";
type = Stem;
}
);
layerId = "B0A8294E-1052-4773-8338-C7458B103E7D";
paths = (
{
closed = 1;
nodes = (
"238 715 OFFCURVE",
"249 777 OFFCURVE",
"216 777 CURVE SMOOTH",
"187 777 OFFCURVE",
"169 697 OFFCURVE",
"93 726 CURVE SMOOTH",
"9 759 OFFCURVE",
"115 914 OFFCURVE",
"216 914 CURVE SMOOTH",
"297 914 OFFCURVE",
"302 853 OFFCURVE",
"341 853 CURVE SMOOTH",
"386 853 OFFCURVE",
"392 932 OFFCURVE",
"462 893 CURVE SMOOTH",
"536 851 OFFCURVE",
"450 715 OFFCURVE",
"341 715 CURVE SMOOTH"
);
},
{
closed = 1;
nodes = (
"440 0 LINE SMOOTH",
"415 0 OFFCURVE",
"391 15 OFFCURVE",
"380 37 CURVE SMOOTH",
"381 35 LINE",
"162 430 LINE",
"162 69 LINE SMOOTH",
"162 30 OFFCURVE",
"131 0 OFFCURVE",
"93 0 CURVE SMOOTH",
"56 0 OFFCURVE",
"25 30 OFFCURVE",
"25 69 CURVE SMOOTH",
"25 632 LINE SMOOTH",
"25 669 OFFCURVE",
"56 700 OFFCURVE",
"93 700 CURVE SMOOTH",
"128 700 LINE SMOOTH",
"153 700 OFFCURVE",
"175 687 OFFCURVE",
"187 666 CURVE SMOOTH",
"395 289 LINE",
"395 632 LINE SMOOTH",
"395 669 OFFCURVE",
"425 700 OFFCURVE",
"463 700 CURVE SMOOTH",
"502 700 OFFCURVE",
"532 670 OFFCURVE",
"532 632 CURVE SMOOTH",
"532 69 LINE SMOOTH",
"532 30 OFFCURVE",
"501 0 OFFCURVE",
"463 0 CURVE SMOOTH"
);
}
);
width = 557;
},
{
hints = (
{
horizontal = 1;
place = "{0, 1009}";
type = Stem;
},
{
place = "{50, 473}";
type = Stem;
}
);
layerId = "05B5844F-1A6E-4D42-8559-CD9FEB58A40E";
paths = (
{
closed = 1;
nodes = (
"335 910 OFFCURVE",
"301 922 OFFCURVE",
"275 944 CURVE SMOOTH",
"252 963 OFFCURVE",
"224 972 OFFCURVE",
"195 969 CURVE SMOOTH",
"166 966 OFFCURVE",
"140 952 OFFCURVE",
"121 930 CURVE SMOOTH",
"114 921 OFFCURVE",
"102 920 OFFCURVE",
"93 927 CURVE SMOOTH",
"85 934 OFFCURVE",
"83 947 OFFCURVE",
"90 955 CURVE SMOOTH",
"116 986 OFFCURVE",
"151 1005 OFFCURVE",
"191 1009 CURVE SMOOTH",
"231 1012 OFFCURVE",
"269 1001 OFFCURVE",
"300 975 CURVE SMOOTH",
"346 937 OFFCURVE",
"415 944 OFFCURVE",
"453 990 CURVE SMOOTH",
"460 999 OFFCURVE",
"473 1000 OFFCURVE",
"482 993 CURVE SMOOTH",
"490 986 OFFCURVE",
"491 973 OFFCURVE",
"484 965 CURVE SMOOTH",
"459 934 OFFCURVE",
"423 915 OFFCURVE",
"384 911 CURVE SMOOTH",
"379 911 OFFCURVE",
"374 910 OFFCURVE",
"369 910 CURVE SMOOTH"
);
},
{
closed = 1;
nodes = (
"476 0 LINE SMOOTH",
"469 0 OFFCURVE",
"463 4 OFFCURVE",
"460 10 CURVE SMOOTH",
"88 662 LINE",
"88 19 LINE SMOOTH",
"88 8 OFFCURVE",
"79 0 OFFCURVE",
"69 0 CURVE SMOOTH",
"59 0 OFFCURVE",
"50 8 OFFCURVE",
"50 19 CURVE SMOOTH",
"50 681 LINE SMOOTH",
"50 692 OFFCURVE",
"59 700 OFFCURVE",
"69 700 CURVE SMOOTH",
"99 700 LINE SMOOTH",
"106 700 OFFCURVE",
"113 696 OFFCURVE",
"116 690 CURVE SMOOTH",
"485 42 LINE",
"485 681 LINE SMOOTH",
"485 692 OFFCURVE",
"493 700 OFFCURVE",
"504 700 CURVE SMOOTH",
"514 700 OFFCURVE",
"523 692 OFFCURVE",
"523 681 CURVE SMOOTH",
"523 19 LINE SMOOTH",
"523 8 OFFCURVE",
"514 0 OFFCURVE",
"504 0 CURVE SMOOTH"
);
}
);
width = 573;
}
);
note = Ntilde;
unicode = 00D1;
},
{
export = 0;
glyphname = O;
lastChange = "2019-06-13 09:15:30 +0000";
layers = (
{
hints = (
{
horizontal = 1;
place = "{-17, 733}";
type = Stem;
},
{
place = "{25, 575}";
type = Stem;
},
{
place = "{165, 294}";
type = Stem;
}
);
layerId = "B0A8294E-1052-4773-8338-C7458B103E7D";
paths = (
{
closed = 1;
nodes = (
"153 -17 OFFCURVE",
"25 147 OFFCURVE",
"25 349 CURVE SMOOTH",
"25 551 OFFCURVE",
"153 716 OFFCURVE",
"312 716 CURVE SMOOTH",
"471 716 OFFCURVE",
"600 551 OFFCURVE",
"600 349 CURVE SMOOTH",
"600 148 OFFCURVE",
"472 -17 OFFCURVE",
"312 -17 CURVE SMOOTH"
);
},
{
closed = 1;
nodes = (
"233 575 OFFCURVE",
"165 473 OFFCURVE",
"165 349 CURVE SMOOTH",
"165 225 OFFCURVE",
"233 123 OFFCURVE",
"312 123 CURVE SMOOTH",
"392 123 OFFCURVE",
"459 224 OFFCURVE",
"459 349 CURVE SMOOTH",
"459 474 OFFCURVE",
"392 575 OFFCURVE",
"312 575 CURVE SMOOTH"
);
}
);
width = 625;
},
{
hints = (
{
horizontal = 1;
place = "{-20, 745}";
type = Stem;
},
{
place = "{50, 557}";
type = Stem;
}
);
layerId = "05B5844F-1A6E-4D42-8559-CD9FEB58A40E";
paths = (
{
closed = 1;
nodes = (
"290 -20 OFFCURVE",
"253 -10 OFFCURVE",
"218 10 CURVE SMOOTH",
"185 30 OFFCURVE",
"155 57 OFFCURVE",
"130 91 CURVE SMOOTH",
"78 161 OFFCURVE",
"50 254 OFFCURVE",
"50 352 CURVE SMOOTH",
"50 451 OFFCURVE",
"78 543 OFFCURVE",
"130 613 CURVE SMOOTH",
"155 648 OFFCURVE",
"185 675 OFFCURVE",
"218 694 CURVE SMOOTH",
"253 714 OFFCURVE",
"290 725 OFFCURVE",
"328 725 CURVE SMOOTH",
"367 725 OFFCURVE",
"404 714 OFFCURVE",
"439 694 CURVE SMOOTH",
"472 675 OFFCURVE",
"502 648 OFFCURVE",
"527 613 CURVE SMOOTH",
"578 543 OFFCURVE",
"607 451 OFFCURVE",
"607 352 CURVE SMOOTH",
"607 254 OFFCURVE",
"578 161 OFFCURVE",
"527 91 CURVE SMOOTH",
"502 57 OFFCURVE",
"472 30 OFFCURVE",
"439 10 CURVE SMOOTH",
"404 -10 OFFCURVE",
"367 -20 OFFCURVE",
"328 -20 CURVE SMOOTH"
);
},
{
closed = 1;
nodes = (
"266 685 OFFCURVE",
"207 651 OFFCURVE",
"162 590 CURVE SMOOTH",
"116 526 OFFCURVE",
"90 442 OFFCURVE",
"90 352 CURVE SMOOTH",
"90 262 OFFCURVE",
"116 178 OFFCURVE",
"162 115 CURVE SMOOTH",
"207 54 OFFCURVE",
"266 20 OFFCURVE",
"328 20 CURVE SMOOTH",
"391 20 OFFCURVE",
"450 54 OFFCURVE",
"495 115 CURVE SMOOTH",
"541 178 OFFCURVE",
"567 262 OFFCURVE",
"567 352 CURVE SMOOTH",
"567 442 OFFCURVE",
"541 526 OFFCURVE",
"495 590 CURVE SMOOTH",
"450 651 OFFCURVE",
"391 685 OFFCURVE",
"328 685 CURVE SMOOTH"
);
}
);
width = 657;
}
);
note = O;
unicode = 004F;
},
{
export = 0;
glyphname = Oacute;
lastChange = "2019-06-13 09:15:30 +0000";
layers = (
{
hints = (
{
horizontal = 1;
place = "{716, 30.5}";
type = Stem;
},
{
place = "{25, 575}";
type = Stem;
},
{
place = "{165, 294}";
type = Stem;
}
);
layerId = "B0A8294E-1052-4773-8338-C7458B103E7D";
paths = (
{
closed = 1;
nodes = (
"335 760 LINE SMOOTH",
"309 740 OFFCURVE",
"269 741 OFFCURVE",
"243 769 CURVE SMOOTH",
"219 796 OFFCURVE",
"222 838 OFFCURVE",
"250 862 CURVE SMOOTH",
"343 941 LINE SMOOTH",
"371 965 OFFCURVE",
"412 961 OFFCURVE",
"436 933 CURVE SMOOTH",
"458 908 OFFCURVE",
"458 866 OFFCURVE",
"428 840 CURVE SMOOTH"
);
},
{
closed = 1;
nodes = (
"153 -17 OFFCURVE",
"25 147 OFFCURVE",
"25 349 CURVE SMOOTH",
"25 551 OFFCURVE",
"153 716 OFFCURVE",
"312 716 CURVE SMOOTH",
"471 716 OFFCURVE",
"600 551 OFFCURVE",
"600 349 CURVE SMOOTH",
"600 148 OFFCURVE",
"472 -17 OFFCURVE",
"312 -17 CURVE SMOOTH"
);
},
{
closed = 1;
nodes = (
"233 575 OFFCURVE",
"165 473 OFFCURVE",
"165 349 CURVE SMOOTH",
"165 225 OFFCURVE",
"233 123 OFFCURVE",
"312 123 CURVE SMOOTH",
"392 123 OFFCURVE",
"459 224 OFFCURVE",
"459 349 CURVE SMOOTH",
"459 474 OFFCURVE",
"392 575 OFFCURVE",
"312 575 CURVE SMOOTH"
);
}
);
width = 625;
},
{
hints = (
{
horizontal = 1;
place = "{-18, 1004.38}";
type = Stem;
},
{
place = "{50, 555}";
type = Stem;
}
);
layerId = "05B5844F-1A6E-4D42-8559-CD9FEB58A40E";
paths = (
{
closed = 1;
nodes = (
"317 846 OFFCURVE",
"311 848 OFFCURVE",
"307 853 CURVE SMOOTH",
"300 861 OFFCURVE",
"301 874 OFFCURVE",
"309 881 CURVE SMOOTH",
"426 981 LINE SMOOTH",
"435 989 OFFCURVE",
"447 988 OFFCURVE",
"454 979 CURVE SMOOTH",
"462 971 OFFCURVE",
"461 958 OFFCURVE",
"452 951 CURVE SMOOTH",
"335 851 LINE SMOOTH",
"331 848 OFFCURVE",
"327 846 OFFCURVE",
"322 846 CURVE SMOOTH"
);
},
{
closed = 1;
nodes = (
"289 -18 OFFCURVE",
"252 -8 OFFCURVE",
"217 12 CURVE SMOOTH",
"184 31 OFFCURVE",
"154 59 OFFCURVE",
"129 93 CURVE SMOOTH",
"78 163 OFFCURVE",
"50 255 OFFCURVE",
"50 354 CURVE SMOOTH",
"50 452 OFFCURVE",
"78 544 OFFCURVE",
"129 614 CURVE SMOOTH",
"154 649 OFFCURVE",
"184 676 OFFCURVE",
"217 695 CURVE SMOOTH",
"252 715 OFFCURVE",
"289 725 OFFCURVE",
"328 725 CURVE SMOOTH",
"366 725 OFFCURVE",
"403 715 OFFCURVE",
"438 695 CURVE SMOOTH",
"471 676 OFFCURVE",
"501 649 OFFCURVE",
"526 614 CURVE SMOOTH",
"577 544 OFFCURVE",
"605 452 OFFCURVE",
"605 354 CURVE SMOOTH",
"605 255 OFFCURVE",
"577 163 OFFCURVE",
"526 93 CURVE SMOOTH",
"501 59 OFFCURVE",
"471 31 OFFCURVE",
"438 12 CURVE SMOOTH",
"403 -8 OFFCURVE",
"366 -18 OFFCURVE",
"328 -18 CURVE SMOOTH"
);
},
{
closed = 1;
nodes = (
"265 685 OFFCURVE",
"206 652 OFFCURVE",
"161 590 CURVE SMOOTH",
"115 527 OFFCURVE",
"90 443 OFFCURVE",
"90 354 CURVE SMOOTH",
"90 264 OFFCURVE",
"115 180 OFFCURVE",
"161 117 CURVE SMOOTH",
"206 56 OFFCURVE",
"265 22 OFFCURVE",
"328 22 CURVE SMOOTH",
"390 22 OFFCURVE",
"449 56 OFFCURVE",
"494 117 CURVE SMOOTH",
"540 180 OFFCURVE",
"565 264 OFFCURVE",
"565 354 CURVE SMOOTH",
"565 443 OFFCURVE",
"540 527 OFFCURVE",
"494 590 CURVE SMOOTH",
"449 652 OFFCURVE",
"390 685 OFFCURVE",
"328 685 CURVE SMOOTH"
);
}
);
width = 655;
}
);
note = Oacute;
unicode = 00D3;
},
{
export = 0;
glyphname = Ocircumflex;
lastChange = "2019-06-13 09:15:30 +0000";
layers = (
{
hints = (
{
horizontal = 1;
place = "{716, 20.13}";
type = Stem;
},
{
place = "{25, 575}";
type = Stem;
},
{
place = "{166, 294}";
type = Stem;
}
);
layerId = "B0A8294E-1052-4773-8338-C7458B103E7D";
paths = (
{
closed = 1;
nodes = (
"460 734 OFFCURVE",
"419 728 OFFCURVE",
"389 751 CURVE",
"313 820 LINE",
"239 753 LINE SMOOTH",
"212 728 OFFCURVE",
"171 731 OFFCURVE",
"147 759 CURVE SMOOTH",
"126 781 OFFCURVE",
"124 824 OFFCURVE",
"152 849 CURVE SMOOTH",
"270 954 LINE SMOOTH",
"294 977 OFFCURVE",
"332 977 OFFCURVE",
"356 954 CURVE SMOOTH",
"474 849 LINE SMOOTH",
"500 825 OFFCURVE",
"502 783 OFFCURVE",
"478 757 CURVE SMOOTH"
);
},
{
closed = 1;
nodes = (
"153 -17 OFFCURVE",
"25 147 OFFCURVE",
"25 349 CURVE SMOOTH",
"25 551 OFFCURVE",
"153 716 OFFCURVE",
"312 716 CURVE SMOOTH",
"471 716 OFFCURVE",
"600 551 OFFCURVE",
"600 349 CURVE SMOOTH",
"600 148 OFFCURVE",
"472 -17 OFFCURVE",
"312 -17 CURVE SMOOTH"
);
},
{
closed = 1;
nodes = (
"234 575 OFFCURVE",
"166 473 OFFCURVE",
"166 349 CURVE SMOOTH",
"166 225 OFFCURVE",
"234 123 OFFCURVE",
"313 123 CURVE SMOOTH",
"393 123 OFFCURVE",
"460 224 OFFCURVE",
"460 349 CURVE SMOOTH",
"460 474 OFFCURVE",
"393 575 OFFCURVE",
"313 575 CURVE SMOOTH"
);
}
);
width = 625;
},
{
hints = (
{
horizontal = 1;
place = "{-20, 1023.25}";
type = Stem;
},
{
place = "{50, 557}";
type = Stem;
}
);
layerId = "05B5844F-1A6E-4D42-8559-CD9FEB58A40E";
paths = (
{
closed = 1;
nodes = (
"468 836 OFFCURVE",
"463 838 OFFCURVE",
"460 841 CURVE SMOOTH",
"328 959 LINE",
"197 841 LINE SMOOTH",
"189 834 OFFCURVE",
"177 835 OFFCURVE",
"170 842 CURVE SMOOTH",
"163 850 OFFCURVE",
"164 862 OFFCURVE",
"171 869 CURVE SMOOTH",
"315 998 LINE SMOOTH",
"323 1005 OFFCURVE",
"334 1005 OFFCURVE",
"341 998 CURVE SMOOTH",
"485 869 LINE SMOOTH",
"493 862 OFFCURVE",
"493 850 OFFCURVE",
"486 842 CURVE SMOOTH",
"483 838 OFFCURVE",
"477 836 OFFCURVE",
"472 836 CURVE SMOOTH"
);
},
{
closed = 1;
nodes = (
"290 -20 OFFCURVE",
"253 -10 OFFCURVE",
"218 10 CURVE SMOOTH",
"185 30 OFFCURVE",
"155 57 OFFCURVE",
"130 91 CURVE SMOOTH",
"78 161 OFFCURVE",
"50 254 OFFCURVE",
"50 352 CURVE SMOOTH",
"50 451 OFFCURVE",
"78 543 OFFCURVE",
"130 613 CURVE SMOOTH",
"155 648 OFFCURVE",
"185 675 OFFCURVE",
"218 694 CURVE SMOOTH",
"253 714 OFFCURVE",
"290 725 OFFCURVE",
"328 725 CURVE SMOOTH",
"367 725 OFFCURVE",
"404 714 OFFCURVE",
"439 694 CURVE SMOOTH",
"472 675 OFFCURVE",
"502 648 OFFCURVE",
"527 613 CURVE SMOOTH",
"578 543 OFFCURVE",
"607 451 OFFCURVE",
"607 352 CURVE SMOOTH",
"607 254 OFFCURVE",
"578 161 OFFCURVE",
"527 91 CURVE SMOOTH",
"502 57 OFFCURVE",
"472 30 OFFCURVE",
"439 10 CURVE SMOOTH",
"404 -10 OFFCURVE",
"367 -20 OFFCURVE",
"328 -20 CURVE SMOOTH"
);
},
{
closed = 1;
nodes = (
"266 685 OFFCURVE",
"207 651 OFFCURVE",
"162 590 CURVE SMOOTH",
"116 526 OFFCURVE",
"90 442 OFFCURVE",
"90 352 CURVE SMOOTH",
"90 262 OFFCURVE",
"116 178 OFFCURVE",
"162 115 CURVE SMOOTH",
"207 54 OFFCURVE",
"266 20 OFFCURVE",
"328 20 CURVE SMOOTH",
"391 20 OFFCURVE",
"450 54 OFFCURVE",
"495 115 CURVE SMOOTH",
"541 178 OFFCURVE",
"567 262 OFFCURVE",
"567 352 CURVE SMOOTH",
"567 442 OFFCURVE",
"541 526 OFFCURVE",
"495 590 CURVE SMOOTH",
"450 651 OFFCURVE",
"391 685 OFFCURVE",
"328 685 CURVE SMOOTH"
);
}
);
width = 657;
}
);
note = Ocircumflex;
unicode = 00D4;
},
{
export = 0;
glyphname = Odieresis;
lastChange = "2019-06-13 09:15:30 +0000";
layers = (
{
hints = (
{
horizontal = 1;
place = "{716, 20}";
type = Stem;
},
{
place = "{301, 22}";
type = Stem;
},
{
place = "{166, 294}";
type = Stem;
}
);
layerId = "B0A8294E-1052-4773-8338-C7458B103E7D";
paths = (
{
closed = 1;
nodes = (
"194 736 OFFCURVE",
"164 766 OFFCURVE",
"164 804 CURVE SMOOTH",
"164 820 LINE SMOOTH",
"164 858 OFFCURVE",
"194 888 OFFCURVE",
"233 888 CURVE SMOOTH",
"271 888 OFFCURVE",
"301 858 OFFCURVE",
"301 820 CURVE SMOOTH",
"301 804 LINE SMOOTH",
"301 766 OFFCURVE",
"271 736 OFFCURVE",
"233 736 CURVE SMOOTH"
);
},
{
closed = 1;
nodes = (
"353 736 OFFCURVE",
"323 766 OFFCURVE",
"323 804 CURVE SMOOTH",
"323 820 LINE SMOOTH",
"323 858 OFFCURVE",
"353 888 OFFCURVE",
"391 888 CURVE SMOOTH",
"430 888 OFFCURVE",
"460 858 OFFCURVE",
"460 820 CURVE SMOOTH",
"460 804 LINE SMOOTH",
"460 766 OFFCURVE",
"430 736 OFFCURVE",
"391 736 CURVE SMOOTH"
);
},
{
closed = 1;
nodes = (
"153 -17 OFFCURVE",
"25 147 OFFCURVE",
"25 349 CURVE SMOOTH",
"25 551 OFFCURVE",
"153 716 OFFCURVE",
"312 716 CURVE SMOOTH",
"471 716 OFFCURVE",
"600 551 OFFCURVE",
"600 349 CURVE SMOOTH",
"600 148 OFFCURVE",
"472 -17 OFFCURVE",
"312 -17 CURVE SMOOTH"
);
},
{
closed = 1;
nodes = (
"234 575 OFFCURVE",
"166 473 OFFCURVE",
"166 349 CURVE SMOOTH",
"166 225 OFFCURVE",
"234 123 OFFCURVE",
"313 123 CURVE SMOOTH",
"393 123 OFFCURVE",
"460 224 OFFCURVE",
"460 349 CURVE SMOOTH",
"460 474 OFFCURVE",
"393 575 OFFCURVE",
"313 575 CURVE SMOOTH"
);
}
);
width = 625;
},
{
hints = (
{
horizontal = 1;
place = "{-20, 941}";
type = Stem;
},
{
place = "{256, 138}";
type = Stem;
}
);
layerId = "05B5844F-1A6E-4D42-8559-CD9FEB58A40E";
paths = (
{
closed = 1;
nodes = (
"227 865 OFFCURVE",
"218 873 OFFCURVE",
"218 884 CURVE SMOOTH",
"218 902 LINE SMOOTH",
"218 913 OFFCURVE",
"227 921 OFFCURVE",
"237 921 CURVE SMOOTH",
"248 921 OFFCURVE",
"256 913 OFFCURVE",
"256 902 CURVE SMOOTH",
"256 884 LINE SMOOTH",
"256 873 OFFCURVE",
"248 865 OFFCURVE",
"237 865 CURVE SMOOTH"
);
},
{
closed = 1;
nodes = (
"403 865 OFFCURVE",
"394 873 OFFCURVE",
"394 884 CURVE SMOOTH",
"394 902 LINE SMOOTH",
"394 913 OFFCURVE",
"403 921 OFFCURVE",
"413 921 CURVE SMOOTH",
"424 921 OFFCURVE",
"432 913 OFFCURVE",
"432 902 CURVE SMOOTH",
"432 884 LINE SMOOTH",
"432 873 OFFCURVE",
"424 865 OFFCURVE",
"413 865 CURVE SMOOTH"
);
},
{
closed = 1;
nodes = (
"290 -20 OFFCURVE",
"253 -10 OFFCURVE",
"218 10 CURVE SMOOTH",
"185 30 OFFCURVE",
"155 57 OFFCURVE",
"130 91 CURVE SMOOTH",
"78 161 OFFCURVE",
"50 254 OFFCURVE",
"50 352 CURVE SMOOTH",
"50 451 OFFCURVE",
"78 543 OFFCURVE",
"130 613 CURVE SMOOTH",
"155 648 OFFCURVE",
"185 675 OFFCURVE",
"218 694 CURVE SMOOTH",
"253 714 OFFCURVE",
"290 725 OFFCURVE",
"328 725 CURVE SMOOTH",
"367 725 OFFCURVE",
"404 714 OFFCURVE",
"439 694 CURVE SMOOTH",
"472 675 OFFCURVE",
"502 648 OFFCURVE",
"527 613 CURVE SMOOTH",
"578 543 OFFCURVE",
"607 451 OFFCURVE",
"607 352 CURVE SMOOTH",
"607 254 OFFCURVE",
"578 161 OFFCURVE",
"527 91 CURVE SMOOTH",
"502 57 OFFCURVE",
"472 30 OFFCURVE",
"439 10 CURVE SMOOTH",
"404 -10 OFFCURVE",
"367 -20 OFFCURVE",
"328 -20 CURVE SMOOTH"
);
},
{
closed = 1;
nodes = (
"266 685 OFFCURVE",
"207 651 OFFCURVE",
"162 590 CURVE SMOOTH",
"116 526 OFFCURVE",
"90 442 OFFCURVE",
"90 352 CURVE SMOOTH",
"90 262 OFFCURVE",
"116 178 OFFCURVE",
"162 115 CURVE SMOOTH",
"207 54 OFFCURVE",
"266 20 OFFCURVE",
"328 20 CURVE SMOOTH",
"391 20 OFFCURVE",
"450 54 OFFCURVE",
"495 115 CURVE SMOOTH",
"541 178 OFFCURVE",
"567 262 OFFCURVE",
"567 352 CURVE SMOOTH",
"567 442 OFFCURVE",
"541 526 OFFCURVE",
"495 590 CURVE SMOOTH",
"450 651 OFFCURVE",
"391 685 OFFCURVE",
"328 685 CURVE SMOOTH"
);
}
);
width = 657;
}
);
note = Odieresis;
unicode = 00D6;
},
{
export = 0;
glyphname = Ograve;
lastChange = "2019-06-13 09:15:30 +0000";
layers = (
{
hints = (
{
horizontal = 1;
place = "{716, 19.37}";
type = Stem;
},
{
place = "{25, 575}";
type = Stem;
},
{
place = "{166, 294}";
type = Stem;
}
);
layerId = "B0A8294E-1052-4773-8338-C7458B103E7D";
paths = (
{
closed = 1;
nodes = (
"311 731 OFFCURVE",
"272 727 OFFCURVE",
"243 750 CURVE SMOOTH",
"150 829 LINE SMOOTH",
"123 853 OFFCURVE",
"119 894 OFFCURVE",
"143 921 CURVE SMOOTH",
"166 949 OFFCURVE",
"208 953 OFFCURVE",
"235 929 CURVE SMOOTH",
"327 850 LINE SMOOTH",
"354 827 OFFCURVE",
"358 786 OFFCURVE",
"334 759 CURVE SMOOTH"
);
},
{
closed = 1;
nodes = (
"153 -17 OFFCURVE",
"25 147 OFFCURVE",
"25 349 CURVE SMOOTH",
"25 551 OFFCURVE",
"153 716 OFFCURVE",
"312 716 CURVE SMOOTH",
"471 716 OFFCURVE",
"600 551 OFFCURVE",
"600 349 CURVE SMOOTH",
"600 148 OFFCURVE",
"472 -17 OFFCURVE",
"312 -17 CURVE SMOOTH"
);
},
{
closed = 1;
nodes = (
"234 575 OFFCURVE",
"166 473 OFFCURVE",
"166 349 CURVE SMOOTH",
"166 225 OFFCURVE",
"234 123 OFFCURVE",
"313 123 CURVE SMOOTH",
"393 123 OFFCURVE",
"460 224 OFFCURVE",
"460 349 CURVE SMOOTH",
"460 474 OFFCURVE",
"393 575 OFFCURVE",
"313 575 CURVE SMOOTH"
);
}
);
width = 625;
},
{
hints = (
{
horizontal = 1;
place = "{-20, 1004.38}";
type = Stem;
},
{
place = "{50, 556}";
type = Stem;
}
);
layerId = "05B5844F-1A6E-4D42-8559-CD9FEB58A40E";
paths = (
{
closed = 1;
nodes = (
"324 844 OFFCURVE",
"319 846 OFFCURVE",
"315 849 CURVE SMOOTH",
"198 949 LINE SMOOTH",
"190 956 OFFCURVE",
"189 969 OFFCURVE",
"196 977 CURVE SMOOTH",
"203 986 OFFCURVE",
"216 987 OFFCURVE",
"224 979 CURVE SMOOTH",
"341 879 LINE SMOOTH",
"350 872 OFFCURVE",
"351 859 OFFCURVE",
"343 851 CURVE SMOOTH",
"339 846 OFFCURVE",
"334 844 OFFCURVE",
"328 844 CURVE SMOOTH"
);
},
{
closed = 1;
nodes = (
"290 -20 OFFCURVE",
"253 -10 OFFCURVE",
"218 10 CURVE SMOOTH",
"185 29 OFFCURVE",
"155 57 OFFCURVE",
"130 91 CURVE SMOOTH",
"79 161 OFFCURVE",
"50 253 OFFCURVE",
"50 352 CURVE SMOOTH",
"50 450 OFFCURVE",
"79 542 OFFCURVE",
"130 612 CURVE SMOOTH",
"155 647 OFFCURVE",
"185 674 OFFCURVE",
"218 693 CURVE SMOOTH",
"253 713 OFFCURVE",
"290 723 OFFCURVE",
"328 723 CURVE SMOOTH",
"367 723 OFFCURVE",
"404 713 OFFCURVE",
"439 693 CURVE SMOOTH",
"472 674 OFFCURVE",
"501 647 OFFCURVE",
"527 612 CURVE SMOOTH",
"578 542 OFFCURVE",
"606 450 OFFCURVE",
"606 352 CURVE SMOOTH",
"606 253 OFFCURVE",
"578 161 OFFCURVE",
"527 91 CURVE SMOOTH",
"501 57 OFFCURVE",
"472 29 OFFCURVE",
"439 10 CURVE SMOOTH",
"404 -10 OFFCURVE",
"367 -20 OFFCURVE",
"328 -20 CURVE SMOOTH"
);
},
{
closed = 1;
nodes = (
"266 683 OFFCURVE",
"207 650 OFFCURVE",
"162 588 CURVE SMOOTH",
"116 525 OFFCURVE",
"90 441 OFFCURVE",
"90 352 CURVE SMOOTH",
"90 262 OFFCURVE",
"116 178 OFFCURVE",
"162 115 CURVE SMOOTH",
"207 54 OFFCURVE",
"266 20 OFFCURVE",
"328 20 CURVE SMOOTH",
"390 20 OFFCURVE",
"449 54 OFFCURVE",
"494 115 CURVE SMOOTH",
"541 178 OFFCURVE",
"566 262 OFFCURVE",
"566 352 CURVE SMOOTH",
"566 441 OFFCURVE",
"541 525 OFFCURVE",
"494 588 CURVE SMOOTH",
"449 650 OFFCURVE",
"390 683 OFFCURVE",
"328 683 CURVE SMOOTH"
);
}
);
width = 656;
}
);
note = Ograve;
unicode = 00D2;
},
{
export = 0;
glyphname = Otilde;
lastChange = "2019-06-13 09:15:30 +0000";
layers = (
{
hints = (
{
horizontal = 1;
place = "{716, 25}";
type = Stem;
},
{
place = "{25, 575}";
type = Stem;
},
{
place = "{166, 294}";
type = Stem;
}
);
layerId = "B0A8294E-1052-4773-8338-C7458B103E7D";
paths = (
{
closed = 1;
nodes = (
"298 741 OFFCURVE",
"291 800 OFFCURVE",
"259 800 CURVE SMOOTH",
"231 800 OFFCURVE",
"214 724 OFFCURVE",
"141 752 CURVE SMOOTH",
"61 782 OFFCURVE",
"162 932 OFFCURVE",
"259 932 CURVE SMOOTH",
"337 932 OFFCURVE",
"342 873 OFFCURVE",
"379 873 CURVE SMOOTH",
"422 873 OFFCURVE",
"428 949 OFFCURVE",
"495 912 CURVE SMOOTH",
"566 872 OFFCURVE",
"473 741 OFFCURVE",
"379 741 CURVE SMOOTH"
);
},
{
closed = 1;
nodes = (
"153 -17 OFFCURVE",
"25 147 OFFCURVE",
"25 349 CURVE SMOOTH",
"25 551 OFFCURVE",
"153 716 OFFCURVE",
"312 716 CURVE SMOOTH",
"471 716 OFFCURVE",
"600 551 OFFCURVE",
"600 349 CURVE SMOOTH",
"600 148 OFFCURVE",
"472 -17 OFFCURVE",
"312 -17 CURVE SMOOTH"
);
},
{
closed = 1;
nodes = (
"234 575 OFFCURVE",
"166 473 OFFCURVE",
"166 349 CURVE SMOOTH",
"166 225 OFFCURVE",
"234 123 OFFCURVE",
"313 123 CURVE SMOOTH",
"393 123 OFFCURVE",
"460 224 OFFCURVE",
"460 349 CURVE SMOOTH",
"460 474 OFFCURVE",
"393 575 OFFCURVE",
"313 575 CURVE SMOOTH"
);
}
);
width = 625;
},
{
hints = (
{
horizontal = 1;
place = "{-21, 991.05}";
type = Stem;
},
{
place = "{50, 560}";
type = Stem;
}
);
layerId = "05B5844F-1A6E-4D42-8559-CD9FEB58A40E";
paths = (
{
closed = 1;
nodes = (
"364 872 OFFCURVE",
"331 884 OFFCURVE",
"304 906 CURVE SMOOTH",
"281 925 OFFCURVE",
"253 933 OFFCURVE",
"224 931 CURVE SMOOTH",
"195 928 OFFCURVE",
"169 914 OFFCURVE",
"150 891 CURVE SMOOTH",
"143 883 OFFCURVE",
"131 882 OFFCURVE",
"122 889 CURVE SMOOTH",
"114 896 OFFCURVE",
"113 908 OFFCURVE",
"120 917 CURVE SMOOTH",
"145 948 OFFCURVE",
"181 967 OFFCURVE",
"220 970 CURVE SMOOTH",
"260 974 OFFCURVE",
"299 962 OFFCURVE",
"329 937 CURVE SMOOTH",
"376 899 OFFCURVE",
"444 905 OFFCURVE",
"483 952 CURVE SMOOTH",
"490 960 OFFCURVE",
"502 961 OFFCURVE",
"511 954 CURVE SMOOTH",
"519 947 OFFCURVE",
"521 935 OFFCURVE",
"514 926 CURVE SMOOTH",
"488 896 OFFCURVE",
"452 877 OFFCURVE",
"413 873 CURVE SMOOTH",
"408 872 OFFCURVE",
"403 872 OFFCURVE",
"398 872 CURVE SMOOTH"
);
},
{
closed = 1;
nodes = (
"291 -21 OFFCURVE",
"254 -11 OFFCURVE",
"219 10 CURVE SMOOTH",
"185 29 OFFCURVE",
"155 56 OFFCURVE",
"130 91 CURVE SMOOTH",
"78 162 OFFCURVE",
"50 255 OFFCURVE",
"50 354 CURVE SMOOTH",
"50 453 OFFCURVE",
"78 546 OFFCURVE",
"130 617 CURVE SMOOTH",
"155 651 OFFCURVE",
"185 679 OFFCURVE",
"219 698 CURVE SMOOTH",
"254 718 OFFCURVE",
"291 729 OFFCURVE",
"330 729 CURVE SMOOTH",
"369 729 OFFCURVE",
"406 718 OFFCURVE",
"441 698 CURVE SMOOTH",
"475 679 OFFCURVE",
"505 651 OFFCURVE",
"530 617 CURVE SMOOTH",
"582 546 OFFCURVE",
"610 453 OFFCURVE",
"610 354 CURVE SMOOTH",
"610 255 OFFCURVE",
"582 162 OFFCURVE",
"530 91 CURVE SMOOTH",
"505 56 OFFCURVE",
"475 29 OFFCURVE",
"441 10 CURVE SMOOTH",
"406 -11 OFFCURVE",
"369 -21 OFFCURVE",
"330 -21 CURVE SMOOTH"
);
},
{
closed = 1;
nodes = (
"267 689 OFFCURVE",
"207 655 OFFCURVE",
"162 593 CURVE SMOOTH",
"116 529 OFFCURVE",
"90 444 OFFCURVE",
"90 354 CURVE SMOOTH",
"90 263 OFFCURVE",
"116 178 OFFCURVE",
"162 115 CURVE SMOOTH",
"207 53 OFFCURVE",
"267 19 OFFCURVE",
"330 19 CURVE SMOOTH",
"393 19 OFFCURVE",
"453 53 OFFCURVE",
"498 115 CURVE SMOOTH",
"544 178 OFFCURVE",
"570 263 OFFCURVE",
"570 354 CURVE SMOOTH",
"570 444 OFFCURVE",
"544 529 OFFCURVE",
"498 593 CURVE SMOOTH",
"453 655 OFFCURVE",
"393 689 OFFCURVE",
"330 689 CURVE SMOOTH"
);
}
);
width = 660;
}
);
note = Otilde;
unicode = 00D5;
},
{
export = 0;
glyphname = OE;
lastChange = "2019-06-13 09:15:30 +0000";
layers = (
{
hints = (
{
horizontal = 1;
place = "{-2, 137}";
type = Stem;
},
{
horizontal = 1;
place = "{294, 136}";
type = Stem;
},
{
horizontal = 1;
place = "{564, 136}";
type = Stem;
},
{
place = "{25, 137}";
type = Stem;
},
{
place = "{448, 137}";
type = Stem;
},
{
horizontal = 1;
place = "{-8, 138}";
type = Stem;
},
{
horizontal = 1;
place = "{571, 138}";
type = Stem;
}
);
layerId = "B0A8294E-1052-4773-8338-C7458B103E7D";
paths = (
{
closed = 1;
nodes = (
"585 135 LINE",
"585 294 LINE",
"767 294 LINE SMOOTH",
"805 294 OFFCURVE",
"835 324 OFFCURVE",
"835 362 CURVE SMOOTH",
"835 400 OFFCURVE",
"805 430 OFFCURVE",
"767 430 CURVE SMOOTH",
"585 430 LINE",
"585 564 LINE",
"854 564 LINE SMOOTH",
"891 564 OFFCURVE",
"922 595 OFFCURVE",
"922 632 CURVE SMOOTH",
"922 670 OFFCURVE",
"891 700 OFFCURVE",
"854 700 CURVE SMOOTH",
"517 700 LINE SMOOTH",
"486 700 OFFCURVE",
"462 681 OFFCURVE",
"453 655 CURVE",
"410 689 OFFCURVE",
"359 709 OFFCURVE",
"305 709 CURVE SMOOTH",
"149 709 OFFCURVE",
"25 548 OFFCURVE",
"25 351 CURVE SMOOTH",
"25 153 OFFCURVE",
"150 -8 OFFCURVE",
"305 -8 CURVE SMOOTH",
"359 -8 OFFCURVE",
"409 12 OFFCURVE",
"452 46 CURVE",
"461 18 OFFCURVE",
"486 -2 OFFCURVE",
"517 -2 CURVE SMOOTH",
"888 -2 LINE SMOOTH",
"927 -2 OFFCURVE",
"956 28 OFFCURVE",
"956 67 CURVE SMOOTH",
"956 104 OFFCURVE",
"927 135 OFFCURVE",
"888 135 CURVE SMOOTH"
);
},
{
closed = 1;
nodes = (
"228 130 OFFCURVE",
"162 229 OFFCURVE",
"162 351 CURVE SMOOTH",
"162 472 OFFCURVE",
"227 571 OFFCURVE",
"305 571 CURVE SMOOTH",
"382 571 OFFCURVE",
"448 472 OFFCURVE",
"448 351 CURVE SMOOTH",
"448 229 OFFCURVE",
"382 130 OFFCURVE",
"305 130 CURVE SMOOTH"
);
}
);
width = 981;
},
{
hints = (
{
horizontal = 1;
place = "{0, 38}";
type = Stem;
},
{
horizontal = 1;
place = "{346, 38}";
type = Stem;
},
{
horizontal = 1;
place = "{662, 38}";
type = Stem;
},
{
place = "{50, 38}";
type = Stem;
},
{
place = "{539, 38}";
type = Stem;
},
{
horizontal = 1;
place = "{666, 37}";
type = Stem;
}
);
layerId = "05B5844F-1A6E-4D42-8559-CD9FEB58A40E";
paths = (
{
closed = 1;
nodes = (
"577 38 LINE",
"577 346 LINE",
"851 346 LINE SMOOTH",
"862 346 OFFCURVE",
"870 354 OFFCURVE",
"870 365 CURVE SMOOTH",
"870 375 OFFCURVE",
"862 384 OFFCURVE",
"851 384 CURVE SMOOTH",
"577 384 LINE",
"577 662 LINE",
"955 662 LINE SMOOTH",
"965 662 OFFCURVE",
"974 671 OFFCURVE",
"974 681 CURVE SMOOTH",
"974 692 OFFCURVE",
"965 700 OFFCURVE",
"955 700 CURVE SMOOTH",
"561 700 LINE",
"561 700 OFFCURVE",
"560 700 OFFCURVE",
"560 700 CURVE",
"558 700 LINE SMOOTH",
"548 700 OFFCURVE",
"539 691 OFFCURVE",
"539 681 CURVE SMOOTH",
"539 534 LINE",
"529 557 OFFCURVE",
"516 578 OFFCURVE",
"502 598 CURVE SMOOTH",
"478 631 OFFCURVE",
"450 657 OFFCURVE",
"418 675 CURVE SMOOTH",
"385 694 OFFCURVE",
"350 703 OFFCURVE",
"313 703 CURVE SMOOTH",
"277 703 OFFCURVE",
"242 694 OFFCURVE",
"209 675 CURVE SMOOTH",
"177 657 OFFCURVE",
"149 631 OFFCURVE",
"125 598 CURVE SMOOTH",
"77 532 OFFCURVE",
"50 444 OFFCURVE",
"50 351 CURVE SMOOTH",
"50 258 OFFCURVE",
"77 170 OFFCURVE",
"125 104 CURVE SMOOTH",
"149 71 OFFCURVE",
"177 45 OFFCURVE",
"209 27 CURVE SMOOTH",
"242 8 OFFCURVE",
"277 -2 OFFCURVE",
"313 -2 CURVE SMOOTH",
"350 -2 OFFCURVE",
"385 8 OFFCURVE",
"418 27 CURVE SMOOTH",
"450 45 OFFCURVE",
"478 71 OFFCURVE",
"502 104 CURVE SMOOTH",
"516 124 OFFCURVE",
"529 145 OFFCURVE",
"539 168 CURVE",
"539 19 LINE SMOOTH",
"539 8 OFFCURVE",
"548 0 OFFCURVE",
"558 0 CURVE SMOOTH",
"993 0 LINE SMOOTH",
"1004 0 OFFCURVE",
"1012 8 OFFCURVE",
"1012 19 CURVE SMOOTH",
"1012 29 OFFCURVE",
"1004 38 OFFCURVE",
"993 38 CURVE SMOOTH"
);
},
{
closed = 1;
nodes = (
"429 68 OFFCURVE",
"373 36 OFFCURVE",
"313 36 CURVE SMOOTH",
"254 36 OFFCURVE",
"198 68 OFFCURVE",
"156 126 CURVE SMOOTH",
"112 186 OFFCURVE",
"88 266 OFFCURVE",
"88 351 CURVE SMOOTH",
"88 436 OFFCURVE",
"112 516 OFFCURVE",
"156 576 CURVE SMOOTH",
"198 634 OFFCURVE",
"254 666 OFFCURVE",
"313 666 CURVE SMOOTH",
"373 666 OFFCURVE",
"429 634 OFFCURVE",
"471 576 CURVE SMOOTH",
"515 516 OFFCURVE",
"539 436 OFFCURVE",
"539 351 CURVE SMOOTH",
"539 266 OFFCURVE",
"515 186 OFFCURVE",
"471 126 CURVE SMOOTH"
);
}
);
width = 1062;
}
);
note = OE;
unicode = 0152;
},
{
export = 0;
glyphname = P;
lastChange = "2019-06-13 09:15:30 +0000";
layers = (
{
hints = (
{
horizontal = 1;
place = "{268, 139}";
type = Stem;
},
{
horizontal = 1;
place = "{563, 137}";
type = Stem;
},
{
place = "{25, 137}";
type = Stem;
},
{
place = "{392, 136}";
type = Stem;
}
);
layerId = "B0A8294E-1052-4773-8338-C7458B103E7D";
paths = (
{
closed = 1;
nodes = (
"132 0 OFFCURVE",
"162 31 OFFCURVE",
"162 70 CURVE SMOOTH",
"162 268 LINE",
"313 268 LINE SMOOTH",
"429 268 OFFCURVE",
"528 366 OFFCURVE",
"528 484 CURVE SMOOTH",
"528 602 OFFCURVE",
"429 700 OFFCURVE",
"313 700 CURVE SMOOTH",
"93 700 LINE SMOOTH",
"54 700 OFFCURVE",
"25 671 OFFCURVE",
"25 632 CURVE SMOOTH",
"25 70 LINE SMOOTH",
"25 31 OFFCURVE",
"55 0 OFFCURVE",
"94 0 CURVE SMOOTH"
);
},
{
closed = 1;
nodes = (
"162 563 LINE",
"313 563 LINE SMOOTH",
"356 563 OFFCURVE",
"392 525 OFFCURVE",
"392 484 CURVE SMOOTH",
"392 443 OFFCURVE",
"356 407 OFFCURVE",
"313 407 CURVE SMOOTH",
"162 407 LINE"
);
}
);
width = 553;
},
{
hints = (
{
horizontal = 1;
place = "{313, 38}";
type = Stem;
},
{
horizontal = 1;
place = "{662, 38}";
type = Stem;
},
{
place = "{50, 39}";
type = Stem;
},
{
place = "{479, 38}";
type = Stem;
}
);
layerId = "05B5844F-1A6E-4D42-8559-CD9FEB58A40E";
paths = (
{
closed = 1;
nodes = (
"80 0 OFFCURVE",
"89 9 OFFCURVE",
"89 19 CURVE SMOOTH",
"89 313 LINE",
"333 313 LINE SMOOTH",
"435 318 OFFCURVE",
"517 403 OFFCURVE",
"517 507 CURVE SMOOTH",
"517 611 OFFCURVE",
"435 695 OFFCURVE",
"333 700 CURVE SMOOTH",
"69 700 LINE SMOOTH",
"59 700 OFFCURVE",
"50 692 OFFCURVE",
"50 681 CURVE SMOOTH",
"50 19 LINE SMOOTH",
"50 9 OFFCURVE",
"59 0 OFFCURVE",
"69 0 CURVE SMOOTH"
);
},
{
closed = 1;
nodes = (
"89 662 LINE",
"324 662 LINE SMOOTH",
"409 662 OFFCURVE",
"479 592 OFFCURVE",
"479 507 CURVE SMOOTH",
"479 421 OFFCURVE",
"409 351 OFFCURVE",
"324 351 CURVE SMOOTH",
"89 351 LINE"
);
}
);
width = 567;
}
);
note = P;
unicode = 0050;
},
{
export = 0;
glyphname = Q;
lastChange = "2019-06-13 09:15:30 +0000";
layers = (
{
hints = (
{
horizontal = 1;
place = "{-10, 168.5}";
type = Stem;
},
{
horizontal = 1;
place = "{576, 138}";
type = Stem;
},
{
place = "{25, 138}";
type = Stem;
},
{
place = "{460, 138}";
type = Stem;
},
{
horizontal = 1;
place = "{-10, 140}";
type = Stem;
}
);
layerId = "B0A8294E-1052-4773-8338-C7458B103E7D";
paths = (
{
closed = 1;
nodes = (
"580 211 OFFCURVE",
"598 279 OFFCURVE",
"598 353 CURVE SMOOTH",
"598 551 OFFCURVE",
"470 714 OFFCURVE",
"312 714 CURVE SMOOTH",
"153 714 OFFCURVE",
"25 551 OFFCURVE",
"25 353 CURVE SMOOTH",
"25 154 OFFCURVE",
"154 -10 OFFCURVE",
"312 -10 CURVE SMOOTH",
"364 -10 OFFCURVE",
"412 8 OFFCURVE",
"454 39 CURVE",
"456 38 OFFCURVE",
"457 37 OFFCURVE",
"458 36 CURVE SMOOTH",
"488 13 OFFCURVE",
"510 -10 OFFCURVE",
"544 -10 CURVE SMOOTH",
"588 -10 OFFCURVE",
"611 25 OFFCURVE",
"627 44 CURVE SMOOTH",
"678 110 OFFCURVE",
"612 179 OFFCURVE",
"550 153 CURVE"
);
},
{
closed = 1;
nodes = (
"232 130 OFFCURVE",
"163 231 OFFCURVE",
"163 353 CURVE SMOOTH",
"163 475 OFFCURVE",
"233 576 OFFCURVE",
"312 576 CURVE SMOOTH",
"394 576 OFFCURVE",
"460 480 OFFCURVE",
"460 353 CURVE SMOOTH",
"460 306 OFFCURVE",
"451 263 OFFCURVE",
"436 228 CURVE",
"379 274 LINE SMOOTH",
"346 300 OFFCURVE",
"304 298 OFFCURVE",
"281 269 CURVE SMOOTH",
"259 240 OFFCURVE",
"264 200 OFFCURVE",
"296 173 CURVE SMOOTH",
"341 134 LINE",
"332 131 OFFCURVE",
"322 130 OFFCURVE",
"312 130 CURVE SMOOTH"
);
}
);
width = 670;
},
{
hints = (
{
horizontal = 1;
place = "{7, 40}";
type = Stem;
},
{
horizontal = 1;
place = "{705, 40}";
type = Stem;
},
{
place = "{50, 40}";
type = Stem;
},
{
place = "{567, 40}";
type = Stem;
},
{
horizontal = 1;
place = "{0, 40}";
type = Stem;
}
);
layerId = "05B5844F-1A6E-4D42-8559-CD9FEB58A40E";
paths = (
{
closed = 1;
nodes = (
"641 73 OFFCURVE",
"628 72 OFFCURVE",
"621 64 CURVE SMOOTH",
"614 55 OFFCURVE",
"603 46 OFFCURVE",
"595 47 CURVE SMOOTH",
"588 47 OFFCURVE",
"580 54 OFFCURVE",
"573 60 CURVE SMOOTH",
"522 104 LINE",
"523 106 OFFCURVE",
"525 109 OFFCURVE",
"527 111 CURVE",
"578 181 OFFCURVE",
"607 274 OFFCURVE",
"607 372 CURVE SMOOTH",
"607 471 OFFCURVE",
"578 563 OFFCURVE",
"527 633 CURVE SMOOTH",
"502 668 OFFCURVE",
"472 695 OFFCURVE",
"439 714 CURVE SMOOTH",
"404 734 OFFCURVE",
"367 745 OFFCURVE",
"328 745 CURVE SMOOTH",
"290 745 OFFCURVE",
"253 734 OFFCURVE",
"218 714 CURVE SMOOTH",
"185 695 OFFCURVE",
"155 668 OFFCURVE",
"130 633 CURVE SMOOTH",
"78 563 OFFCURVE",
"50 471 OFFCURVE",
"50 372 CURVE SMOOTH",
"50 274 OFFCURVE",
"78 181 OFFCURVE",
"130 111 CURVE SMOOTH",
"155 77 OFFCURVE",
"185 50 OFFCURVE",
"218 30 CURVE SMOOTH",
"253 10 OFFCURVE",
"290 0 OFFCURVE",
"328 0 CURVE SMOOTH",
"367 0 OFFCURVE",
"404 10 OFFCURVE",
"439 30 CURVE SMOOTH",
"459 42 OFFCURVE",
"478 57 OFFCURVE",
"495 74 CURVE",
"547 29 LINE SMOOTH",
"556 22 OFFCURVE",
"571 9 OFFCURVE",
"590 7 CURVE SMOOTH",
"596 7 LINE SMOOTH",
"615 7 OFFCURVE",
"634 17 OFFCURVE",
"651 38 CURVE SMOOTH",
"658 46 OFFCURVE",
"657 59 OFFCURVE",
"649 66 CURVE SMOOTH"
);
},
{
closed = 1;
nodes = (
"266 40 OFFCURVE",
"207 74 OFFCURVE",
"162 135 CURVE SMOOTH",
"116 198 OFFCURVE",
"90 282 OFFCURVE",
"90 372 CURVE SMOOTH",
"90 462 OFFCURVE",
"116 546 OFFCURVE",
"162 610 CURVE SMOOTH",
"207 671 OFFCURVE",
"266 705 OFFCURVE",
"328 705 CURVE SMOOTH",
"391 705 OFFCURVE",
"450 671 OFFCURVE",
"495 610 CURVE SMOOTH",
"541 546 OFFCURVE",
"567 462 OFFCURVE",
"567 372 CURVE SMOOTH",
"567 282 OFFCURVE",
"541 198 OFFCURVE",
"495 135 CURVE SMOOTH",
"494 133 OFFCURVE",
"492 132 OFFCURVE",
"491 130 CURVE",
"370 233 LINE SMOOTH",
"361 240 OFFCURVE",
"349 239 OFFCURVE",
"342 230 CURVE SMOOTH",
"334 222 OFFCURVE",
"335 209 OFFCURVE",
"344 202 CURVE SMOOTH",
"464 100 LINE",
"425 61 OFFCURVE",
"377 40 OFFCURVE",
"328 40 CURVE SMOOTH"
);
}
);
width = 706;
}
);
note = Q;
unicode = 0051;
},
{
color = 4;
glyphname = R;
lastChange = "2019-06-13 09:00:57 +0000";
layers = (
{
hints = (
{
horizontal = 1;
place = "{302, 136}";
type = Stem;
},
{
horizontal = 1;
place = "{563, 137}";
type = Stem;
},
{
place = "{25, 137}";
type = Stem;
},
{
place = "{401, 136}";
type = Stem;
}
);
layerId = "B0A8294E-1052-4773-8338-C7458B103E7D";
paths = (
{
closed = 1;
nodes = (
"134 0 OFFCURVE",
"162 30 OFFCURVE",
"162 70 CURVE SMOOTH",
"162 302 LINE",
"284 302 LINE",
"413 39 LINE SMOOTH",
"430 4 OFFCURVE",
"467 -10 OFFCURVE",
"503 5 CURVE SMOOTH",
"538 21 OFFCURVE",
"552 62 OFFCURVE",
"535 99 CURVE SMOOTH",
"426 323 LINE",
"491 355 OFFCURVE",
"537 422 OFFCURVE",
"537 500 CURVE SMOOTH",
"537 611 OFFCURVE",
"447 700 OFFCURVE",
"339 700 CURVE SMOOTH",
"93 700 LINE SMOOTH",
"54 700 OFFCURVE",
"25 671 OFFCURVE",
"25 632 CURVE SMOOTH",
"25 70 LINE SMOOTH",
"25 30 OFFCURVE",
"56 0 OFFCURVE",
"94 0 CURVE SMOOTH"
);
},
{
closed = 1;
nodes = (
"162 563 LINE",
"339 563 LINE SMOOTH",
"372 563 OFFCURVE",
"401 534 OFFCURVE",
"401 500 CURVE SMOOTH",
"401 468 OFFCURVE",
"371 438 OFFCURVE",
"339 438 CURVE SMOOTH",
"162 438 LINE"
);
}
);
width = 567;
},
{
hints = (
{
horizontal = 1;
place = "{352, 38}";
type = Stem;
},
{
horizontal = 1;
place = "{662, 38}";
type = Stem;
},
{
place = "{50, 38}";
type = Stem;
},
{
place = "{492, 38}";
type = Stem;
}
);
layerId = "05B5844F-1A6E-4D42-8559-CD9FEB58A40E";
paths = (
{
closed = 1;
nodes = (
"80 0 OFFCURVE",
"88 9 OFFCURVE",
"88 19 CURVE SMOOTH",
"88 352 LINE",
"330 352 LINE",
"498 11 LINE SMOOTH",
"501 4 OFFCURVE",
"508 0 OFFCURVE",
"515 0 CURVE SMOOTH",
"525 0 OFFCURVE",
"539 12 OFFCURVE",
"532 27 CURVE SMOOTH",
"372 353 LINE",
"460 361 OFFCURVE",
"530 435 OFFCURVE",
"530 526 CURVE SMOOTH",
"530 620 OFFCURVE",
"451 700 OFFCURVE",
"363 700 CURVE SMOOTH",
"69 700 LINE SMOOTH",
"59 700 OFFCURVE",
"50 692 OFFCURVE",
"50 681 CURVE SMOOTH",
"50 19 LINE SMOOTH",
"50 9 OFFCURVE",
"59 0 OFFCURVE",
"69 0 CURVE SMOOTH"
);
},
{
closed = 1;
nodes = (
"88 662 LINE",
"356 662 LINE SMOOTH",
"431 662 OFFCURVE",
"492 601 OFFCURVE",
"492 526 CURVE SMOOTH",
"492 451 OFFCURVE",
"431 390 OFFCURVE",
"356 390 CURVE",
"88 390 LINE"
);
}
);
width = 584;
}
);
note = R;
unicode = 0052;
},
{
export = 0;
glyphname = S;
lastChange = "2019-06-13 09:15:33 +0000";
layers = (
{
hints = (
{
horizontal = 1;
place = "{0, 700}";
type = Stem;
},
{
place = "{25, 502}";
type = Stem;
}
);
layerId = "B0A8294E-1052-4773-8338-C7458B103E7D";
paths = (
{
closed = 1;
nodes = (
"176 0 OFFCURVE",
"79 59 OFFCURVE",
"38 152 CURVE SMOOTH",
"17 194 OFFCURVE",
"32 240 OFFCURVE",
"74 251 CURVE",
"104 263 OFFCURVE",
"135 249 OFFCURVE",
"152 220 CURVE SMOOTH",
"183 163 OFFCURVE",
"229 133 OFFCURVE",
"281 133 CURVE SMOOTH",
"350 133 OFFCURVE",
"394 163 OFFCURVE",
"394 206 CURVE SMOOTH",
"394 252 OFFCURVE",
"378 263 OFFCURVE",
"267 283 CURVE SMOOTH",
"175 300 OFFCURVE",
"25 326 OFFCURVE",
"25 488 CURVE SMOOTH",
"25 613 OFFCURVE",
"126 700 OFFCURVE",
"272 700 CURVE SMOOTH",
"368 700 OFFCURVE",
"444 645 OFFCURVE",
"487 548 CURVE SMOOTH",
"506 506 OFFCURVE",
"485 460 OFFCURVE",
"443 452 CURVE SMOOTH",
"413 445 OFFCURVE",
"386 458 OFFCURVE",
"367 489 CURVE SMOOTH",
"344 526 OFFCURVE",
"324 568 OFFCURVE",
"272 568 CURVE SMOOTH",
"200 568 OFFCURVE",
"158 536 OFFCURVE",
"158 488 CURVE SMOOTH",
"158 449 OFFCURVE",
"188 430 OFFCURVE",
"293 408 CURVE SMOOTH",
"380 393 OFFCURVE",
"527 371 OFFCURVE",
"527 206 CURVE SMOOTH",
"527 84 OFFCURVE",
"424 0 OFFCURVE",
"281 0 CURVE SMOOTH"
);
}
);
width = 552;
},
{
hints = (
{
horizontal = 1;
place = "{0, 700}";
type = Stem;
},
{
place = "{50, 468}";
type = Stem;
}
);
layerId = "05B5844F-1A6E-4D42-8559-CD9FEB58A40E";
paths = (
{
closed = 1;
nodes = (
"246 0 OFFCURVE",
"207 9 OFFCURVE",
"172 24 CURVE SMOOTH",
"144 37 OFFCURVE",
"120 54 OFFCURVE",
"98 78 CURVE SMOOTH",
"63 116 OFFCURVE",
"52 155 OFFCURVE",
"51 156 CURVE",
"50 166 OFFCURVE",
"54 177 OFFCURVE",
"64 180 CURVE SMOOTH",
"74 182 OFFCURVE",
"84 177 OFFCURVE",
"87 166 CURVE",
"87 166 OFFCURVE",
"97 133 OFFCURVE",
"127 100 CURVE SMOOTH",
"145 83 OFFCURVE",
"165 68 OFFCURVE",
"188 56 CURVE SMOOTH",
"218 43 OFFCURVE",
"252 37 OFFCURVE",
"290 37 CURVE SMOOTH",
"358 37 OFFCURVE",
"410 53 OFFCURVE",
"443 88 CURVE SMOOTH",
"478 123 OFFCURVE",
"482 166 OFFCURVE",
"482 184 CURVE SMOOTH",
"482 210 OFFCURVE",
"477 233 OFFCURVE",
"466 251 CURVE SMOOTH",
"456 265 OFFCURVE",
"442 279 OFFCURVE",
"424 290 CURVE SMOOTH",
"386 310 OFFCURVE",
"334 318 OFFCURVE",
"283 327 CURVE SMOOTH",
"229 335 OFFCURVE",
"172 344 OFFCURVE",
"128 369 CURVE SMOOTH",
"76 399 OFFCURVE",
"50 444 OFFCURVE",
"50 509 CURVE SMOOTH",
"50 553 OFFCURVE",
"69 598 OFFCURVE",
"100 633 CURVE SMOOTH",
"130 663 OFFCURVE",
"183 700 OFFCURVE",
"273 700 CURVE SMOOTH",
"359 700 OFFCURVE",
"410 658 OFFCURVE",
"438 622 CURVE SMOOTH",
"469 585 OFFCURVE",
"478 546 OFFCURVE",
"479 545 CURVE",
"481 536 OFFCURVE",
"476 526 OFFCURVE",
"466 522 CURVE",
"455 520 OFFCURVE",
"445 527 OFFCURVE",
"442 537 CURVE",
"442 538 OFFCURVE",
"435 569 OFFCURVE",
"408 601 CURVE SMOOTH",
"376 643 OFFCURVE",
"330 664 OFFCURVE",
"273 664 CURVE SMOOTH",
"212 664 OFFCURVE",
"162 645 OFFCURVE",
"128 608 CURVE SMOOTH",
"97 576 OFFCURVE",
"87 537 OFFCURVE",
"87 509 CURVE SMOOTH",
"87 481 OFFCURVE",
"92 459 OFFCURVE",
"103 440 CURVE SMOOTH",
"113 425 OFFCURVE",
"127 411 OFFCURVE",
"146 401 CURVE SMOOTH",
"185 379 OFFCURVE",
"237 371 OFFCURVE",
"289 363 CURVE SMOOTH",
"343 354 OFFCURVE",
"399 344 OFFCURVE",
"442 321 CURVE SMOOTH",
"493 292 OFFCURVE",
"518 248 OFFCURVE",
"518 184 CURVE SMOOTH",
"518 162 OFFCURVE",
"515 142 OFFCURVE",
"509 123 CURVE SMOOTH",
"500 100 OFFCURVE",
"487 80 OFFCURVE",
"471 63 CURVE SMOOTH",
"451 43 OFFCURVE",
"427 28 OFFCURVE",
"399 18 CURVE SMOOTH",
"368 6 OFFCURVE",
"331 0 OFFCURVE",
"290 0 CURVE SMOOTH"
);
}
);
width = 568;
}
);
note = S;
unicode = 0053;
},
{
color = 4;
glyphname = T;
lastChange = "2019-06-12 19:54:14 +0000";
layers = (
{
hints = (
{
horizontal = 1;
place = "{565, 135}";
type = Stem;
},
{
place = "{235, 135}";
type = Stem;
}
);
layerId = "B0A8294E-1052-4773-8338-C7458B103E7D";
paths = (
{
closed = 1;
nodes = (
"95 700 LINE SMOOTH",
"54 700 OFFCURVE",
"25 670 OFFCURVE",
"25 633 CURVE SMOOTH",
"25 595 OFFCURVE",
"54 565 OFFCURVE",
"95 565 CURVE SMOOTH",
"235 565 LINE",
"235 70 LINE SMOOTH",
"235 31 OFFCURVE",
"263 0 OFFCURVE",
"303 0 CURVE SMOOTH",
"340 0 OFFCURVE",
"370 31 OFFCURVE",
"370 70 CURVE SMOOTH",
"370 565 LINE",
"501 565 LINE SMOOTH",
"542 565 OFFCURVE",
"571 595 OFFCURVE",
"571 633 CURVE SMOOTH",
"571 670 OFFCURVE",
"542 700 OFFCURVE",
"501 700 CURVE SMOOTH"
);
}
);
width = 596;
},
{
hints = (
{
horizontal = 1;
place = "{662, 38}";
type = Stem;
},
{
place = "{295, 38}";
type = Stem;
}
);
layerId = "05B5844F-1A6E-4D42-8559-CD9FEB58A40E";
paths = (
{
closed = 1;
nodes = (
"69 700 LINE SMOOTH",
"58 700 OFFCURVE",
"50 692 OFFCURVE",
"50 681 CURVE SMOOTH",
"50 670 OFFCURVE",
"58 662 OFFCURVE",
"69 662 CURVE SMOOTH",
"295 662 LINE",
"295 19 LINE SMOOTH",
"295 9 OFFCURVE",
"303 0 OFFCURVE",
"314 0 CURVE SMOOTH",
"324 0 OFFCURVE",
"333 9 OFFCURVE",
"333 19 CURVE SMOOTH",
"333 662 LINE",
"551 662 LINE SMOOTH",
"561 662 OFFCURVE",
"570 670 OFFCURVE",
"570 681 CURVE SMOOTH",
"570 692 OFFCURVE",
"561 700 OFFCURVE",
"551 700 CURVE SMOOTH"
);
}
);
width = 620;
}
);
note = T;
unicode = 0054;
},
{
export = 0;
glyphname = U;
lastChange = "2019-06-13 09:15:37 +0000";
layers = (
{
hints = (
{
horizontal = 1;
place = "{-9, 138}";
type = Stem;
},
{
place = "{25, 137}";
type = Stem;
},
{
place = "{401, 136}";
type = Stem;
}
);
layerId = "B0A8294E-1052-4773-8338-C7458B103E7D";
paths = (
{
closed = 1;
nodes = (
"430 700 OFFCURVE",
"401 670 OFFCURVE",
"401 629 CURVE SMOOTH",
"401 237 LINE SMOOTH",
"401 174 OFFCURVE",
"351 129 OFFCURVE",
"281 129 CURVE SMOOTH",
"212 129 OFFCURVE",
"162 174 OFFCURVE",
"162 237 CURVE SMOOTH",
"162 629 LINE SMOOTH",
"162 670 OFFCURVE",
"133 700 OFFCURVE",
"94 700 CURVE SMOOTH",
"54 700 OFFCURVE",
"25 670 OFFCURVE",
"25 629 CURVE SMOOTH",
"25 237 LINE SMOOTH",
"25 92 OFFCURVE",
"132 -9 OFFCURVE",
"281 -9 CURVE SMOOTH",
"435 -9 OFFCURVE",
"537 89 OFFCURVE",
"537 237 CURVE SMOOTH",
"537 629 LINE SMOOTH",
"537 670 OFFCURVE",
"508 700 OFFCURVE",
"469 700 CURVE SMOOTH"
);
}
);
width = 562;
},
{
hints = (
{
horizontal = 1;
place = "{-5, 38}";
type = Stem;
},
{
place = "{50, 38}";
type = Stem;
},
{
place = "{488, 38}";
type = Stem;
}
);
layerId = "05B5844F-1A6E-4D42-8559-CD9FEB58A40E";
paths = (
{
closed = 1;
nodes = (
"497 700 OFFCURVE",
"488 691 OFFCURVE",
"488 681 CURVE SMOOTH",
"488 233 LINE SMOOTH",
"488 123 OFFCURVE",
"398 33 OFFCURVE",
"288 33 CURVE SMOOTH",
"178 33 OFFCURVE",
"88 123 OFFCURVE",
"88 233 CURVE SMOOTH",
"88 681 LINE SMOOTH",
"88 692 OFFCURVE",
"80 700 OFFCURVE",
"69 700 CURVE SMOOTH",
"58 700 OFFCURVE",
"50 692 OFFCURVE",
"50 681 CURVE SMOOTH",
"50 233 LINE SMOOTH",
"50 170 OFFCURVE",
"75 110 OFFCURVE",
"120 65 CURVE SMOOTH",
"165 20 OFFCURVE",
"224 -5 OFFCURVE",
"288 -5 CURVE SMOOTH",
"352 -5 OFFCURVE",
"411 20 OFFCURVE",
"456 65 CURVE SMOOTH",
"501 110 OFFCURVE",
"526 170 OFFCURVE",
"526 233 CURVE SMOOTH",
"526 681 LINE SMOOTH",
"526 691 OFFCURVE",
"518 700 OFFCURVE",
"507 700 CURVE SMOOTH"
);
}
);
width = 576;
}
);
note = U;
unicode = 0055;
},
{
export = 0;
glyphname = Uacute;
lastChange = "2019-06-13 09:15:37 +0000";
layers = (
{
hints = (
{
horizontal = 1;
place = "{-9, 138}";
type = Stem;
},
{
horizontal = 1;
place = "{741.25, 195.88}";
type = Stem;
},
{
place = "{25, 137}";
type = Stem;
},
{
place = "{234.62, 209.25}";
type = Stem;
},
{
place = "{401, 136}";
type = Stem;
}
);
layerId = "B0A8294E-1052-4773-8338-C7458B103E7D";
paths = (
{
closed = 1;
nodes = (
"422 828 LINE SMOOTH",
"448 851 OFFCURVE",
"452 890 OFFCURVE",
"429 916 CURVE SMOOTH",
"406 942 OFFCURVE",
"369 944 OFFCURVE",
"342 923 CURVE",
"256 848 LINE SMOOTH",
"230 826 OFFCURVE",
"227 788 OFFCURVE",
"250 762 CURVE SMOOTH",
"272 737 OFFCURVE",
"312 734 OFFCURVE",
"336 755 CURVE SMOOTH"
);
},
{
closed = 1;
nodes = (
"430 700 OFFCURVE",
"401 670 OFFCURVE",
"401 629 CURVE SMOOTH",
"401 237 LINE SMOOTH",
"401 174 OFFCURVE",
"351 129 OFFCURVE",
"281 129 CURVE SMOOTH",
"212 129 OFFCURVE",
"162 174 OFFCURVE",
"162 237 CURVE SMOOTH",
"162 629 LINE SMOOTH",
"162 670 OFFCURVE",
"133 700 OFFCURVE",
"94 700 CURVE SMOOTH",
"54 700 OFFCURVE",
"25 670 OFFCURVE",
"25 629 CURVE SMOOTH",
"25 237 LINE SMOOTH",
"25 92 OFFCURVE",
"132 -9 OFFCURVE",
"281 -9 CURVE SMOOTH",
"435 -9 OFFCURVE",
"537 89 OFFCURVE",
"537 237 CURVE SMOOTH",
"537 629 LINE SMOOTH",
"537 670 OFFCURVE",
"508 700 OFFCURVE",
"469 700 CURVE SMOOTH"
);
}
);
width = 562;
},
{
hints = (
{
horizontal = 1;
place = "{0, 38}";
type = Stem;
},
{
place = "{50, 37}";
type = Stem;
},
{
place = "{485, 38}";
type = Stem;
}
);
layerId = "05B5844F-1A6E-4D42-8559-CD9FEB58A40E";
paths = (
{
closed = 1;
nodes = (
"295 833 OFFCURVE",
"300 834 OFFCURVE",
"303 837 CURVE SMOOTH",
"413 932 LINE SMOOTH",
"421 938 OFFCURVE",
"422 950 OFFCURVE",
"415 958 CURVE SMOOTH",
"409 966 OFFCURVE",
"397 967 OFFCURVE",
"389 960 CURVE SMOOTH",
"279 866 LINE SMOOTH",
"271 859 OFFCURVE",
"270 847 OFFCURVE",
"277 839 CURVE SMOOTH",
"280 835 OFFCURVE",
"286 833 OFFCURVE",
"291 833 CURVE SMOOTH"
);
},
{
closed = 1;
nodes = (
"493 700 OFFCURVE",
"485 692 OFFCURVE",
"485 681 CURVE SMOOTH",
"485 236 LINE SMOOTH",
"485 127 OFFCURVE",
"396 38 OFFCURVE",
"286 38 CURVE SMOOTH",
"176 38 OFFCURVE",
"87 127 OFFCURVE",
"87 236 CURVE SMOOTH",
"87 682 LINE SMOOTH",
"87 692 OFFCURVE",
"79 700 OFFCURVE",
"68 700 CURVE SMOOTH",
"58 700 OFFCURVE",
"50 692 OFFCURVE",
"50 682 CURVE SMOOTH",
"50 236 LINE SMOOTH",
"50 173 OFFCURVE",
"74 114 OFFCURVE",
"119 69 CURVE SMOOTH",
"164 25 OFFCURVE",
"223 0 OFFCURVE",
"286 0 CURVE SMOOTH",
"349 0 OFFCURVE",
"409 25 OFFCURVE",
"453 69 CURVE SMOOTH",
"498 114 OFFCURVE",
"523 173 OFFCURVE",
"523 236 CURVE SMOOTH",
"523 681 LINE SMOOTH",
"523 692 OFFCURVE",
"514 700 OFFCURVE",
"504 700 CURVE SMOOTH"
);
}
);
width = 573;
}
);
note = Uacute;
unicode = 00DA;
},
{
export = 0;
glyphname = Ucircumflex;
lastChange = "2019-06-13 09:15:37 +0000";
layers = (
{
hints = (
{
horizontal = 1;
place = "{-9, 138}";
type = Stem;
},
{
horizontal = 1;
place = "{740.63, 227.87}";
type = Stem;
},
{
place = "{25, 137}";
type = Stem;
},
{
place = "{401, 136}";
type = Stem;
}
);
layerId = "B0A8294E-1052-4773-8338-C7458B103E7D";
paths = (
{
closed = 1;
nodes = (
"283 822 LINE",
"355 756 LINE SMOOTH",
"382 733 OFFCURVE",
"421 736 OFFCURVE",
"443 762 CURVE SMOOTH",
"466 787 OFFCURVE",
"464 827 OFFCURVE",
"438 850 CURVE SMOOTH",
"325 952 LINE SMOOTH",
"302 974 OFFCURVE",
"265 974 OFFCURVE",
"241 952 CURVE SMOOTH",
"128 850 LINE SMOOTH",
"102 828 OFFCURVE",
"100 788 OFFCURVE",
"123 762 CURVE SMOOTH",
"146 736 OFFCURVE",
"187 734 OFFCURVE",
"212 757 CURVE SMOOTH"
);
},
{
closed = 1;
nodes = (
"430 700 OFFCURVE",
"401 670 OFFCURVE",
"401 629 CURVE SMOOTH",
"401 237 LINE SMOOTH",
"401 174 OFFCURVE",
"351 129 OFFCURVE",
"281 129 CURVE SMOOTH",
"212 129 OFFCURVE",
"162 174 OFFCURVE",
"162 237 CURVE SMOOTH",
"162 629 LINE SMOOTH",
"162 670 OFFCURVE",
"133 700 OFFCURVE",
"94 700 CURVE SMOOTH",
"54 700 OFFCURVE",
"25 670 OFFCURVE",
"25 629 CURVE SMOOTH",
"25 237 LINE SMOOTH",
"25 92 OFFCURVE",
"132 -9 OFFCURVE",
"281 -9 CURVE SMOOTH",
"435 -9 OFFCURVE",
"537 89 OFFCURVE",
"537 237 CURVE SMOOTH",
"537 629 LINE SMOOTH",
"537 670 OFFCURVE",
"508 700 OFFCURVE",
"469 700 CURVE SMOOTH"
);
}
);
width = 562;
},
{
hints = (
{
horizontal = 1;
place = "{0, 37}";
type = Stem;
},
{
place = "{50, 37}";
type = Stem;
},
{
place = "{485, 37}";
type = Stem;
}
);
layerId = "05B5844F-1A6E-4D42-8559-CD9FEB58A40E";
paths = (
{
closed = 1;
nodes = (
"286 955 LINE",
"416 838 LINE SMOOTH",
"420 835 OFFCURVE",
"424 833 OFFCURVE",
"429 833 CURVE SMOOTH",
"434 833 OFFCURVE",
"439 835 OFFCURVE",
"443 840 CURVE SMOOTH",
"450 847 OFFCURVE",
"449 859 OFFCURVE",
"441 866 CURVE SMOOTH",
"299 994 LINE",
"291 1000 OFFCURVE",
"281 1000 OFFCURVE",
"274 994 CURVE SMOOTH",
"131 866 LINE SMOOTH",
"123 859 OFFCURVE",
"122 847 OFFCURVE",
"129 840 CURVE SMOOTH",
"136 832 OFFCURVE",
"148 831 OFFCURVE",
"156 838 CURVE SMOOTH"
);
},
{
closed = 1;
nodes = (
"493 700 OFFCURVE",
"485 691 OFFCURVE",
"485 681 CURVE SMOOTH",
"485 236 LINE SMOOTH",
"485 127 OFFCURVE",
"396 37 OFFCURVE",
"286 37 CURVE SMOOTH",
"176 37 OFFCURVE",
"87 127 OFFCURVE",
"87 236 CURVE SMOOTH",
"87 682 LINE SMOOTH",
"87 692 OFFCURVE",
"79 700 OFFCURVE",
"68 700 CURVE SMOOTH",
"58 700 OFFCURVE",
"50 692 OFFCURVE",
"50 682 CURVE SMOOTH",
"50 235 LINE SMOOTH",
"50 172 OFFCURVE",
"74 114 OFFCURVE",
"119 69 CURVE SMOOTH",
"164 25 OFFCURVE",
"223 0 OFFCURVE",
"286 0 CURVE SMOOTH",
"349 0 OFFCURVE",
"409 25 OFFCURVE",
"453 69 CURVE SMOOTH",
"498 114 OFFCURVE",
"522 173 OFFCURVE",
"522 236 CURVE SMOOTH",
"522 681 LINE SMOOTH",
"522 691 OFFCURVE",
"514 700 OFFCURVE",
"504 700 CURVE SMOOTH"
);
}
);
width = 572;
}
);
note = Ucircumflex;
unicode = 00DB;
},
{
export = 0;
glyphname = Udieresis;
lastChange = "2019-06-13 09:15:37 +0000";
layers = (
{
hints = (
{
horizontal = 1;
place = "{-9, 138}";
type = Stem;
},
{
horizontal = 1;
place = "{736, 152}";
type = Stem;
},
{
place = "{135, 137}";
type = Stem;
},
{
place = "{401, 136}";
type = Stem;
},
{
place = "{25, 137}";
type = Stem;
},
{
place = "{294, 137}";
type = Stem;
}
);
layerId = "B0A8294E-1052-4773-8338-C7458B103E7D";
paths = (
{
closed = 1;
nodes = (
"242 736 OFFCURVE",
"272 766 OFFCURVE",
"272 804 CURVE SMOOTH",
"272 820 LINE SMOOTH",
"272 858 OFFCURVE",
"242 888 OFFCURVE",
"204 888 CURVE SMOOTH",
"165 888 OFFCURVE",
"135 858 OFFCURVE",
"135 820 CURVE SMOOTH",
"135 804 LINE SMOOTH",
"135 766 OFFCURVE",
"165 736 OFFCURVE",
"204 736 CURVE SMOOTH"
);
},
{
closed = 1;
nodes = (
"401 736 OFFCURVE",
"431 766 OFFCURVE",
"431 804 CURVE SMOOTH",
"431 820 LINE SMOOTH",
"431 858 OFFCURVE",
"401 888 OFFCURVE",
"362 888 CURVE SMOOTH",
"324 888 OFFCURVE",
"294 858 OFFCURVE",
"294 820 CURVE SMOOTH",
"294 804 LINE SMOOTH",
"294 766 OFFCURVE",
"324 736 OFFCURVE",
"362 736 CURVE SMOOTH"
);
},
{
closed = 1;
nodes = (
"430 700 OFFCURVE",
"401 670 OFFCURVE",
"401 629 CURVE SMOOTH",
"401 237 LINE SMOOTH",
"401 174 OFFCURVE",
"351 129 OFFCURVE",
"281 129 CURVE SMOOTH",
"212 129 OFFCURVE",
"162 174 OFFCURVE",
"162 237 CURVE SMOOTH",
"162 629 LINE SMOOTH",
"162 670 OFFCURVE",
"133 700 OFFCURVE",
"94 700 CURVE SMOOTH",
"54 700 OFFCURVE",
"25 670 OFFCURVE",
"25 629 CURVE SMOOTH",
"25 237 LINE SMOOTH",
"25 92 OFFCURVE",
"132 -9 OFFCURVE",
"281 -9 CURVE SMOOTH",
"435 -9 OFFCURVE",
"537 89 OFFCURVE",
"537 237 CURVE SMOOTH",
"537 629 LINE SMOOTH",
"537 670 OFFCURVE",
"508 700 OFFCURVE",
"469 700 CURVE SMOOTH"
);
}
);
width = 562;
},
{
hints = (
{
horizontal = 1;
place = "{0, 37}";
type = Stem;
},
{
horizontal = 1;
place = "{836, 37}";
type = Stem;
},
{
place = "{50, 37}";
type = Stem;
},
{
place = "{181, 38}";
type = Stem;
},
{
place = "{354, 37}";
type = Stem;
},
{
place = "{485, 38}";
type = Stem;
}
);
layerId = "05B5844F-1A6E-4D42-8559-CD9FEB58A40E";
paths = (
{
closed = 1;
nodes = (
"210 836 OFFCURVE",
"219 844 OFFCURVE",
"219 855 CURVE SMOOTH",
"219 873 LINE SMOOTH",
"219 883 OFFCURVE",
"210 892 OFFCURVE",
"200 892 CURVE SMOOTH",
"190 892 OFFCURVE",
"181 883 OFFCURVE",
"181 873 CURVE SMOOTH",
"181 855 LINE SMOOTH",
"181 844 OFFCURVE",
"190 836 OFFCURVE",
"200 836 CURVE SMOOTH"
);
},
{
closed = 1;
nodes = (
"383 836 OFFCURVE",
"391 844 OFFCURVE",
"391 855 CURVE SMOOTH",
"391 873 LINE SMOOTH",
"391 883 OFFCURVE",
"383 892 OFFCURVE",
"372 892 CURVE SMOOTH",
"362 892 OFFCURVE",
"354 883 OFFCURVE",
"354 873 CURVE SMOOTH",
"354 855 LINE SMOOTH",
"354 844 OFFCURVE",
"362 836 OFFCURVE",
"372 836 CURVE SMOOTH"
);
},
{
closed = 1;
nodes = (
"494 700 OFFCURVE",
"485 692 OFFCURVE",
"485 681 CURVE SMOOTH",
"485 236 LINE SMOOTH",
"485 127 OFFCURVE",
"396 37 OFFCURVE",
"286 37 CURVE SMOOTH",
"176 37 OFFCURVE",
"87 127 OFFCURVE",
"87 236 CURVE SMOOTH",
"87 682 LINE SMOOTH",
"87 692 OFFCURVE",
"79 700 OFFCURVE",
"68 700 CURVE SMOOTH",
"58 700 OFFCURVE",
"50 692 OFFCURVE",
"50 682 CURVE SMOOTH",
"50 218 LINE SMOOTH",
"50 216 OFFCURVE",
"50 213 OFFCURVE",
"51 211 CURVE",
"57 158 OFFCURVE",
"80 108 OFFCURVE",
"119 69 CURVE SMOOTH",
"164 25 OFFCURVE",
"223 0 OFFCURVE",
"286 0 CURVE SMOOTH",
"349 0 OFFCURVE",
"409 25 OFFCURVE",
"453 69 CURVE SMOOTH",
"492 108 OFFCURVE",
"516 158 OFFCURVE",
"522 212 CURVE",
"523 214 OFFCURVE",
"523 216 OFFCURVE",
"523 218 CURVE SMOOTH",
"523 681 LINE SMOOTH",
"523 692 OFFCURVE",
"514 700 OFFCURVE",
"504 700 CURVE SMOOTH"
);
}
);
width = 573;
}
);
note = Udieresis;
unicode = 00DC;
},
{
export = 0;
glyphname = Ugrave;
lastChange = "2019-06-13 09:15:37 +0000";
layers = (
{
hints = (
{
horizontal = 1;
place = "{-9, 138}";
type = Stem;
},
{
horizontal = 1;
place = "{735.37, 209.13}";
type = Stem;
},
{
place = "{121.37, 222.25}";
type = Stem;
},
{
place = "{401, 136}";
type = Stem;
},
{
place = "{25, 137}";
type = Stem;
}
);
layerId = "B0A8294E-1052-4773-8338-C7458B103E7D";
paths = (
{
closed = 1;
nodes = (
"237 750 LINE SMOOTH",
"266 727 OFFCURVE",
"305 731 OFFCURVE",
"328 759 CURVE SMOOTH",
"352 786 OFFCURVE",
"348 827 OFFCURVE",
"321 850 CURVE SMOOTH",
"229 929 LINE SMOOTH",
"202 953 OFFCURVE",
"160 949 OFFCURVE",
"137 921 CURVE SMOOTH",
"113 894 OFFCURVE",
"117 853 OFFCURVE",
"144 829 CURVE SMOOTH"
);
},
{
closed = 1;
nodes = (
"430 700 OFFCURVE",
"401 670 OFFCURVE",
"401 629 CURVE SMOOTH",
"401 237 LINE SMOOTH",
"401 174 OFFCURVE",
"351 129 OFFCURVE",
"281 129 CURVE SMOOTH",
"212 129 OFFCURVE",
"162 174 OFFCURVE",
"162 237 CURVE SMOOTH",
"162 629 LINE SMOOTH",
"162 670 OFFCURVE",
"133 700 OFFCURVE",
"94 700 CURVE SMOOTH",
"54 700 OFFCURVE",
"25 670 OFFCURVE",
"25 629 CURVE SMOOTH",
"25 237 LINE SMOOTH",
"25 92 OFFCURVE",
"132 -9 OFFCURVE",
"281 -9 CURVE SMOOTH",
"435 -9 OFFCURVE",
"537 89 OFFCURVE",
"537 237 CURVE SMOOTH",
"537 629 LINE SMOOTH",
"537 670 OFFCURVE",
"508 700 OFFCURVE",
"469 700 CURVE SMOOTH"
);
}
);
width = 562;
},
{
hints = (
{
horizontal = 1;
place = "{0, 38}";
type = Stem;
},
{
place = "{50, 37}";
type = Stem;
},
{
place = "{485, 38}";
type = Stem;
}
);
layerId = "05B5844F-1A6E-4D42-8559-CD9FEB58A40E";
paths = (
{
closed = 1;
nodes = (
"274 890 LINE SMOOTH",
"277 887 OFFCURVE",
"282 885 OFFCURVE",
"287 885 CURVE SMOOTH",
"292 885 OFFCURVE",
"298 887 OFFCURVE",
"302 892 CURVE SMOOTH",
"309 900 OFFCURVE",
"308 913 OFFCURVE",
"300 920 CURVE SMOOTH",
"183 1020 LINE SMOOTH",
"174 1028 OFFCURVE",
"162 1027 OFFCURVE",
"154 1018 CURVE SMOOTH",
"147 1010 OFFCURVE",
"148 997 OFFCURVE",
"157 990 CURVE SMOOTH"
);
},
{
closed = 1;
nodes = (
"493 700 OFFCURVE",
"485 692 OFFCURVE",
"485 681 CURVE SMOOTH",
"485 236 LINE SMOOTH",
"485 127 OFFCURVE",
"396 38 OFFCURVE",
"286 38 CURVE SMOOTH",
"176 38 OFFCURVE",
"87 127 OFFCURVE",
"87 236 CURVE SMOOTH",
"87 682 LINE SMOOTH",
"87 692 OFFCURVE",
"79 700 OFFCURVE",
"68 700 CURVE SMOOTH",
"58 700 OFFCURVE",
"50 692 OFFCURVE",
"50 682 CURVE SMOOTH",
"50 236 LINE SMOOTH",
"50 173 OFFCURVE",
"74 114 OFFCURVE",
"119 69 CURVE SMOOTH",
"164 25 OFFCURVE",
"223 0 OFFCURVE",
"286 0 CURVE SMOOTH",
"349 0 OFFCURVE",
"409 25 OFFCURVE",
"453 69 CURVE SMOOTH",
"498 114 OFFCURVE",
"523 173 OFFCURVE",
"523 236 CURVE SMOOTH",
"523 681 LINE SMOOTH",
"523 692 OFFCURVE",
"514 700 OFFCURVE",
"504 700 CURVE SMOOTH"
);
}
);
width = 573;
}
);
note = Ugrave;
unicode = 00D9;
},
{
export = 0;
glyphname = Umacron;
lastChange = "2019-06-13 09:15:37 +0000";
layers = (
{
hints = (
{
horizontal = 1;
place = "{-9, 138}";
type = Stem;
},
{
place = "{25, 137}";
type = Stem;
},
{
place = "{401, 136}";
type = Stem;
}
);
layerId = "B0A8294E-1052-4773-8338-C7458B103E7D";
paths = (
{
closed = 1;
nodes = (
"219 721 LINE SMOOTH",
"186 721 OFFCURVE",
"150 750 OFFCURVE",
"150 789 CURVE SMOOTH",
"150 827 OFFCURVE",
"181 857 OFFCURVE",
"219 857 CURVE SMOOTH",
"344 857 LINE SMOOTH",
"382 857 OFFCURVE",
"412 827 OFFCURVE",
"412 789 CURVE SMOOTH",
"412 752 OFFCURVE",
"382 721 OFFCURVE",
"344 721 CURVE SMOOTH"
);
},
{
closed = 1;
nodes = (
"430 700 OFFCURVE",
"401 670 OFFCURVE",
"401 629 CURVE SMOOTH",
"401 237 LINE SMOOTH",
"401 174 OFFCURVE",
"351 129 OFFCURVE",
"281 129 CURVE SMOOTH",
"212 129 OFFCURVE",
"162 174 OFFCURVE",
"162 237 CURVE SMOOTH",
"162 629 LINE SMOOTH",
"162 670 OFFCURVE",
"133 700 OFFCURVE",
"94 700 CURVE SMOOTH",
"54 700 OFFCURVE",
"25 670 OFFCURVE",
"25 629 CURVE SMOOTH",
"25 237 LINE SMOOTH",
"25 92 OFFCURVE",
"132 -9 OFFCURVE",
"281 -9 CURVE SMOOTH",
"435 -9 OFFCURVE",
"537 89 OFFCURVE",
"537 237 CURVE SMOOTH",
"537 629 LINE SMOOTH",
"537 670 OFFCURVE",
"508 700 OFFCURVE",
"469 700 CURVE SMOOTH"
);
}
);
width = 562;
},
{
hints = (
{
horizontal = 1;
place = "{0, 38}";
type = Stem;
},
{
horizontal = 1;
place = "{800, 40}";
type = Stem;
},
{
place = "{50, 37}";
type = Stem;
},
{
place = "{485, 38}";
type = Stem;
}
);
layerId = "05B5844F-1A6E-4D42-8559-CD9FEB58A40E";
paths = (
{
closed = 1;
nodes = (
"411 800 LINE SMOOTH",
"422 800 OFFCURVE",
"431 809 OFFCURVE",
"431 820 CURVE SMOOTH",
"431 831 OFFCURVE",
"422 840 OFFCURVE",
"411 840 CURVE SMOOTH",
"164 840 LINE SMOOTH",
"153 840 OFFCURVE",
"144 831 OFFCURVE",
"144 820 CURVE SMOOTH",
"144 809 OFFCURVE",
"153 800 OFFCURVE",
"164 800 CURVE SMOOTH"
);
},
{
closed = 1;
nodes = (
"493 700 OFFCURVE",
"485 692 OFFCURVE",
"485 681 CURVE SMOOTH",
"485 236 LINE SMOOTH",
"485 127 OFFCURVE",
"396 38 OFFCURVE",
"286 38 CURVE SMOOTH",
"176 38 OFFCURVE",
"87 127 OFFCURVE",
"87 236 CURVE SMOOTH",
"87 682 LINE SMOOTH",
"87 692 OFFCURVE",
"79 700 OFFCURVE",
"68 700 CURVE SMOOTH",
"58 700 OFFCURVE",
"50 692 OFFCURVE",
"50 682 CURVE SMOOTH",
"50 236 LINE SMOOTH",
"50 173 OFFCURVE",
"74 114 OFFCURVE",
"119 69 CURVE SMOOTH",
"164 25 OFFCURVE",
"223 0 OFFCURVE",
"286 0 CURVE SMOOTH",
"349 0 OFFCURVE",
"409 25 OFFCURVE",
"453 69 CURVE SMOOTH",
"498 114 OFFCURVE",
"523 173 OFFCURVE",
"523 236 CURVE SMOOTH",
"523 681 LINE SMOOTH",
"523 692 OFFCURVE",
"514 700 OFFCURVE",
"504 700 CURVE SMOOTH"
);
}
);
width = 573;
}
);
note = Umacron;
unicode = 016A;
},
{
export = 0;
glyphname = V;
lastChange = "2019-06-13 09:15:37 +0000";
layers = (
{
hints = (
{
horizontal = 1;
place = "{0, 700.15}";
type = Stem;
},
{
place = "{24.96, 542.72}";
type = Stem;
}
);
layerId = "B0A8294E-1052-4773-8338-C7458B103E7D";
paths = (
{
closed = 1;
nodes = (
"296 263 LINE",
"433 654 LINE SMOOTH",
"446 691 OFFCURVE",
"482 708 OFFCURVE",
"521 697 CURVE SMOOTH",
"559 685 OFFCURVE",
"577 645 OFFCURVE",
"563 606 CURVE SMOOTH",
"361 42 LINE",
"361 40 LINE",
"350 16 OFFCURVE",
"324 0 OFFCURVE",
"296 0 CURVE SMOOTH",
"268 0 OFFCURVE",
"243 15 OFFCURVE",
"231 39 CURVE SMOOTH",
"230 42 LINE",
"30 608 LINE SMOOTH",
"16 645 OFFCURVE",
"32 684 OFFCURVE",
"68 696 CURVE SMOOTH",
"103 709 OFFCURVE",
"139 691 OFFCURVE",
"153 655 CURVE SMOOTH"
);
}
);
width = 593;
},
{
hints = (
{
horizontal = 1;
place = "{0, 697.96}";
type = Stem;
},
{
place = "{49.62, 526.75}";
type = Stem;
}
);
layerId = "05B5844F-1A6E-4D42-8559-CD9FEB58A40E";
paths = (
{
closed = 1;
nodes = (
"324 12 LINE SMOOTH",
"321 5 OFFCURVE",
"313 0 OFFCURVE",
"306 0 CURVE SMOOTH",
"298 0 OFFCURVE",
"290 5 OFFCURVE",
"288 13 CURVE",
"51 672 LINE SMOOTH",
"47 682 OFFCURVE",
"52 693 OFFCURVE",
"62 696 CURVE SMOOTH",
"72 700 OFFCURVE",
"83 695 OFFCURVE",
"87 685 CURVE SMOOTH",
"306 74 LINE",
"539 686 LINE SMOOTH",
"543 696 OFFCURVE",
"554 700 OFFCURVE",
"564 697 CURVE SMOOTH",
"574 693 OFFCURVE",
"579 682 OFFCURVE",
"575 672 CURVE SMOOTH"
);
}
);
width = 626;
}
);
note = V;
unicode = 0056;
},
{
export = 0;
glyphname = W;
lastChange = "2019-06-13 09:15:37 +0000";
layers = (
{
hints = (
{
horizontal = 1;
place = "{0, 699.35}";
type = Stem;
},
{
place = "{25.6, 746.3}";
type = Stem;
}
);
layerId = "B0A8294E-1052-4773-8338-C7458B103E7D";
paths = (
{
closed = 1;
nodes = (
"555 328 LINE",
"465 650 LINE SMOOTH",
"458 679 OFFCURVE",
"434 699 OFFCURVE",
"406 699 CURVE SMOOTH",
"391 699 LINE SMOOTH",
"364 699 OFFCURVE",
"340 679 OFFCURVE",
"332 650 CURVE SMOOTH",
"243 328 LINE",
"158 649 LINE SMOOTH",
"137 732 OFFCURVE",
"1 709 OFFCURVE",
"29 607 CURVE SMOOTH",
"172 51 LINE SMOOTH",
"181 20 OFFCURVE",
"207 0 OFFCURVE",
"237 0 CURVE SMOOTH",
"240 0 LINE SMOOTH",
"269 0 OFFCURVE",
"296 20 OFFCURVE",
"305 49 CURVE SMOOTH",
"399 378 LINE",
"493 49 LINE SMOOTH",
"501 20 OFFCURVE",
"528 0 OFFCURVE",
"558 0 CURVE SMOOTH",
"561 0 LINE SMOOTH",
"591 0 OFFCURVE",
"617 20 OFFCURVE",
"625 50 CURVE SMOOTH",
"769 608 LINE SMOOTH",
"794 702 OFFCURVE",
"662 736 OFFCURVE",
"639 649 CURVE SMOOTH"
);
}
);
width = 797;
},
{
hints = (
{
horizontal = 1;
place = "{0, 699.65}";
type = Stem;
},
{
place = "{50.21, 765.27}";
type = Stem;
}
);
layerId = "05B5844F-1A6E-4D42-8559-CD9FEB58A40E";
paths = (
{
closed = 1;
nodes = (
"791 700 OFFCURVE",
"781 693 OFFCURVE",
"778 683 CURVE SMOOTH",
"625 91 LINE",
"454 686 LINE SMOOTH",
"451 696 OFFCURVE",
"440 702 OFFCURVE",
"430 699 CURVE",
"424 696 LINE SMOOTH",
"420 694 OFFCURVE",
"417 690 OFFCURVE",
"416 685 CURVE SMOOTH",
"265 91 LINE",
"87 686 LINE SMOOTH",
"84 696 OFFCURVE",
"74 702 OFFCURVE",
"64 699 CURVE SMOOTH",
"53 696 OFFCURVE",
"48 685 OFFCURVE",
"51 675 CURVE SMOOTH",
"248 14 LINE SMOOTH",
"250 6 OFFCURVE",
"258 0 OFFCURVE",
"267 0 CURVE SMOOTH",
"275 0 OFFCURVE",
"283 6 OFFCURVE",
"285 14 CURVE SMOOTH",
"436 609 LINE",
"607 14 LINE SMOOTH",
"610 6 OFFCURVE",
"618 0 OFFCURVE",
"626 0 CURVE SMOOTH",
"635 0 OFFCURVE",
"642 6 OFFCURVE",
"644 14 CURVE SMOOTH",
"815 674 LINE SMOOTH",
"818 684 OFFCURVE",
"811 694 OFFCURVE",
"801 697 CURVE SMOOTH"
);
}
);
width = 866;
}
);
note = W;
unicode = 0057;
},
{
export = 0;
glyphname = X;
lastChange = "2019-06-13 09:15:37 +0000";
layers = (
{
hints = (
{
horizontal = 1;
place = "{-1.42, 702.91}";
type = Stem;
},
{
place = "{25, 533.03}";
type = Stem;
}
);
layerId = "B0A8294E-1052-4773-8338-C7458B103E7D";
paths = (
{
closed = 1;
nodes = (
"375 351 LINE",
"544 592 LINE",
"543 591 LINE SMOOTH",
"566 623 OFFCURVE",
"561 665 OFFCURVE",
"529 688 CURVE SMOOTH",
"498 711 OFFCURVE",
"455 704 OFFCURVE",
"432 672 CURVE SMOOTH",
"431 671 LINE",
"291 471 LINE",
"152 670 LINE SMOOTH",
"129 703 OFFCURVE",
"86 711 OFFCURVE",
"55 688 CURVE",
"56 688 LINE",
"23 666 OFFCURVE",
"17 625 OFFCURVE",
"39 592 CURVE SMOOTH",
"207 351 LINE",
"38 108 LINE SMOOTH",
"16 75 OFFCURVE",
"22 34 OFFCURVE",
"55 12 CURVE SMOOTH",
"85 -11 OFFCURVE",
"128 -3 OFFCURVE",
"151 30 CURVE SMOOTH",
"291 231 LINE",
"432 29 LINE SMOOTH",
"455 -4 OFFCURVE",
"498 -11 OFFCURVE",
"529 12 CURVE SMOOTH",
"561 35 OFFCURVE",
"567 76 OFFCURVE",
"545 108 CURVE SMOOTH"
);
}
);
width = 583;
},
{
hints = (
{
horizontal = 1;
place = "{0.13, 699}";
type = Stem;
},
{
place = "{49.87, 510.25}";
type = Stem;
}
);
layerId = "05B5844F-1A6E-4D42-8559-CD9FEB58A40E";
paths = (
{
closed = 1;
nodes = (
"327 357 LINE",
"544 670 LINE SMOOTH",
"550 678 OFFCURVE",
"548 690 OFFCURVE",
"540 696 CURVE SMOOTH",
"531 702 OFFCURVE",
"519 700 OFFCURVE",
"513 691 CURVE SMOOTH",
"303 390 LINE",
"92 690 LINE SMOOTH",
"86 698 OFFCURVE",
"74 701 OFFCURVE",
"66 694 CURVE SMOOTH",
"57 688 OFFCURVE",
"55 676 OFFCURVE",
"61 668 CURVE SMOOTH",
"280 357 LINE",
"53 30 LINE SMOOTH",
"47 21 OFFCURVE",
"49 9 OFFCURVE",
"58 3 CURVE SMOOTH",
"66 -2 OFFCURVE",
"78 -1 OFFCURVE",
"84 8 CURVE SMOOTH",
"303 324 LINE",
"526 8 LINE SMOOTH",
"532 0 OFFCURVE",
"543 -3 OFFCURVE",
"552 3 CURVE SMOOTH",
"561 10 OFFCURVE",
"563 21 OFFCURVE",
"557 30 CURVE SMOOTH"
);
}
);
width = 610;
}
);
note = X;
unicode = 0058;
},
{
color = 4;
glyphname = Y;
lastChange = "2019-06-12 19:54:20 +0000";
layers = (
{
hints = (
{
horizontal = 1;
place = "{0, 700.81}";
type = Stem;
},
{
place = "{217, 135}";
type = Stem;
}
);
layerId = "B0A8294E-1052-4773-8338-C7458B103E7D";
paths = (
{
closed = 1;
nodes = (
"508 710 OFFCURVE",
"467 704 OFFCURVE",
"443 672 CURVE SMOOTH",
"285 465 LINE",
"147 669 LINE SMOOTH",
"125 701 OFFCURVE",
"85 710 OFFCURVE",
"53 690 CURVE SMOOTH",
"22 669 OFFCURVE",
"16 627 OFFCURVE",
"38 594 CURVE SMOOTH",
"217 332 LINE",
"217 70 LINE SMOOTH",
"217 30 OFFCURVE",
"246 0 OFFCURVE",
"285 0 CURVE SMOOTH",
"323 0 OFFCURVE",
"352 30 OFFCURVE",
"352 70 CURVE SMOOTH",
"352 330 LINE",
"550 589 LINE SMOOTH",
"575 621 OFFCURVE",
"571 663 OFFCURVE",
"538 687 CURVE SMOOTH"
);
}
);
width = 591;
},
{
hints = (
{
horizontal = 1;
place = "{0, 697.25}";
type = Stem;
},
{
place = "{280, 38}";
type = Stem;
}
);
layerId = "05B5844F-1A6E-4D42-8559-CD9FEB58A40E";
paths = (
{
closed = 1;
nodes = (
"547 700 OFFCURVE",
"535 698 OFFCURVE",
"529 690 CURVE SMOOTH",
"300 382 LINE",
"85 689 LINE SMOOTH",
"79 698 OFFCURVE",
"67 700 OFFCURVE",
"58 694 CURVE SMOOTH",
"50 688 OFFCURVE",
"47 676 OFFCURVE",
"54 667 CURVE SMOOTH",
"280 345 LINE",
"280 19 LINE SMOOTH",
"280 9 OFFCURVE",
"289 0 OFFCURVE",
"299 0 CURVE SMOOTH",
"310 0 OFFCURVE",
"318 9 OFFCURVE",
"318 19 CURVE SMOOTH",
"318 342 LINE",
"559 667 LINE SMOOTH",
"566 676 OFFCURVE",
"564 687 OFFCURVE",
"555 694 CURVE SMOOTH"
);
}
);
width = 613;
}
);
note = Y;
unicode = 0059;
},
{
export = 0;
glyphname = Ydieresis;
lastChange = "2019-06-13 09:15:41 +0000";
layers = (
{
hints = (
{
horizontal = 1;
place = "{687, 13.25}";
type = Stem;
},
{
horizontal = 1;
place = "{714, 151}";
type = Stem;
},
{
place = "{146, 138}";
type = Stem;
},
{
place = "{541, 27.23}";
type = Stem;
},
{
place = "{306, 136}";
type = Stem;
},
{
place = "{222, 137}";
type = Stem;
}
);
layerId = "B0A8294E-1052-4773-8338-C7458B103E7D";
paths = (
{
closed = 1;
nodes = (
"253 714 OFFCURVE",
"284 743 OFFCURVE",
"284 782 CURVE SMOOTH",
"284 797 LINE SMOOTH",
"284 835 OFFCURVE",
"254 865 OFFCURVE",
"214 865 CURVE SMOOTH",
"177 865 OFFCURVE",
"146 835 OFFCURVE",
"146 797 CURVE SMOOTH",
"146 782 LINE SMOOTH",
"146 743 OFFCURVE",
"177 714 OFFCURVE",
"214 714 CURVE SMOOTH"
);
},
{
closed = 1;
nodes = (
"411 714 OFFCURVE",
"442 743 OFFCURVE",
"442 782 CURVE SMOOTH",
"442 797 LINE SMOOTH",
"442 835 OFFCURVE",
"411 865 OFFCURVE",
"374 865 CURVE SMOOTH",
"336 865 OFFCURVE",
"306 835 OFFCURVE",
"306 797 CURVE SMOOTH",
"306 782 LINE SMOOTH",
"306 743 OFFCURVE",
"336 714 OFFCURVE",
"374 714 CURVE SMOOTH"
);
},
{
closed = 1;
nodes = (
"541 686 LINE",
"511 710 OFFCURVE",
"466 703 OFFCURVE",
"445 671 CURVE",
"446 672 LINE",
"292 468 LINE",
"149 670 LINE SMOOTH",
"125 704 OFFCURVE",
"85 710 OFFCURVE",
"55 688 CURVE SMOOTH",
"23 667 OFFCURVE",
"15 624 OFFCURVE",
"37 594 CURVE SMOOTH",
"222 329 LINE",
"222 68 LINE SMOOTH",
"222 31 OFFCURVE",
"253 0 OFFCURVE",
"290 0 CURVE SMOOTH",
"328 0 OFFCURVE",
"359 31 OFFCURVE",
"359 68 CURVE SMOOTH",
"359 329 LINE",
"554 592 LINE",
"554 591 LINE",
"578 621 OFFCURVE",
"571 666 OFFCURVE",
"539 687 CURVE SMOOTH"
);
}
);
width = 593;
},
{
hints = (
{
horizontal = 1;
place = "{819, 36}";
type = Stem;
},
{
place = "{190, 37}";
type = Stem;
},
{
place = "{275, 37}";
type = Stem;
},
{
place = "{360, 37}";
type = Stem;
}
);
layerId = "05B5844F-1A6E-4D42-8559-CD9FEB58A40E";
paths = (
{
closed = 1;
nodes = (
"219 819 OFFCURVE",
"227 827 OFFCURVE",
"227 837 CURVE SMOOTH",
"227 855 LINE SMOOTH",
"227 865 OFFCURVE",
"219 873 OFFCURVE",
"208 873 CURVE SMOOTH",
"198 873 OFFCURVE",
"190 865 OFFCURVE",
"190 855 CURVE SMOOTH",
"190 837 LINE SMOOTH",
"190 827 OFFCURVE",
"198 819 OFFCURVE",
"208 819 CURVE SMOOTH"
);
},
{
closed = 1;
nodes = (
"389 819 OFFCURVE",
"397 827 OFFCURVE",
"397 837 CURVE SMOOTH",
"397 855 LINE SMOOTH",
"397 865 OFFCURVE",
"389 873 OFFCURVE",
"379 873 CURVE SMOOTH",
"369 873 OFFCURVE",
"360 865 OFFCURVE",
"360 855 CURVE SMOOTH",
"360 837 LINE SMOOTH",
"360 827 OFFCURVE",
"369 819 OFFCURVE",
"379 819 CURVE SMOOTH"
);
},
{
closed = 1;
nodes = (
"537 702 OFFCURVE",
"525 700 OFFCURVE",
"519 692 CURVE SMOOTH",
"294 390 LINE",
"83 692 LINE SMOOTH",
"77 700 OFFCURVE",
"66 702 OFFCURVE",
"57 696 CURVE SMOOTH",
"49 691 OFFCURVE",
"47 679 OFFCURVE",
"53 671 CURVE SMOOTH",
"275 354 LINE",
"275 18 LINE SMOOTH",
"275 8 OFFCURVE",
"283 0 OFFCURVE",
"294 0 CURVE SMOOTH",
"304 0 OFFCURVE",
"312 8 OFFCURVE",
"312 19 CURVE SMOOTH",
"312 352 LINE",
"549 670 LINE SMOOTH",
"555 678 OFFCURVE",
"553 690 OFFCURVE",
"545 696 CURVE SMOOTH"
);
}
);
width = 602;
}
);
note = Ydieresis;
unicode = 0178;
},
{
export = 0;
glyphname = Z;
lastChange = "2019-06-13 09:15:41 +0000";
layers = (
{
hints = (
{
horizontal = 1;
place = "{0, 700}";
type = Stem;
},
{
place = "{24.6, 499.4}";
type = Stem;
}
);
layerId = "B0A8294E-1052-4773-8338-C7458B103E7D";
paths = (
{
closed = 1;
nodes = (
"90 0 LINE SMOOTH",
"39 0 OFFCURVE",
"9 58 OFFCURVE",
"33 106 CURVE SMOOTH",
"34 108 LINE",
"333 563 LINE",
"125 563 LINE SMOOTH",
"85 563 OFFCURVE",
"55 593 OFFCURVE",
"55 632 CURVE SMOOTH",
"55 671 OFFCURVE",
"85 700 OFFCURVE",
"125 700 CURVE SMOOTH",
"457 700 LINE SMOOTH",
"506 700 OFFCURVE",
"537 642 OFFCURVE",
"514 595 CURVE SMOOTH",
"512 592 LINE",
"214 137 LINE",
"454 137 LINE SMOOTH",
"494 137 OFFCURVE",
"524 108 OFFCURVE",
"524 69 CURVE SMOOTH",
"524 30 OFFCURVE",
"493 0 OFFCURVE",
"454 0 CURVE SMOOTH"
);
}
);
width = 549;
},
{
hints = (
{
horizontal = 1;
place = "{0, 700}";
type = Stem;
},
{
place = "{49.58, 469.82}";
type = Stem;
}
);
layerId = "05B5844F-1A6E-4D42-8559-CD9FEB58A40E";
paths = (
{
closed = 1;
nodes = (
"69 0 LINE SMOOTH",
"54 0 OFFCURVE",
"44 17 OFFCURVE",
"53 30 CURVE SMOOTH",
"464 661 LINE",
"85 661 LINE SMOOTH",
"74 661 OFFCURVE",
"65 670 OFFCURVE",
"65 681 CURVE SMOOTH",
"65 691 OFFCURVE",
"74 700 OFFCURVE",
"85 700 CURVE SMOOTH",
"500 700 LINE SMOOTH",
"515 700 OFFCURVE",
"525 683 OFFCURVE",
"516 670 CURVE SMOOTH",
"104 39 LINE",
"500 39 LINE SMOOTH",
"510 39 OFFCURVE",
"519 30 OFFCURVE",
"519 19 CURVE SMOOTH",
"519 9 OFFCURVE",
"510 0 OFFCURVE",
"500 0 CURVE SMOOTH"
);
}
);
width = 569;
}
);
note = Z;
unicode = 005A;
},
{
export = 0;
glyphname = a;
lastChange = "2019-06-13 09:15:41 +0000";
layers = (
{
hints = (
{
horizontal = 1;
place = "{0, 127}";
type = Stem;
},
{
horizontal = 1;
place = "{194, 126}";
type = Stem;
},
{
horizontal = 1;
place = "{370, 130}";
type = Stem;
},
{
place = "{25, 127}";
type = Stem;
},
{
place = "{297, 127}";
type = Stem;
}
);
layerId = "B0A8294E-1052-4773-8338-C7458B103E7D";
paths = (
{
closed = 1;
nodes = (
"424 162 OFFCURVE",
"424 230 OFFCURVE",
"423 319 CURVE SMOOTH",
"423 323 LINE SMOOTH",
"423 434 OFFCURVE",
"352 500 OFFCURVE",
"234 500 CURVE SMOOTH",
"129 500 OFFCURVE",
"61 439 OFFCURVE",
"46 397 CURVE SMOOTH",
"30 352 OFFCURVE",
"61 313 OFFCURVE",
"108 313 CURVE SMOOTH",
"157 313 OFFCURVE",
"157 370 OFFCURVE",
"234 370 CURVE SMOOTH",
"267 370 OFFCURVE",
"294 357 OFFCURVE",
"296 335 CURVE",
"294 330 OFFCURVE",
"261 320 OFFCURVE",
"220 320 CURVE SMOOTH",
"108 320 OFFCURVE",
"25 247 OFFCURVE",
"25 151 CURVE SMOOTH",
"25 62 OFFCURVE",
"97 0 OFFCURVE",
"203 0 CURVE SMOOTH",
"251 0 OFFCURVE",
"292 15 OFFCURVE",
"324 34 CURVE",
"343 13 OFFCURVE",
"369 0 OFFCURVE",
"401 0 CURVE SMOOTH",
"447 0 OFFCURVE",
"476 23 OFFCURVE",
"476 62 CURVE SMOOTH",
"476 94 OFFCURVE",
"456 117 OFFCURVE",
"424 124 CURVE"
);
},
{
closed = 1;
nodes = (
"166 127 OFFCURVE",
"152 136 OFFCURVE",
"152 151 CURVE SMOOTH",
"152 176 OFFCURVE",
"178 194 OFFCURVE",
"220 194 CURVE SMOOTH",
"250 194 OFFCURVE",
"275 197 OFFCURVE",
"297 203 CURVE",
"297 172 LINE",
"281 155 OFFCURVE",
"247 127 OFFCURVE",
"203 127 CURVE SMOOTH"
);
}
);
width = 501;
},
{
hints = (
{
horizontal = 1;
place = "{7, 36}";
type = Stem;
},
{
horizontal = 1;
place = "{240, 36}";
type = Stem;
},
{
horizontal = 1;
place = "{464, 36}";
type = Stem;
},
{
place = "{77, 36}";
type = Stem;
},
{
place = "{389, 36}";
type = Stem;
},
{
horizontal = 1;
place = "{0, 36}";
type = Stem;
},
{
place = "{50, 37}";
type = Stem;
}
);
layerId = "05B5844F-1A6E-4D42-8559-CD9FEB58A40E";
paths = (
{
closed = 1;
nodes = (
"456 43 OFFCURVE",
"448 43 OFFCURVE",
"441 47 CURVE SMOOTH",
"430 53 OFFCURVE",
"425 64 OFFCURVE",
"425 79 CURVE SMOOTH",
"425 121 OFFCURVE",
"425 213 OFFCURVE",
"424 336 CURVE SMOOTH",
"424 340 OFFCURVE",
"423 342 OFFCURVE",
"423 342 CURVE",
"423 343 OFFCURVE",
"423 344 OFFCURVE",
"423 345 CURVE SMOOTH",
"423 346 LINE SMOOTH",
"422 389 OFFCURVE",
"410 425 OFFCURVE",
"388 450 CURVE SMOOTH",
"358 483 OFFCURVE",
"312 500 OFFCURVE",
"250 500 CURVE SMOOTH",
"216 500 OFFCURVE",
"187 495 OFFCURVE",
"162 485 CURVE SMOOTH",
"141 476 OFFCURVE",
"123 464 OFFCURVE",
"108 449 CURVE SMOOTH",
"77 415 OFFCURVE",
"77 380 OFFCURVE",
"77 379 CURVE SMOOTH",
"77 369 OFFCURVE",
"85 361 OFFCURVE",
"95 361 CURVE SMOOTH",
"105 361 OFFCURVE",
"113 369 OFFCURVE",
"113 379 CURVE SMOOTH",
"113 383 OFFCURVE",
"117 405 OFFCURVE",
"135 424 CURVE SMOOTH",
"159 450 OFFCURVE",
"198 464 OFFCURVE",
"250 464 CURVE SMOOTH",
"339 464 OFFCURVE",
"384 427 OFFCURVE",
"387 350 CURVE",
"386 345 OFFCURVE",
"382 330 OFFCURVE",
"365 315 CURVE SMOOTH",
"338 290 OFFCURVE",
"292 276 OFFCURVE",
"231 276 CURVE SMOOTH",
"158 276 OFFCURVE",
"115 247 OFFCURVE",
"92 223 CURVE SMOOTH",
"66 196 OFFCURVE",
"50 160 OFFCURVE",
"50 126 CURVE SMOOTH",
"50 92 OFFCURVE",
"64 61 OFFCURVE",
"90 38 CURVE SMOOTH",
"118 13 OFFCURVE",
"160 0 OFFCURVE",
"210 0 CURVE SMOOTH",
"263 0 OFFCURVE",
"316 19 OFFCURVE",
"363 55 CURVE SMOOTH",
"373 63 OFFCURVE",
"382 70 OFFCURVE",
"389 77 CURVE",
"389 50 OFFCURVE",
"401 28 OFFCURVE",
"423 16 CURVE SMOOTH",
"439 7 OFFCURVE",
"455 7 OFFCURVE",
"456 7 CURVE SMOOTH",
"466 7 OFFCURVE",
"474 15 OFFCURVE",
"474 25 CURVE SMOOTH",
"474 35 OFFCURVE",
"466 43 OFFCURVE",
"456 43 CURVE"
);
},
{
closed = 1;
nodes = (
"299 52 OFFCURVE",
"256 36 OFFCURVE",
"210 36 CURVE SMOOTH",
"168 36 OFFCURVE",
"135 46 OFFCURVE",
"114 65 CURVE SMOOTH",
"91 85 OFFCURVE",
"87 109 OFFCURVE",
"87 126 CURVE SMOOTH",
"87 145 OFFCURVE",
"95 174 OFFCURVE",
"118 198 CURVE SMOOTH",
"145 226 OFFCURVE",
"184 240 OFFCURVE",
"231 240 CURVE SMOOTH",
"271 240 OFFCURVE",
"305 245 OFFCURVE",
"333 255 CURVE SMOOTH",
"355 263 OFFCURVE",
"373 274 OFFCURVE",
"388 287 CURVE",
"389 222 OFFCURVE",
"389 169 OFFCURVE",
"389 130 CURVE",
"385 124 OFFCURVE",
"368 104 OFFCURVE",
"340 83 CURVE SMOOTH"
);
}
);
width = 524;
}
);
note = a;
unicode = 0061;
},
{
export = 0;
glyphname = aacute;
lastChange = "2019-06-13 09:15:41 +0000";
layers = (
{
hints = (
{
horizontal = 1;
place = "{0, 127}";
type = Stem;
},
{
horizontal = 1;
place = "{194, 126}";
type = Stem;
},
{
horizontal = 1;
place = "{370, 130}";
type = Stem;
},
{
horizontal = 1;
place = "{576.38, 190.25}";
type = Stem;
},
{
place = "{25, 127}";
type = Stem;
},
{
place = "{206.25, 202.5}";
type = Stem;
},
{
place = "{297, 127}";
type = Stem;
}
);
layerId = "B0A8294E-1052-4773-8338-C7458B103E7D";
paths = (
{
closed = 1;
nodes = (
"388 661 LINE SMOOTH",
"413 682 OFFCURVE",
"416 719 OFFCURVE",
"395 745 CURVE SMOOTH",
"374 771 OFFCURVE",
"335 774 OFFCURVE",
"310 753 CURVE SMOOTH",
"227 682 LINE SMOOTH",
"202 661 OFFCURVE",
"199 624 OFFCURVE",
"220 598 CURVE SMOOTH",
"246 570 OFFCURVE",
"280 571 OFFCURVE",
"306 590 CURVE"
);
},
{
closed = 1;
nodes = (
"424 162 OFFCURVE",
"424 230 OFFCURVE",
"423 319 CURVE SMOOTH",
"423 323 LINE SMOOTH",
"423 434 OFFCURVE",
"352 500 OFFCURVE",
"234 500 CURVE SMOOTH",
"129 500 OFFCURVE",
"61 439 OFFCURVE",
"46 397 CURVE SMOOTH",
"30 352 OFFCURVE",
"61 313 OFFCURVE",
"108 313 CURVE SMOOTH",
"157 313 OFFCURVE",
"157 370 OFFCURVE",
"234 370 CURVE SMOOTH",
"267 370 OFFCURVE",
"294 357 OFFCURVE",
"296 335 CURVE",
"294 330 OFFCURVE",
"261 320 OFFCURVE",
"220 320 CURVE SMOOTH",
"108 320 OFFCURVE",
"25 247 OFFCURVE",
"25 151 CURVE SMOOTH",
"25 62 OFFCURVE",
"97 0 OFFCURVE",
"203 0 CURVE SMOOTH",
"251 0 OFFCURVE",
"292 15 OFFCURVE",
"324 34 CURVE",
"343 13 OFFCURVE",
"369 0 OFFCURVE",
"401 0 CURVE SMOOTH",
"447 0 OFFCURVE",
"476 23 OFFCURVE",
"476 62 CURVE SMOOTH",
"476 94 OFFCURVE",
"456 117 OFFCURVE",
"424 124 CURVE"
);
},
{
closed = 1;
nodes = (
"166 127 OFFCURVE",
"152 136 OFFCURVE",
"152 151 CURVE SMOOTH",
"152 176 OFFCURVE",
"178 194 OFFCURVE",
"220 194 CURVE SMOOTH",
"250 194 OFFCURVE",
"275 197 OFFCURVE",
"297 203 CURVE",
"297 172 LINE",
"281 155 OFFCURVE",
"247 127 OFFCURVE",
"203 127 CURVE SMOOTH"
);
}
);
width = 501;
},
{
hints = (
{
horizontal = 1;
place = "{0, 36}";
type = Stem;
},
{
horizontal = 1;
place = "{240, 36}";
type = Stem;
},
{
horizontal = 1;
place = "{464, 36}";
type = Stem;
},
{
place = "{50, 37}";
type = Stem;
},
{
place = "{389, 36}";
type = Stem;
},
{
horizontal = 1;
place = "{7, 36}";
type = Stem;
},
{
place = "{77, 36}";
type = Stem;
}
);
layerId = "05B5844F-1A6E-4D42-8559-CD9FEB58A40E";
paths = (
{
closed = 1;
nodes = (
"315 658 OFFCURVE",
"318 659 OFFCURVE",
"322 662 CURVE SMOOTH",
"428 753 LINE SMOOTH",
"436 759 OFFCURVE",
"437 772 OFFCURVE",
"430 779 CURVE SMOOTH",
"424 787 OFFCURVE",
"411 787 OFFCURVE",
"404 781 CURVE SMOOTH",
"298 691 LINE SMOOTH",
"290 684 OFFCURVE",
"289 672 OFFCURVE",
"296 664 CURVE SMOOTH",
"300 660 OFFCURVE",
"304 658 OFFCURVE",
"310 658 CURVE SMOOTH"
);
},
{
closed = 1;
nodes = (
"456 43 OFFCURVE",
"448 43 OFFCURVE",
"441 47 CURVE SMOOTH",
"430 53 OFFCURVE",
"425 64 OFFCURVE",
"425 79 CURVE SMOOTH",
"425 121 OFFCURVE",
"425 213 OFFCURVE",
"424 336 CURVE SMOOTH",
"424 378 OFFCURVE",
"414 421 OFFCURVE",
"388 450 CURVE SMOOTH",
"358 483 OFFCURVE",
"312 500 OFFCURVE",
"250 500 CURVE SMOOTH",
"216 500 OFFCURVE",
"187 495 OFFCURVE",
"162 485 CURVE SMOOTH",
"141 476 OFFCURVE",
"123 464 OFFCURVE",
"108 449 CURVE SMOOTH",
"77 415 OFFCURVE",
"77 380 OFFCURVE",
"77 379 CURVE SMOOTH",
"77 369 OFFCURVE",
"85 361 OFFCURVE",
"95 361 CURVE SMOOTH",
"105 361 OFFCURVE",
"113 369 OFFCURVE",
"113 379 CURVE SMOOTH",
"113 383 OFFCURVE",
"117 405 OFFCURVE",
"135 424 CURVE SMOOTH",
"159 450 OFFCURVE",
"198 464 OFFCURVE",
"250 464 CURVE SMOOTH",
"339 464 OFFCURVE",
"384 427 OFFCURVE",
"387 350 CURVE",
"386 345 OFFCURVE",
"382 330 OFFCURVE",
"365 315 CURVE SMOOTH",
"338 290 OFFCURVE",
"292 276 OFFCURVE",
"231 276 CURVE SMOOTH",
"158 276 OFFCURVE",
"115 247 OFFCURVE",
"92 223 CURVE SMOOTH",
"66 196 OFFCURVE",
"50 160 OFFCURVE",
"50 126 CURVE SMOOTH",
"50 92 OFFCURVE",
"64 61 OFFCURVE",
"90 38 CURVE SMOOTH",
"118 13 OFFCURVE",
"160 0 OFFCURVE",
"210 0 CURVE SMOOTH",
"263 0 OFFCURVE",
"316 19 OFFCURVE",
"363 55 CURVE SMOOTH",
"373 63 OFFCURVE",
"382 70 OFFCURVE",
"389 77 CURVE",
"389 50 OFFCURVE",
"401 28 OFFCURVE",
"423 16 CURVE SMOOTH",
"439 7 OFFCURVE",
"455 7 OFFCURVE",
"456 7 CURVE SMOOTH",
"466 7 OFFCURVE",
"474 15 OFFCURVE",
"474 25 CURVE SMOOTH",
"474 35 OFFCURVE",
"466 43 OFFCURVE",
"456 43 CURVE"
);
},
{
closed = 1;
nodes = (
"299 52 OFFCURVE",
"256 36 OFFCURVE",
"210 36 CURVE SMOOTH",
"168 36 OFFCURVE",
"135 46 OFFCURVE",
"114 65 CURVE SMOOTH",
"91 85 OFFCURVE",
"87 109 OFFCURVE",
"87 126 CURVE SMOOTH",
"87 145 OFFCURVE",
"95 174 OFFCURVE",
"118 198 CURVE SMOOTH",
"145 226 OFFCURVE",
"184 240 OFFCURVE",
"231 240 CURVE SMOOTH",
"271 240 OFFCURVE",
"305 245 OFFCURVE",
"333 255 CURVE SMOOTH",
"355 263 OFFCURVE",
"373 274 OFFCURVE",
"388 287 CURVE",
"389 222 OFFCURVE",
"389 169 OFFCURVE",
"389 130 CURVE",
"385 124 OFFCURVE",
"368 104 OFFCURVE",
"340 83 CURVE SMOOTH"
);
}
);
width = 524;
}
);
note = aacute;
unicode = 00E1;
},
{
export = 0;
glyphname = acircumflex;
lastChange = "2019-06-13 09:15:41 +0000";
layers = (
{
hints = (
{
horizontal = 1;
place = "{0, 127}";
type = Stem;
},
{
horizontal = 1;
place = "{194, 126}";
type = Stem;
},
{
horizontal = 1;
place = "{370, 130}";
type = Stem;
},
{
horizontal = 1;
place = "{582, 223.13}";
type = Stem;
},
{
place = "{25, 127}";
type = Stem;
},
{
place = "{297, 126}";
type = Stem;
}
);
layerId = "B0A8294E-1052-4773-8338-C7458B103E7D";
paths = (
{
closed = 1;
nodes = (
"247 660 LINE",
"316 598 LINE SMOOTH",
"341 575 OFFCURVE",
"380 577 OFFCURVE",
"403 602 CURVE SMOOTH",
"427 630 OFFCURVE",
"425 667 OFFCURVE",
"400 691 CURVE SMOOTH",
"289 791 LINE",
"265 810 OFFCURVE",
"230 810 OFFCURVE",
"206 790 CURVE SMOOTH",
"95 691 LINE SMOOTH",
"70 667 OFFCURVE",
"69 629 OFFCURVE",
"90 604 CURVE SMOOTH",
"117 575 OFFCURVE",
"154 578 OFFCURVE",
"179 598 CURVE"
);
},
{
closed = 1;
nodes = (
"424 162 OFFCURVE",
"423 230 OFFCURVE",
"423 319 CURVE SMOOTH",
"423 323 LINE SMOOTH",
"423 434 OFFCURVE",
"352 500 OFFCURVE",
"234 500 CURVE SMOOTH",
"129 500 OFFCURVE",
"61 439 OFFCURVE",
"46 397 CURVE SMOOTH",
"30 352 OFFCURVE",
"61 313 OFFCURVE",
"108 313 CURVE SMOOTH",
"157 313 OFFCURVE",
"157 370 OFFCURVE",
"234 370 CURVE SMOOTH",
"267 370 OFFCURVE",
"294 357 OFFCURVE",
"296 335 CURVE",
"294 330 OFFCURVE",
"261 320 OFFCURVE",
"220 320 CURVE SMOOTH",
"108 320 OFFCURVE",
"25 247 OFFCURVE",
"25 151 CURVE SMOOTH",
"25 62 OFFCURVE",
"97 0 OFFCURVE",
"203 0 CURVE SMOOTH",
"251 0 OFFCURVE",
"292 15 OFFCURVE",
"324 34 CURVE",
"343 13 OFFCURVE",
"369 0 OFFCURVE",
"401 0 CURVE SMOOTH",
"447 0 OFFCURVE",
"476 23 OFFCURVE",
"476 62 CURVE SMOOTH",
"476 94 OFFCURVE",
"456 118 OFFCURVE",
"424 125 CURVE"
);
},
{
closed = 1;
nodes = (
"166 127 OFFCURVE",
"152 136 OFFCURVE",
"152 151 CURVE SMOOTH",
"152 176 OFFCURVE",
"178 194 OFFCURVE",
"220 194 CURVE SMOOTH",
"250 194 OFFCURVE",
"275 197 OFFCURVE",
"297 203 CURVE",
"297 172 LINE",
"281 155 OFFCURVE",
"247 127 OFFCURVE",
"203 127 CURVE SMOOTH"
);
}
);
width = 501;
},
{
hints = (
{
horizontal = 1;
place = "{0, 36}";
type = Stem;
},
{
horizontal = 1;
place = "{240, 36}";
type = Stem;
},
{
horizontal = 1;
place = "{464, 36}";
type = Stem;
},
{
place = "{50, 37}";
type = Stem;
},
{
place = "{389, 36}";
type = Stem;
},
{
horizontal = 1;
place = "{7, 36}";
type = Stem;
},
{
place = "{77, 36}";
type = Stem;
}
);
layerId = "05B5844F-1A6E-4D42-8559-CD9FEB58A40E";
paths = (
{
closed = 1;
nodes = (
"260 782 LINE",
"385 670 LINE SMOOTH",
"389 667 OFFCURVE",
"393 665 OFFCURVE",
"398 665 CURVE SMOOTH",
"403 665 OFFCURVE",
"408 667 OFFCURVE",
"411 671 CURVE SMOOTH",
"418 679 OFFCURVE",
"418 691 OFFCURVE",
"410 697 CURVE",
"273 821 LINE",
"265 827 OFFCURVE",
"255 827 OFFCURVE",
"248 821 CURVE SMOOTH",
"110 697 LINE SMOOTH",
"103 691 OFFCURVE",
"102 679 OFFCURVE",
"109 671 CURVE SMOOTH",
"116 664 OFFCURVE",
"128 663 OFFCURVE",
"135 670 CURVE SMOOTH"
);
},
{
closed = 1;
nodes = (
"456 43 OFFCURVE",
"448 43 OFFCURVE",
"441 47 CURVE SMOOTH",
"430 53 OFFCURVE",
"425 64 OFFCURVE",
"425 79 CURVE SMOOTH",
"425 121 OFFCURVE",
"425 213 OFFCURVE",
"424 336 CURVE SMOOTH",
"424 378 OFFCURVE",
"414 421 OFFCURVE",
"388 450 CURVE SMOOTH",
"358 483 OFFCURVE",
"312 500 OFFCURVE",
"250 500 CURVE SMOOTH",
"216 500 OFFCURVE",
"187 495 OFFCURVE",
"162 485 CURVE SMOOTH",
"141 476 OFFCURVE",
"123 464 OFFCURVE",
"108 449 CURVE SMOOTH",
"77 415 OFFCURVE",
"77 380 OFFCURVE",
"77 379 CURVE SMOOTH",
"77 369 OFFCURVE",
"85 361 OFFCURVE",
"95 361 CURVE SMOOTH",
"105 361 OFFCURVE",
"113 369 OFFCURVE",
"113 379 CURVE SMOOTH",
"113 383 OFFCURVE",
"117 405 OFFCURVE",
"135 424 CURVE SMOOTH",
"159 450 OFFCURVE",
"198 464 OFFCURVE",
"250 464 CURVE SMOOTH",
"339 464 OFFCURVE",
"384 427 OFFCURVE",
"387 350 CURVE",
"386 345 OFFCURVE",
"382 330 OFFCURVE",
"365 315 CURVE SMOOTH",
"338 290 OFFCURVE",
"292 276 OFFCURVE",
"231 276 CURVE SMOOTH",
"158 276 OFFCURVE",
"115 247 OFFCURVE",
"92 223 CURVE SMOOTH",
"66 196 OFFCURVE",
"50 160 OFFCURVE",
"50 126 CURVE SMOOTH",
"50 92 OFFCURVE",
"64 61 OFFCURVE",
"90 38 CURVE SMOOTH",
"118 13 OFFCURVE",
"160 0 OFFCURVE",
"210 0 CURVE SMOOTH",
"263 0 OFFCURVE",
"316 19 OFFCURVE",
"363 55 CURVE SMOOTH",
"373 63 OFFCURVE",
"382 70 OFFCURVE",
"389 77 CURVE",
"389 50 OFFCURVE",
"401 28 OFFCURVE",
"423 16 CURVE SMOOTH",
"439 7 OFFCURVE",
"455 7 OFFCURVE",
"456 7 CURVE SMOOTH",
"466 7 OFFCURVE",
"474 15 OFFCURVE",
"474 25 CURVE SMOOTH",
"474 35 OFFCURVE",
"466 43 OFFCURVE",
"456 43 CURVE"
);
},
{
closed = 1;
nodes = (
"299 52 OFFCURVE",
"256 36 OFFCURVE",
"210 36 CURVE SMOOTH",
"168 36 OFFCURVE",
"135 46 OFFCURVE",
"114 65 CURVE SMOOTH",
"91 85 OFFCURVE",
"87 109 OFFCURVE",
"87 126 CURVE SMOOTH",
"87 145 OFFCURVE",
"95 174 OFFCURVE",
"118 198 CURVE SMOOTH",
"145 226 OFFCURVE",
"184 240 OFFCURVE",
"231 240 CURVE SMOOTH",
"271 240 OFFCURVE",
"305 245 OFFCURVE",
"333 255 CURVE SMOOTH",
"355 263 OFFCURVE",
"373 274 OFFCURVE",
"388 287 CURVE",
"389 222 OFFCURVE",
"389 169 OFFCURVE",
"389 130 CURVE",
"385 124 OFFCURVE",
"368 104 OFFCURVE",
"340 83 CURVE SMOOTH"
);
}
);
width = 524;
}
);
note = acircumflex;
unicode = 00E2;
},
{
export = 0;
glyphname = adieresis;
lastChange = "2019-06-13 09:15:41 +0000";
layers = (
{
hints = (
{
horizontal = 1;
place = "{0, 127}";
type = Stem;
},
{
horizontal = 1;
place = "{194, 126}";
type = Stem;
},
{
horizontal = 1;
place = "{370, 130}";
type = Stem;
},
{
horizontal = 1;
place = "{584, 128}";
type = Stem;
},
{
place = "{127, 115}";
type = Stem;
},
{
place = "{297, 126}";
type = Stem;
},
{
place = "{260, 116}";
type = Stem;
},
{
place = "{25, 127}";
type = Stem;
}
);
layerId = "B0A8294E-1052-4773-8338-C7458B103E7D";
paths = (
{
closed = 1;
nodes = (
"217 584 OFFCURVE",
"242 610 OFFCURVE",
"242 642 CURVE SMOOTH",
"242 654 LINE SMOOTH",
"242 686 OFFCURVE",
"217 712 OFFCURVE",
"185 712 CURVE SMOOTH",
"153 712 OFFCURVE",
"127 686 OFFCURVE",
"127 654 CURVE SMOOTH",
"127 642 LINE SMOOTH",
"127 610 OFFCURVE",
"153 584 OFFCURVE",
"185 584 CURVE SMOOTH"
);
},
{
closed = 1;
nodes = (
"351 584 OFFCURVE",
"376 610 OFFCURVE",
"376 642 CURVE SMOOTH",
"376 654 LINE SMOOTH",
"376 686 OFFCURVE",
"350 712 OFFCURVE",
"318 712 CURVE SMOOTH",
"286 712 OFFCURVE",
"260 686 OFFCURVE",
"260 654 CURVE SMOOTH",
"260 642 LINE SMOOTH",
"260 610 OFFCURVE",
"286 584 OFFCURVE",
"318 584 CURVE SMOOTH"
);
},
{
closed = 1;
nodes = (
"424 162 OFFCURVE",
"423 230 OFFCURVE",
"423 319 CURVE SMOOTH",
"423 323 LINE SMOOTH",
"423 434 OFFCURVE",
"352 500 OFFCURVE",
"234 500 CURVE SMOOTH",
"129 500 OFFCURVE",
"61 439 OFFCURVE",
"46 397 CURVE SMOOTH",
"30 352 OFFCURVE",
"61 313 OFFCURVE",
"108 313 CURVE SMOOTH",
"157 313 OFFCURVE",
"157 370 OFFCURVE",
"234 370 CURVE SMOOTH",
"267 370 OFFCURVE",
"294 357 OFFCURVE",
"296 335 CURVE",
"294 330 OFFCURVE",
"261 320 OFFCURVE",
"220 320 CURVE SMOOTH",
"108 320 OFFCURVE",
"25 247 OFFCURVE",
"25 151 CURVE SMOOTH",
"25 62 OFFCURVE",
"97 0 OFFCURVE",
"203 0 CURVE SMOOTH",
"251 0 OFFCURVE",
"292 15 OFFCURVE",
"324 34 CURVE",
"343 13 OFFCURVE",
"369 0 OFFCURVE",
"401 0 CURVE SMOOTH",
"447 0 OFFCURVE",
"476 23 OFFCURVE",
"476 62 CURVE SMOOTH",
"476 94 OFFCURVE",
"456 118 OFFCURVE",
"424 125 CURVE"
);
},
{
closed = 1;
nodes = (
"166 127 OFFCURVE",
"152 136 OFFCURVE",
"152 151 CURVE SMOOTH",
"152 176 OFFCURVE",
"178 194 OFFCURVE",
"220 194 CURVE SMOOTH",
"250 194 OFFCURVE",
"275 197 OFFCURVE",
"297 203 CURVE",
"297 172 LINE",
"281 155 OFFCURVE",
"247 127 OFFCURVE",
"203 127 CURVE SMOOTH"
);
}
);
width = 501;
},
{
hints = (
{
horizontal = 1;
place = "{0, 36}";
type = Stem;
},
{
horizontal = 1;
place = "{240, 36}";
type = Stem;
},
{
horizontal = 1;
place = "{464, 36}";
type = Stem;
},
{
horizontal = 1;
place = "{667, 36}";
type = Stem;
},
{
place = "{50, 37}";
type = Stem;
},
{
place = "{167, 37}";
type = Stem;
},
{
place = "{389, 36}";
type = Stem;
},
{
place = "{334, 37}";
type = Stem;
},
{
horizontal = 1;
place = "{7, 36}";
type = Stem;
},
{
place = "{77, 36}";
type = Stem;
}
);
layerId = "05B5844F-1A6E-4D42-8559-CD9FEB58A40E";
paths = (
{
closed = 1;
nodes = (
"196 667 OFFCURVE",
"204 675 OFFCURVE",
"204 685 CURVE SMOOTH",
"204 703 LINE SMOOTH",
"204 713 OFFCURVE",
"196 721 OFFCURVE",
"186 721 CURVE SMOOTH",
"175 721 OFFCURVE",
"167 713 OFFCURVE",
"167 703 CURVE SMOOTH",
"167 685 LINE SMOOTH",
"167 675 OFFCURVE",
"175 667 OFFCURVE",
"186 667 CURVE SMOOTH"
);
},
{
closed = 1;
nodes = (
"362 667 OFFCURVE",
"371 675 OFFCURVE",
"371 685 CURVE SMOOTH",
"371 703 LINE SMOOTH",
"371 713 OFFCURVE",
"362 721 OFFCURVE",
"352 721 CURVE SMOOTH",
"342 721 OFFCURVE",
"334 713 OFFCURVE",
"334 703 CURVE SMOOTH",
"334 685 LINE SMOOTH",
"334 675 OFFCURVE",
"342 667 OFFCURVE",
"352 667 CURVE SMOOTH"
);
},
{
closed = 1;
nodes = (
"456 43 OFFCURVE",
"448 43 OFFCURVE",
"441 47 CURVE SMOOTH",
"430 53 OFFCURVE",
"425 64 OFFCURVE",
"425 79 CURVE SMOOTH",
"425 121 OFFCURVE",
"425 213 OFFCURVE",
"424 336 CURVE SMOOTH",
"424 378 OFFCURVE",
"414 421 OFFCURVE",
"388 450 CURVE SMOOTH",
"358 483 OFFCURVE",
"312 500 OFFCURVE",
"250 500 CURVE SMOOTH",
"216 500 OFFCURVE",
"187 495 OFFCURVE",
"162 485 CURVE SMOOTH",
"141 476 OFFCURVE",
"123 464 OFFCURVE",
"108 449 CURVE SMOOTH",
"77 415 OFFCURVE",
"77 380 OFFCURVE",
"77 379 CURVE SMOOTH",
"77 369 OFFCURVE",
"85 361 OFFCURVE",
"95 361 CURVE SMOOTH",
"105 361 OFFCURVE",
"113 369 OFFCURVE",
"113 379 CURVE SMOOTH",
"113 383 OFFCURVE",
"117 405 OFFCURVE",
"135 424 CURVE SMOOTH",
"159 450 OFFCURVE",
"198 464 OFFCURVE",
"250 464 CURVE SMOOTH",
"339 464 OFFCURVE",
"384 427 OFFCURVE",
"387 350 CURVE",
"386 345 OFFCURVE",
"382 330 OFFCURVE",
"365 315 CURVE SMOOTH",
"338 290 OFFCURVE",
"292 276 OFFCURVE",
"231 276 CURVE SMOOTH",
"158 276 OFFCURVE",
"115 247 OFFCURVE",
"92 223 CURVE SMOOTH",
"66 196 OFFCURVE",
"50 160 OFFCURVE",
"50 126 CURVE SMOOTH",
"50 92 OFFCURVE",
"64 61 OFFCURVE",
"90 38 CURVE SMOOTH",
"118 13 OFFCURVE",
"160 0 OFFCURVE",
"210 0 CURVE SMOOTH",
"263 0 OFFCURVE",
"316 19 OFFCURVE",
"363 55 CURVE SMOOTH",
"373 63 OFFCURVE",
"382 70 OFFCURVE",
"389 77 CURVE",
"389 50 OFFCURVE",
"401 28 OFFCURVE",
"423 16 CURVE SMOOTH",
"439 7 OFFCURVE",
"455 7 OFFCURVE",
"456 7 CURVE SMOOTH",
"466 7 OFFCURVE",
"474 15 OFFCURVE",
"474 25 CURVE SMOOTH",
"474 35 OFFCURVE",
"466 43 OFFCURVE",
"456 43 CURVE"
);
},
{
closed = 1;
nodes = (
"299 52 OFFCURVE",
"256 36 OFFCURVE",
"210 36 CURVE SMOOTH",
"168 36 OFFCURVE",
"135 46 OFFCURVE",
"114 65 CURVE SMOOTH",
"91 85 OFFCURVE",
"87 109 OFFCURVE",
"87 126 CURVE SMOOTH",
"87 145 OFFCURVE",
"95 174 OFFCURVE",
"118 198 CURVE SMOOTH",
"145 226 OFFCURVE",
"184 240 OFFCURVE",
"231 240 CURVE SMOOTH",
"271 240 OFFCURVE",
"305 245 OFFCURVE",
"333 255 CURVE SMOOTH",
"355 263 OFFCURVE",
"373 274 OFFCURVE",
"388 287 CURVE",
"389 222 OFFCURVE",
"389 169 OFFCURVE",
"389 130 CURVE",
"385 124 OFFCURVE",
"368 104 OFFCURVE",
"340 83 CURVE SMOOTH"
);
}
);
width = 524;
}
);
note = adieresis;
unicode = 00E4;
},
{
export = 0;
glyphname = agrave;
lastChange = "2019-06-13 09:15:41 +0000";
layers = (
{
hints = (
{
horizontal = 1;
place = "{0, 127}";
type = Stem;
},
{
horizontal = 1;
place = "{194, 126}";
type = Stem;
},
{
horizontal = 1;
place = "{370, 130}";
type = Stem;
},
{
horizontal = 1;
place = "{576.13, 190.75}";
type = Stem;
},
{
place = "{59.12, 203.75}";
type = Stem;
},
{
place = "{297, 126}";
type = Stem;
},
{
place = "{25, 127}";
type = Stem;
}
);
layerId = "B0A8294E-1052-4773-8338-C7458B103E7D";
paths = (
{
closed = 1;
nodes = (
"163 590 LINE SMOOTH",
"188 570 OFFCURVE",
"225 571 OFFCURVE",
"247 596 CURVE SMOOTH",
"270 621 OFFCURVE",
"268 660 OFFCURVE",
"242 683 CURVE SMOOTH",
"158 753 LINE SMOOTH",
"133 774 OFFCURVE",
"96 771 OFFCURVE",
"75 747 CURVE SMOOTH",
"52 722 OFFCURVE",
"54 683 OFFCURVE",
"80 662 CURVE SMOOTH"
);
},
{
closed = 1;
nodes = (
"424 162 OFFCURVE",
"423 230 OFFCURVE",
"423 319 CURVE SMOOTH",
"423 323 LINE SMOOTH",
"423 434 OFFCURVE",
"352 500 OFFCURVE",
"234 500 CURVE SMOOTH",
"129 500 OFFCURVE",
"61 439 OFFCURVE",
"46 397 CURVE SMOOTH",
"30 352 OFFCURVE",
"61 313 OFFCURVE",
"108 313 CURVE SMOOTH",
"157 313 OFFCURVE",
"157 370 OFFCURVE",
"234 370 CURVE SMOOTH",
"267 370 OFFCURVE",
"294 357 OFFCURVE",
"296 335 CURVE",
"294 330 OFFCURVE",
"261 320 OFFCURVE",
"220 320 CURVE SMOOTH",
"108 320 OFFCURVE",
"25 247 OFFCURVE",
"25 151 CURVE SMOOTH",
"25 62 OFFCURVE",
"97 0 OFFCURVE",
"203 0 CURVE SMOOTH",
"251 0 OFFCURVE",
"292 15 OFFCURVE",
"324 34 CURVE",
"343 13 OFFCURVE",
"369 0 OFFCURVE",
"401 0 CURVE SMOOTH",
"447 0 OFFCURVE",
"476 23 OFFCURVE",
"476 62 CURVE SMOOTH",
"476 94 OFFCURVE",
"456 118 OFFCURVE",
"424 125 CURVE"
);
},
{
closed = 1;
nodes = (
"166 127 OFFCURVE",
"152 136 OFFCURVE",
"152 151 CURVE SMOOTH",
"152 176 OFFCURVE",
"178 194 OFFCURVE",
"220 194 CURVE SMOOTH",
"250 194 OFFCURVE",
"275 197 OFFCURVE",
"297 203 CURVE",
"297 172 LINE",
"281 155 OFFCURVE",
"247 127 OFFCURVE",
"203 127 CURVE SMOOTH"
);
}
);
width = 501;
},
{
hints = (
{
horizontal = 1;
place = "{0, 36}";
type = Stem;
},
{
horizontal = 1;
place = "{240, 36}";
type = Stem;
},
{
horizontal = 1;
place = "{464, 36}";
type = Stem;
},
{
place = "{50, 37}";
type = Stem;
},
{
place = "{389, 36}";
type = Stem;
},
{
horizontal = 1;
place = "{7, 36}";
type = Stem;
},
{
place = "{77, 36}";
type = Stem;
}
);
layerId = "05B5844F-1A6E-4D42-8559-CD9FEB58A40E";
paths = (
{
closed = 1;
nodes = (
"220 665 LINE SMOOTH",
"223 662 OFFCURVE",
"227 661 OFFCURVE",
"231 661 CURVE SMOOTH",
"236 661 OFFCURVE",
"241 663 OFFCURVE",
"244 667 CURVE SMOOTH",
"251 674 OFFCURVE",
"250 685 OFFCURVE",
"242 691 CURVE SMOOTH",
"144 776 LINE SMOOTH",
"136 782 OFFCURVE",
"125 781 OFFCURVE",
"119 774 CURVE SMOOTH",
"113 767 OFFCURVE",
"113 756 OFFCURVE",
"121 749 CURVE SMOOTH"
);
},
{
closed = 1;
nodes = (
"456 43 OFFCURVE",
"448 43 OFFCURVE",
"441 47 CURVE SMOOTH",
"430 53 OFFCURVE",
"425 64 OFFCURVE",
"425 79 CURVE SMOOTH",
"425 121 OFFCURVE",
"425 213 OFFCURVE",
"424 336 CURVE SMOOTH",
"424 378 OFFCURVE",
"414 421 OFFCURVE",
"388 450 CURVE SMOOTH",
"358 483 OFFCURVE",
"312 500 OFFCURVE",
"250 500 CURVE SMOOTH",
"216 500 OFFCURVE",
"187 495 OFFCURVE",
"162 485 CURVE SMOOTH",
"141 476 OFFCURVE",
"123 464 OFFCURVE",
"108 449 CURVE SMOOTH",
"77 415 OFFCURVE",
"77 380 OFFCURVE",
"77 379 CURVE SMOOTH",
"77 369 OFFCURVE",
"85 361 OFFCURVE",
"95 361 CURVE SMOOTH",
"105 361 OFFCURVE",
"113 369 OFFCURVE",
"113 379 CURVE SMOOTH",
"113 383 OFFCURVE",
"117 405 OFFCURVE",
"135 424 CURVE SMOOTH",
"159 450 OFFCURVE",
"198 464 OFFCURVE",
"250 464 CURVE SMOOTH",
"339 464 OFFCURVE",
"384 427 OFFCURVE",
"387 350 CURVE",
"386 345 OFFCURVE",
"382 330 OFFCURVE",
"365 315 CURVE SMOOTH",
"338 290 OFFCURVE",
"292 276 OFFCURVE",
"231 276 CURVE SMOOTH",
"158 276 OFFCURVE",
"115 247 OFFCURVE",
"92 223 CURVE SMOOTH",
"66 196 OFFCURVE",
"50 160 OFFCURVE",
"50 126 CURVE SMOOTH",
"50 92 OFFCURVE",
"64 61 OFFCURVE",
"90 38 CURVE SMOOTH",
"118 13 OFFCURVE",
"160 0 OFFCURVE",
"210 0 CURVE SMOOTH",
"263 0 OFFCURVE",
"316 19 OFFCURVE",
"363 55 CURVE SMOOTH",
"373 63 OFFCURVE",
"382 70 OFFCURVE",
"389 77 CURVE",
"389 50 OFFCURVE",
"401 28 OFFCURVE",
"423 16 CURVE SMOOTH",
"439 7 OFFCURVE",
"455 7 OFFCURVE",
"456 7 CURVE SMOOTH",
"466 7 OFFCURVE",
"474 15 OFFCURVE",
"474 25 CURVE SMOOTH",
"474 35 OFFCURVE",
"466 43 OFFCURVE",
"456 43 CURVE"
);
},
{
closed = 1;
nodes = (
"299 52 OFFCURVE",
"256 36 OFFCURVE",
"210 36 CURVE SMOOTH",
"168 36 OFFCURVE",
"135 46 OFFCURVE",
"114 65 CURVE SMOOTH",
"91 85 OFFCURVE",
"87 109 OFFCURVE",
"87 126 CURVE SMOOTH",
"87 145 OFFCURVE",
"95 174 OFFCURVE",
"118 198 CURVE SMOOTH",
"145 226 OFFCURVE",
"184 240 OFFCURVE",
"231 240 CURVE SMOOTH",
"271 240 OFFCURVE",
"305 245 OFFCURVE",
"333 255 CURVE SMOOTH",
"355 263 OFFCURVE",
"373 274 OFFCURVE",
"388 287 CURVE",
"389 222 OFFCURVE",
"389 169 OFFCURVE",
"389 130 CURVE",
"385 124 OFFCURVE",
"368 104 OFFCURVE",
"340 83 CURVE SMOOTH"
);
}
);
width = 524;
}
);
note = agrave;
unicode = 00E0;
},
{
export = 0;
glyphname = amacron;
lastChange = "2019-06-13 09:15:41 +0000";
layers = (
{
hints = (
{
horizontal = 1;
place = "{0, 127}";
type = Stem;
},
{
horizontal = 1;
place = "{194, 126}";
type = Stem;
},
{
horizontal = 1;
place = "{370, 130}";
type = Stem;
},
{
horizontal = 1;
place = "{558, 110}";
type = Stem;
},
{
place = "{25, 127}";
type = Stem;
},
{
place = "{297, 127}";
type = Stem;
}
);
layerId = "B0A8294E-1052-4773-8338-C7458B103E7D";
paths = (
{
closed = 1;
nodes = (
"299 558 LINE SMOOTH",
"329 558 OFFCURVE",
"354 581 OFFCURVE",
"354 613 CURVE SMOOTH",
"354 643 OFFCURVE",
"329 668 OFFCURVE",
"299 668 CURVE SMOOTH",
"188 668 LINE SMOOTH",
"157 668 OFFCURVE",
"131 642 OFFCURVE",
"131 613 CURVE SMOOTH",
"131 583 OFFCURVE",
"157 558 OFFCURVE",
"188 558 CURVE SMOOTH"
);
},
{
closed = 1;
nodes = (
"424 162 OFFCURVE",
"424 230 OFFCURVE",
"423 319 CURVE SMOOTH",
"423 323 LINE SMOOTH",
"423 434 OFFCURVE",
"352 500 OFFCURVE",
"234 500 CURVE SMOOTH",
"129 500 OFFCURVE",
"61 439 OFFCURVE",
"46 397 CURVE SMOOTH",
"30 352 OFFCURVE",
"61 313 OFFCURVE",
"108 313 CURVE SMOOTH",
"157 313 OFFCURVE",
"157 370 OFFCURVE",
"234 370 CURVE SMOOTH",
"267 370 OFFCURVE",
"294 357 OFFCURVE",
"296 335 CURVE",
"294 330 OFFCURVE",
"261 320 OFFCURVE",
"220 320 CURVE SMOOTH",
"108 320 OFFCURVE",
"25 247 OFFCURVE",
"25 151 CURVE SMOOTH",
"25 62 OFFCURVE",
"97 0 OFFCURVE",
"203 0 CURVE SMOOTH",
"251 0 OFFCURVE",
"292 15 OFFCURVE",
"324 34 CURVE",
"343 13 OFFCURVE",
"369 0 OFFCURVE",
"401 0 CURVE SMOOTH",
"447 0 OFFCURVE",
"476 23 OFFCURVE",
"476 62 CURVE SMOOTH",
"476 94 OFFCURVE",
"456 117 OFFCURVE",
"424 124 CURVE"
);
},
{
closed = 1;
nodes = (
"166 127 OFFCURVE",
"152 136 OFFCURVE",
"152 151 CURVE SMOOTH",
"152 176 OFFCURVE",
"178 194 OFFCURVE",
"220 194 CURVE SMOOTH",
"250 194 OFFCURVE",
"275 197 OFFCURVE",
"297 203 CURVE",
"297 172 LINE",
"281 155 OFFCURVE",
"247 127 OFFCURVE",
"203 127 CURVE SMOOTH"
);
}
);
width = 501;
},
{
hints = (
{
horizontal = 1;
place = "{0, 36}";
type = Stem;
},
{
horizontal = 1;
place = "{240, 36}";
type = Stem;
},
{
horizontal = 1;
place = "{464, 36}";
type = Stem;
},
{
horizontal = 1;
place = "{660, 40}";
type = Stem;
},
{
place = "{50, 37}";
type = Stem;
},
{
place = "{389, 36}";
type = Stem;
},
{
horizontal = 1;
place = "{7, 36}";
type = Stem;
},
{
place = "{77, 36}";
type = Stem;
}
);
layerId = "05B5844F-1A6E-4D42-8559-CD9FEB58A40E";
paths = (
{
closed = 1;
nodes = (
"394 660 LINE SMOOTH",
"405 660 OFFCURVE",
"414 669 OFFCURVE",
"414 680 CURVE SMOOTH",
"414 691 OFFCURVE",
"405 700 OFFCURVE",
"394 700 CURVE SMOOTH",
"147 700 LINE SMOOTH",
"136 700 OFFCURVE",
"127 691 OFFCURVE",
"127 680 CURVE SMOOTH",
"127 669 OFFCURVE",
"136 660 OFFCURVE",
"147 660 CURVE SMOOTH"
);
},
{
closed = 1;
nodes = (
"456 43 OFFCURVE",
"448 43 OFFCURVE",
"441 47 CURVE SMOOTH",
"430 53 OFFCURVE",
"425 64 OFFCURVE",
"425 79 CURVE SMOOTH",
"425 121 OFFCURVE",
"425 213 OFFCURVE",
"424 336 CURVE SMOOTH",
"424 378 OFFCURVE",
"414 421 OFFCURVE",
"388 450 CURVE SMOOTH",
"358 483 OFFCURVE",
"312 500 OFFCURVE",
"250 500 CURVE SMOOTH",
"216 500 OFFCURVE",
"187 495 OFFCURVE",
"162 485 CURVE SMOOTH",
"141 476 OFFCURVE",
"123 464 OFFCURVE",
"108 449 CURVE SMOOTH",
"77 415 OFFCURVE",
"77 380 OFFCURVE",
"77 379 CURVE SMOOTH",
"77 369 OFFCURVE",
"85 361 OFFCURVE",
"95 361 CURVE SMOOTH",
"105 361 OFFCURVE",
"113 369 OFFCURVE",
"113 379 CURVE SMOOTH",
"113 383 OFFCURVE",
"117 405 OFFCURVE",
"135 424 CURVE SMOOTH",
"159 450 OFFCURVE",
"198 464 OFFCURVE",
"250 464 CURVE SMOOTH",
"339 464 OFFCURVE",
"384 427 OFFCURVE",
"387 350 CURVE",
"386 345 OFFCURVE",
"382 330 OFFCURVE",
"365 315 CURVE SMOOTH",
"338 290 OFFCURVE",
"292 276 OFFCURVE",
"231 276 CURVE SMOOTH",
"158 276 OFFCURVE",
"115 247 OFFCURVE",
"92 223 CURVE SMOOTH",
"66 196 OFFCURVE",
"50 160 OFFCURVE",
"50 126 CURVE SMOOTH",
"50 92 OFFCURVE",
"64 61 OFFCURVE",
"90 38 CURVE SMOOTH",
"118 13 OFFCURVE",
"160 0 OFFCURVE",
"210 0 CURVE SMOOTH",
"263 0 OFFCURVE",
"316 19 OFFCURVE",
"363 55 CURVE SMOOTH",
"373 63 OFFCURVE",
"382 70 OFFCURVE",
"389 77 CURVE",
"389 50 OFFCURVE",
"401 28 OFFCURVE",
"423 16 CURVE SMOOTH",
"439 7 OFFCURVE",
"455 7 OFFCURVE",
"456 7 CURVE SMOOTH",
"466 7 OFFCURVE",
"474 15 OFFCURVE",
"474 25 CURVE SMOOTH",
"474 35 OFFCURVE",
"466 43 OFFCURVE",
"456 43 CURVE"
);
},
{
closed = 1;
nodes = (
"299 52 OFFCURVE",
"256 36 OFFCURVE",
"210 36 CURVE SMOOTH",
"168 36 OFFCURVE",
"135 46 OFFCURVE",
"114 65 CURVE SMOOTH",
"91 85 OFFCURVE",
"87 109 OFFCURVE",
"87 126 CURVE SMOOTH",
"87 145 OFFCURVE",
"95 174 OFFCURVE",
"118 198 CURVE SMOOTH",
"145 226 OFFCURVE",
"184 240 OFFCURVE",
"231 240 CURVE SMOOTH",
"271 240 OFFCURVE",
"305 245 OFFCURVE",
"333 255 CURVE SMOOTH",
"355 263 OFFCURVE",
"373 274 OFFCURVE",
"388 287 CURVE",
"389 222 OFFCURVE",
"389 169 OFFCURVE",
"389 130 CURVE",
"385 124 OFFCURVE",
"368 104 OFFCURVE",
"340 83 CURVE SMOOTH"
);
}
);
width = 524;
}
);
note = amacron;
unicode = 0101;
},
